<svg width="206" height="65" viewBox="0 0 206 65" fill="none" xmlns="http://www.w3.org/2000/svg"><g clip-path="url(#clip0_475_3214)"><path fill-rule="evenodd" clip-rule="evenodd" d="M82.633 18.194h-8.588c-1.54 0-2.819 1.346-2.819 2.969v7.768c0 1.622 1.279 2.969 2.82 2.969h8.587c1.54 0 2.819-1.347 2.819-2.97v-7.767c0-1.623-1.278-2.969-2.82-2.969zm-31.5-10.219h-1.049v-.207c.296 0 .46-.069.328-.31-.196-.415.656-.38.787-.311.197.172.066.621-.066.828zm-1.442.276h1.279c-.132.242-.525 1.002-.787 1.002-.131-.173-.459-.656-.492-1.002zm24.42 12.912h8.49v7.768h-8.49v-7.768zm-17.438 0h11.8c0-1.623-1.278-2.969-2.819-2.969h-9.08c-1.54 0-2.818 1.346-2.818 2.969v7.768c0 1.622 1.278 2.969 2.819 2.969h9.079c1.54 0 2.819-1.347 2.819-2.97v-5.109h-9.571c0 1.278.983 2.279 2.163 2.279h4.72v2.83h-9.112v-7.767zm-36.875 0h11.275c0-1.623-1.278-2.969-2.819-2.969h-8.718c-1.541 0-2.82 1.346-2.82 2.969v2.417c0 1.622 1.279 2.969 2.82 2.969h8.751v2.416h-11.57c0 1.623 1.278 2.97 2.819 2.97h9.013c1.541 0 2.82-1.347 2.82-2.97V26.55c0-1.623-1.279-2.97-2.82-2.97h-8.751v-2.416zm-16.225 0h10.653c0-1.623-1.279-2.969-2.82-2.969H2.82C1.279 18.194 0 19.54 0 21.163v7.768C0 30.553 1.278 31.9 2.819 31.9h8.588c1.54 0 2.819-1.347 2.819-2.97H3.573v-7.767zM53.82 6.629a.45.45 0 01-.196.069c-.394.587-.164.518-.885 1.036 0 1 .032 1.104.262 2.002v.069c0 .034-.033.034-.033.034-.164.035-.426.104-.557.139 0 .034.065.586 0 1.035-.131.656-1.64 2.106-1.967 2.21-.492.103-1.049-.346-1.934-.76-.23-.103-1.049-.656-1.475-.828-.36-.138-.688.76-.262 1 .197.104.524.277.623.553.295.829-.033 4.005-.656 4.626-.295 0-.557-.276-.754-.207-.393.242-.13 1.485 0 1.692 2.393 2.589 2.13 4.522 3.147 5.972.459 0 .164.518.524 1.14.099.31-.032.828-.065 1.035v.794a.665.665 0 00-.066.242v.69c-.065.345-.164.794-.23 1.105-.13.656.394 1.174.066 1.795 0 .38 0 .31-.229.622 0 .587-.131 1.864 0 2.313.098.31 1.147 1.622 1.442 1.76.656.311 1.606.242 1.279 1.312-1.902.622-3.082-.345-4.098-.345l-.032.173c-.656 0-1.148-.173-1.312-.208 0-.172.197-1.588.295-1.83.066-.103.132-.24.23-.344.065-.242-.066-2.003-.099-2.486-.393-.31-.491-1.277-.491-1.795-.131-.415-.131-.898-.131-1.416 0-.241-.164-.621-.066-.932.066-.207.295-.31.328-.483v-.587c.098-.622.066-.898-.295-1.277-.885 0-1.016.069-1.475-.725-.164-.242-1.377-2.314-1.508-2.348-1.016-.483-.82-.276-1.278-1.14-.033 0-.295.104-.525.484-.36.587-1.016 2.451-1.212 3.107-.099.38 0 .76-.164 1.07-.099.207-.492.276-.557.45-.361.69-.099.62-.787 1.104-.131.173-.131.414-.23.621-.065.07-.098.138-.163.242-.132.276.13.725.065.897-.131.415-.262.864-.426 1.243-.328.794-.262 1.83-.59 2.313-.164.242-.557 0-.852.208-.033.172-.492 1.277-.59 1.588v1.795c.098.31.327.587.262.966-.066.415-1.41.415-2.13.277-.492-.07-.623-.45-.623-.898 0-.518.983-3.866.95-4.074-.754-.897.197-1.795.492-2.623.131-.415.065-.967.196-1.347.263-.518.525-1.001.787-1.519.492-.483.262-.518.525-.932.23-.38.491-.621.327-1.208-.327-1.14.361-2.762.427-3.97-.132-.139-.525-.104-.59-.45-.099-.759.262-2.07.491-2.174.099-.07.23 0 .295-.07 0-.552-.524-3.659-.13-3.831.261-.104.819-.138.917-.207 0-.138-.099-.415-.197-.415-.164-.034-.524-.103-.82-.172-.884-.207-.065-3.867-.065-3.901.23-.346 1.377.103 1.508-.45.36-.517-.295-2.45.983-4.867.426-.794 1.279-1.622 2.23-1.277.327.103.13.621.688.069 0-.31-.132-.553-.197-.829-.95-2.969 2.261-4.591 4.523-2.9.262.104.394.173.59.311.131.69.754 1.864.131 2.658a2.76 2.76 0 00-.786.346c0 .276.032.517.065.69.033.138.131.207-.098.31-.033 0 0 .104 0 .139.524.103 1.081-.104 1.442-.242h.426v-.552h.197v-.449h.197v.76h.524v.241h7.768v.414h.328V3.73h.295v1.277h.656v.725h2.065v-.207h.328v.104h.983v.587h-.983v.103h-.328v-.207h-2.065v.207h-.918V6.18h-.393v.449H53.82z" fill="#fff"/></g><path d="M97.088 9.25h108.489l-4.76 25.196H97.088V9.249z" fill="#16BDF9" stroke="url(#paint0_linear_475_3214)" stroke-width=".7"/><path d="M110.76 16.618v.906h-2.661v8.64h-2.1v-8.64h-2.636v-.906h7.397zm8.207 1.212v7.121c0 .808-.344 1.212-1.031 1.212h-5.075c-.687 0-1.031-.404-1.031-1.212v-7.12c0-.809.344-1.213 1.031-1.213h5.075c.687 0 1.031.404 1.031 1.213zm-2.101 6.952V18c0-.204-.026-.332-.078-.383-.052-.062-.161-.092-.326-.092h-2.114c-.165 0-.274.03-.326.092-.052.05-.078.179-.078.383v6.783c0 .205.026.338.078.4.052.05.161.076.326.076h2.114c.165 0 .274-.025.326-.077.052-.061.078-.194.078-.399zm6.149-8.164v8.164c0 .205.026.338.078.4.052.05.161.076.326.076h2.244c.165 0 .274-.025.326-.077.053-.061.079-.194.079-.399v-8.164h2.1v8.333c0 .808-.343 1.212-1.031 1.212h-5.205c-.687 0-1.031-.404-1.031-1.212v-8.333h2.114zm9.303.906v4.312h2.687c.174 0 .283-.03.326-.092.053-.062.079-.19.079-.384V18c0-.205-.026-.333-.079-.384-.043-.062-.152-.092-.326-.092h-2.687zm0 5.217v3.422h-2.114v-9.545h6.275c.688 0 1.031.404 1.031 1.213v3.698c0 .808-.343 1.212-1.031 1.212h-.639l1.84 3.422h-2.192l-1.748-3.422h-1.422zm12.642-6.123h1.944v9.546h-1.866l-3.666-7.137v7.136h-1.944v-9.545h1.905l3.627 7.12v-7.12zm6.162 6.752h3.105l-1.553-5.248-1.552 5.248zm3.926 2.793l-.561-1.887h-3.639l-.561 1.887h-2.049l3.105-9.545h2.662l3.118 9.546h-2.075zm5.293 0h-1.891v-9.545h2.257l2.517 5.97 2.597-5.97h2.257v9.546h-1.892V18.98l-2.231 5.11h-1.435l-2.179-5.094v7.166zm12.059-.905h4.214v.905h-6.392v-9.545h6.223v.906H172.4v3.299h3.51v.905h-3.51v3.53zm11.329-8.64h1.943v9.546h-1.865l-3.666-7.137v7.136h-1.944v-9.545h1.905l3.627 7.12v-7.12zm10.519 0v.906h-2.662v8.64h-2.1v-8.64h-2.635v-.906h7.397z" fill="#fff"/><path d="M2.88 51.824H.905v-1.062h1.973c.344 0 .622-.057.833-.17.212-.115.367-.271.464-.47.1-.203.15-.434.15-.694a1.6 1.6 0 00-.15-.688 1.17 1.17 0 00-.464-.523c-.211-.132-.49-.197-.833-.197H1.307v6.7H0v-7.768h2.88c.586 0 1.084.107 1.494.32.413.21.727.502.942.876.215.37.323.793.323 1.27 0 .5-.108.931-.323 1.29-.215.36-.53.636-.942.828-.41.192-.908.288-1.495.288zm9.975-1.201v.427a5.17 5.17 0 01-.224 1.58 3.44 3.44 0 01-.64 1.19 2.761 2.761 0 01-.99.752c-.385.17-.811.256-1.28.256-.465 0-.89-.086-1.276-.257a2.871 2.871 0 01-.994-.752 3.518 3.518 0 01-.656-1.19 5.059 5.059 0 01-.23-1.579v-.427c0-.587.077-1.111.23-1.574a3.5 3.5 0 01.645-1.19c.281-.33.613-.581.995-.752a3.06 3.06 0 011.275-.261c.469 0 .896.087 1.281.261.386.17.717.422.995.752.277.328.49.724.64 1.19.153.463.23.987.23 1.574zm-1.307.427v-.437c0-.434-.041-.817-.125-1.148-.08-.334-.2-.613-.359-.837a1.513 1.513 0 00-.578-.512 1.676 1.676 0 00-.776-.176c-.288 0-.545.058-.77.176a1.564 1.564 0 00-.578.512 2.52 2.52 0 00-.36.837 4.75 4.75 0 00-.124 1.148v.437c0 .434.041.818.125 1.153.083.334.204.617.364.848.163.227.358.4.583.517.226.114.483.171.77.171.292 0 .551-.057.777-.17a1.57 1.57 0 00.572-.518c.157-.231.275-.514.354-.849.084-.334.125-.718.125-1.152zm4.515 1.926l1.51-6.024h.79l-.088 1.553-1.614 6.216h-.822l.224-1.745zm-1.13-6.024l1.223 5.976.11 1.793h-.875l-1.755-7.769h1.297zm5.144 5.96l1.208-5.96h1.302l-1.755 7.769h-.875l.12-1.809zm-1.406-5.96l1.494 6.04.22 1.729h-.824l-1.588-6.216-.083-1.553h.781zm9.846 6.708v1.06h-4.025v-1.06h4.025zm-3.655-6.708v7.769h-1.307v-7.769h1.307zm3.13 3.244v1.046h-3.5v-1.046h3.5zm.499-3.244v1.068h-3.999v-1.068h3.999zm1.093 0h2.682c.576 0 1.067.09 1.473.267.406.178.717.441.932.79.219.345.328.772.328 1.28 0 .388-.07.73-.208 1.025a2.075 2.075 0 01-.588.747 2.829 2.829 0 01-.906.464l-.396.197h-2.41l-.011-1.061h1.807c.312 0 .572-.057.78-.171.209-.114.365-.269.47-.464.107-.2.16-.424.16-.673a1.5 1.5 0 00-.156-.704 1.018 1.018 0 00-.468-.464c-.212-.11-.481-.166-.807-.166H30.89v6.702h-1.307v-7.769zm4.327 7.769l-1.78-3.49 1.369-.005 1.806 3.425v.07h-1.395zm7.352-1.061v1.06h-4.025v-1.06h4.025zm-3.655-6.708v7.769H36.3v-7.769h1.307zm3.129 3.244v1.046h-3.499v-1.046h3.499zm.5-3.244v1.068h-3.999v-1.068h3.999zm3.296 7.768h-1.62l.01-1.06h1.61c.468 0 .86-.106 1.176-.316.32-.21.56-.51.719-.901.163-.392.245-.858.245-1.398v-.422c0-.42-.047-.791-.141-1.115a2.206 2.206 0 00-.406-.816 1.705 1.705 0 00-.656-.502 2.18 2.18 0 00-.89-.17h-1.698v-1.068h1.698c.503 0 .963.088 1.38.262.416.17.775.418 1.077.742.306.323.54.71.703 1.163.163.451.245.956.245 1.515v.41a4.44 4.44 0 01-.245 1.516c-.163.452-.398.84-.703 1.163-.305.32-.67.568-1.093.742-.42.17-.89.256-1.411.256zm-.896-7.768v7.769H42.33v-7.769h1.307zm11.158 4.258h-1.932l-.01-.976h1.687c.285 0 .526-.043.724-.128.2-.09.354-.215.458-.38.104-.166.156-.367.156-.602 0-.26-.049-.471-.146-.635a.838.838 0 00-.448-.357c-.197-.075-.45-.112-.76-.112H53.26v6.7h-1.307v-7.768h2.572c.417 0 .788.041 1.114.123.33.082.61.21.839.384.232.171.408.388.526.651.121.263.182.576.182.94 0 .32-.075.613-.224.88a1.73 1.73 0 01-.661.645c-.292.167-.655.267-1.088.299l-.417.336zm-.057 3.51h-2.286l.588-1.06h1.698c.295 0 .541-.05.74-.15a1.03 1.03 0 00.442-.422c.1-.181.15-.393.15-.635a1.53 1.53 0 00-.13-.656.908.908 0 00-.41-.432c-.188-.103-.433-.155-.735-.155h-1.468l.01-.976h1.911l.297.368c.416.014.758.108 1.026.283.27.174.471.4.603.677.132.278.198.577.198.897 0 .494-.106.908-.317 1.243a1.971 1.971 0 01-.901.763c-.392.17-.864.256-1.416.256zm4.384-7.768l1.76 3.709 1.76-3.709h1.447l-2.551 4.91v2.859H60.22v-2.86l-2.55-4.909h1.452z" fill="#6C829D"/><g clip-path="url(#clip1_475_3214)"><path d="M165.212 46.898h3.765l-5.394 7.027 1.629-7.027zM163.47 54.4l3.344-.03 6.996-9.111h-11.801l-2.978 12.834h3.597l.842-3.693zm-7.809-2.292l5.282-6.848h-11.829l-2.95 12.834h3.624l2.585-11.197h3.709l-3.99 5.182 2.136 6.014h3.624l-2.191-5.985zm47.285-6.848h-3.624l-4.917 5.866 1.405-5.866h-3.625l-2.978 12.834h3.596l1.321-5.599 3.091 5.599h3.596l-3.428-6.283 5.563-6.551zm-77.04 9.112l1.826-7.474h4.889v.06l-6.715 7.414zm9.299-9.142l-10.676.03-3.119 12.834h4.777l10.03-11.077-1.012-1.787zm-19.777 9.767l-1.461-9.737h-4.523l-3.006 12.834h3.596l2.079-8.844 1.124 8.843h5.029l3.006-12.833h-3.624l-2.22 9.737zm-27.761-4.02H84.21l1.377-5.717h-3.625l-3.006 12.834h3.625l1.123-4.914h3.456l-1.152 4.913h3.597L92.64 45.26h-3.596l-1.377 5.717zM80.7 45.26H70.585l-.394 1.37h3.513l-2.642 11.463h3.597l2.669-11.464h2.978l.394-1.37zm104.21 1.906h4.439l.422-1.906h-8.008l-2.978 12.834h8.036l.393-1.638h-4.439l2.135-9.29zm-84.823 8.724h-3.09l2.5-10.63h-3.625l-2.528 10.839 1.096 1.935.112.06h8.597v-.06l3.063-12.774h-3.625l-2.5 10.63zm78.418-10.63h-3.653v-.03c-1.039 4.259-2.95 12.864-2.95 12.864h3.597l3.006-12.834z" fill="#fff"/><path d="M128.462 64.615l15.565-6.938.478-2.055h-4.468l5.17-2.978.281-1.16h-6.35l7.811-6.224h-4.692l-9.216 8.248.169.327 5.844-.03-6.884 3.931.141.268 5.844.03-9.862 6.253.169.328z" fill="#16BDF9"/></g><defs><clipPath id="clip0_475_3214"><path fill="#fff" d="M0 0h85.452v38.769H0z"/></clipPath><clipPath id="clip1_475_3214"><path fill="#fff" transform="translate(70.191 45.23)" d="M0 0h132.756v19.385H0z"/></clipPath><linearGradient id="paint0_linear_475_3214" x1="121.815" y1="53.041" x2="174.931" y2="52.897" gradientUnits="userSpaceOnUse"><stop stop-color="#60F5FF"/><stop offset="1" stop-color="#6DF6FF" stop-opacity="0"/></linearGradient></defs></svg>