<svg width="383" height="36" viewBox="0 0 383 36" fill="none" xmlns="http://www.w3.org/2000/svg"><g clip-path="url(#clip0_475_1216)"><path fill-rule="evenodd" clip-rule="evenodd" d="M81.229 16.894h-8.442c-1.514 0-2.77 1.25-2.77 2.757v7.213c0 1.507 1.256 2.757 2.77 2.757h8.442c1.514 0 2.771-1.25 2.771-2.757v-7.213c0-1.506-1.257-2.757-2.771-2.757zM50.265 7.406h-1.031v-.193c.29 0 .45-.064.322-.288-.194-.385.644-.353.773-.289.193.16.065.577-.064.77zm-1.418.256h1.257c-.13.224-.516.93-.774.93-.129-.16-.45-.61-.483-.93zm24.005 11.99h8.345v7.212h-8.345v-7.213zm-17.142 0h11.6c0-1.507-1.257-2.758-2.772-2.758h-8.925c-1.514 0-2.77 1.25-2.77 2.757v7.213c0 1.507 1.256 2.757 2.77 2.757h8.925c1.515 0 2.772-1.25 2.772-2.757V22.12H57.9a2.12 2.12 0 002.127 2.115h4.64v2.63H55.71V19.65zm-36.249 0h11.085c0-1.507-1.257-2.758-2.771-2.758h-8.571c-1.515 0-2.771 1.25-2.771 2.757v2.244c0 1.507 1.256 2.757 2.77 2.757h8.604v2.244H16.433c0 1.507 1.256 2.757 2.77 2.757h8.861c1.515 0 2.771-1.25 2.771-2.757v-2.244c0-1.507-1.256-2.757-2.77-2.757H19.46v-2.244zm-15.949 0h10.472c0-1.507-1.257-2.758-2.771-2.758H2.77c-1.513 0-2.77 1.25-2.77 2.757v7.213c0 1.507 1.257 2.757 2.771 2.757h8.442c1.514 0 2.77-1.25 2.77-2.757H3.514v-7.213zM52.907 6.154c-.065.032-.13.064-.193.064-.387.545-.162.481-.87.962 0 .93.032 1.026.257 1.86v.064c0 .032-.032.032-.032.032-.161.032-.419.096-.548.128 0 .032.065.545 0 .961-.129.61-1.61 1.956-1.933 2.052-.483.096-1.031-.32-1.901-.705-.226-.096-1.031-.61-1.45-.77-.354-.128-.677.706-.258.93.194.096.516.257.613.513.29.77-.033 3.719-.645 4.296-.29 0-.548-.257-.741-.193-.387.225-.129 1.379 0 1.571 2.352 2.404 2.094 4.2 3.093 5.546.451 0 .161.48.516 1.058.096.288-.032.77-.065.962v.737a.593.593 0 00-.064.224v.642c-.065.32-.161.737-.226 1.025-.129.61.387 1.09.065 1.667 0 .353 0 .289-.226.577 0 .545-.129 1.731 0 2.148.097.289 1.128 1.507 1.418 1.635.644.288 1.579.224 1.257 1.218-1.87.577-3.03-.32-4.028-.32l-.032.16c-.645 0-1.128-.16-1.29-.192 0-.16.194-1.475.29-1.7.065-.096.13-.224.226-.32.065-.224-.064-1.86-.096-2.308-.387-.289-.484-1.186-.484-1.667-.129-.385-.129-.834-.129-1.314 0-.225-.16-.578-.064-.866.065-.192.29-.288.322-.449v-.545c.097-.577.065-.833-.29-1.186-.87 0-.998.064-1.45-.673-.16-.224-1.353-2.148-1.482-2.18-.999-.449-.805-.256-1.256-1.058-.033 0-.29.096-.516.449-.354.545-.999 2.276-1.192 2.885-.097.353 0 .705-.161.994-.097.192-.483.256-.548.417-.354.64-.097.577-.773 1.026-.13.16-.13.384-.226.576-.064.065-.096.129-.16.225-.13.256.128.673.064.833-.13.385-.258.802-.42 1.154-.322.738-.257 1.7-.58 2.148-.16.225-.547 0-.837.193-.032.16-.483 1.186-.58 1.474v1.667c.097.289.322.545.258.898-.065.384-1.386.384-2.095.256-.483-.064-.612-.416-.612-.833 0-.481.967-3.59.934-3.783-.74-.834.194-1.667.484-2.436.129-.385.064-.898.193-1.25.258-.481.516-.93.773-1.411.484-.449.258-.48.516-.866.226-.352.483-.577.322-1.122-.322-1.058.355-2.564.42-3.686-.13-.128-.516-.096-.58-.417-.098-.705.257-1.923.482-2.02.097-.064.226 0 .29-.064 0-.512-.515-3.398-.129-3.558.258-.096.806-.128.903-.192 0-.129-.097-.385-.194-.385-.16-.032-.515-.096-.805-.16-.87-.193-.065-3.59-.065-3.623.226-.32 1.354.096 1.483-.416.354-.481-.29-2.276.966-4.52.42-.738 1.257-1.507 2.191-1.187.322.097.13.577.677.065 0-.289-.129-.513-.193-.77C40.566.545 43.724-.96 45.947.61c.258.097.387.16.58.289.129.641.741 1.731.129 2.468-.258.064-.58.193-.773.32 0 .257.032.482.064.642.032.128.129.192-.097.289-.032 0 0 .096 0 .128.516.096 1.064-.096 1.418-.225h.419v-.513h.193v-.416h.194v.705h.515v.224h7.636v.385h.323V3.462h.29V4.65h.644v.673h2.03V5.13h.322v.097h.967v.545h-.967v.096h-.322v-.193h-2.03v.193h-.902V5.74h-.387v.416h-3.286z" fill="#fff"/></g><path d="M97.5 9.5h107.877l-4.659 21H97.5v-21z" fill="#16BDF9" stroke="url(#paint0_linear_475_1216)"/><path d="M111.325 16v.759h-2.635V24h-2.08v-7.241H104V16h7.325zm8.126 1.016v5.968c0 .677-.34 1.016-1.02 1.016h-5.026c-.68 0-1.02-.339-1.02-1.016v-5.968c0-.677.34-1.016 1.02-1.016h5.026c.68 0 1.02.339 1.02 1.016zm-2.08 5.826v-5.684c0-.172-.025-.28-.077-.322-.052-.051-.159-.077-.323-.077h-2.093c-.164 0-.271.026-.323.077-.052.043-.077.15-.077.322v5.684c0 .172.025.283.077.335.052.043.159.064.323.064h2.093c.164 0 .271-.021.323-.064.052-.052.077-.163.077-.335zM123.46 16v6.842c0 .172.026.283.078.335.052.043.159.064.323.064h2.222c.164 0 .271-.021.323-.064.052-.052.077-.163.077-.335V16h2.08v6.984c0 .677-.34 1.016-1.02 1.016h-5.155c-.68 0-1.021-.339-1.021-1.016V16h2.093zm9.213.759v3.614h2.661c.172 0 .28-.026.323-.077.052-.052.078-.159.078-.322v-2.816c0-.172-.026-.28-.078-.322-.043-.051-.151-.077-.323-.077h-2.661zm0 4.373V24h-2.093v-8h6.214c.68 0 1.021.339 1.021 1.016v3.1c0 .677-.341 1.016-1.021 1.016h-.633L137.982 24h-2.17l-1.731-2.868h-1.408zM145.192 16h1.925v8h-1.848l-3.63-5.98V24h-1.925v-8h1.886l3.592 5.968V16zm6.101 5.66h3.075l-1.537-4.4-1.538 4.4zm3.889 2.34l-.555-1.582h-3.605L150.467 24h-2.029l3.075-8h2.636l3.087 8h-2.054zm5.241 0h-1.873v-8h2.235l2.494 5.003L165.85 16h2.235v8h-1.874v-6.02l-2.209 4.284h-1.421l-2.158-4.27V24zm11.942-.759h4.173V24h-6.33v-8h6.162v.759h-4.005v2.765h3.475v.759h-3.475v2.958zM183.583 16h1.925v8h-1.847l-3.631-5.98V24h-1.924v-8h1.886l3.591 5.968V16zM194 16v.759h-2.636V24h-2.079v-7.241h-2.61V16H194z" fill="#fff"/><path stroke="#6C829D" d="M238.5 4v28"/><g clip-path="url(#clip1_475_1216)"><path d="M350.597 17.813h3.233l-4.632 5.532 1.399-5.532zm-1.496 5.907l2.871-.024 6.008-7.173h-10.133l-2.558 10.103h3.088l.724-2.906zm-6.708-1.805l4.536-5.392h-10.157l-2.534 10.103h3.113l2.219-8.813h3.185l-3.426 4.078 1.834 4.735h3.112l-1.882-4.711zm40.608-5.392h-3.112l-4.222 4.618 1.206-4.618h-3.112l-2.558 10.103h3.088l1.134-4.407 2.654 4.407h3.089l-2.944-4.946 4.777-5.157zm-66.156 7.173l1.568-5.883h4.198v.047l-5.766 5.836zm7.986-7.196l-9.169.023-2.678 10.103h4.102l8.613-8.72-.868-1.406zm-16.985 7.689l-1.255-7.666h-3.884l-2.582 10.103h3.088l1.786-6.962.965 6.962h4.318l2.582-10.103h-3.112l-1.906 7.666zm-23.839-3.165h-2.968l1.182-4.5h-3.112l-2.582 10.102h3.113l.965-3.867h2.967l-.989 3.867h3.088l2.606-10.103h-3.088l-1.182 4.501zm-5.984-4.501h-8.685L269 17.602h3.016l-2.268 9.024h3.088l2.292-9.024h2.558l.337-1.079zm89.487 1.501h3.812l.362-1.5h-6.877l-2.557 10.102h6.9l.338-1.289h-3.812l1.834-7.313zm-72.841 6.868h-2.654l2.148-8.369h-3.113l-2.171 8.533.941 1.523.096.047h7.383v-.047l2.63-10.056h-3.112l-2.148 8.369zm67.341-8.369h-3.137V16.5c-.893 3.352-2.533 10.126-2.533 10.126h3.088l2.582-10.103z" fill="#fff"/><path d="M319.039 31.76l13.367-5.462.41-1.617h-3.836l4.439-2.344.241-.915h-5.452l6.707-4.899h-4.029l-7.914 6.494.145.257 5.018-.023-5.911 3.094.121.211 5.018.023-8.468 4.923.144.258z" fill="#16BDF9"/></g><path d="M271.396 11.644h-1.295v-.68h1.295c.226 0 .408-.037.547-.11a.682.682 0 00.304-.3.967.967 0 00.099-.445.995.995 0 00-.099-.44.756.756 0 00-.304-.335c-.139-.085-.321-.127-.547-.127h-1.032V13.5h-.858V8.523h1.89c.385 0 .712.069.981.206.271.134.477.32.619.56.141.237.212.508.212.813 0 .322-.071.598-.212.828a1.37 1.37 0 01-.619.53c-.269.122-.596.184-.981.184zm6.549-.769v.273c0 .376-.049.714-.147 1.012a2.174 2.174 0 01-.421.762c-.18.21-.396.37-.649.482-.253.11-.533.164-.841.164-.305 0-.584-.054-.837-.164a1.883 1.883 0 01-.653-.482 2.24 2.24 0 01-.431-.762c-.1-.298-.15-.636-.15-1.012v-.273c0-.376.05-.712.15-1.008.101-.299.242-.553.424-.763a1.83 1.83 0 01.653-.481 2.05 2.05 0 01.837-.168c.308 0 .588.056.841.168.253.109.471.27.653.481.182.21.322.464.42.763.101.296.151.632.151 1.008zm-.858.273v-.28c0-.278-.027-.523-.082-.735a1.516 1.516 0 00-.236-.536.984.984 0 00-.379-.328 1.129 1.129 0 00-.51-.113c-.189 0-.357.037-.505.113a1.016 1.016 0 00-.38.328 1.611 1.611 0 00-.236.536 2.989 2.989 0 00-.082.735v.28c0 .278.028.524.082.739.055.214.135.395.24.543.107.146.234.257.382.332.148.073.317.11.506.11.192 0 .361-.037.509-.11a1.01 1.01 0 00.376-.332c.103-.148.18-.33.233-.543.055-.215.082-.46.082-.739zm2.963 1.234l.992-3.859h.519l-.058.995-1.06 3.982h-.54l.147-1.118zm-.741-3.859l.803 3.829.072 1.148h-.575l-1.151-4.977h.851zm3.377 3.818l.793-3.818h.854l-1.152 4.977h-.574l.079-1.159zm-.923-3.818l.981 3.87.143 1.107h-.54l-1.042-3.982-.055-.995h.513zm6.463 4.297v.68h-2.642v-.68h2.642zm-2.399-4.297V13.5h-.858V8.523h.858zm2.054 2.079v.67h-2.297v-.67h2.297zm.328-2.079v.684h-2.625v-.684h2.625zm.718 0h1.76c.378 0 .701.057.967.171.267.114.471.283.612.506.144.221.215.495.215.82 0 .249-.045.468-.136.657-.091.189-.22.348-.387.478a1.86 1.86 0 01-.594.298l-.26.126h-1.583l-.006-.68h1.186c.205 0 .376-.036.512-.11a.73.73 0 00.308-.297.87.87 0 00.106-.43.935.935 0 00-.103-.452.659.659 0 00-.307-.297 1.168 1.168 0 00-.53-.106h-.902V13.5h-.858V8.523zm2.84 4.977l-1.169-2.235.899-.004 1.186 2.195v.044h-.916zm4.826-.68v.68h-2.642v-.68h2.642zm-2.399-4.297V13.5h-.858V8.523h.858zm2.054 2.079v.67h-2.297v-.67h2.297zm.328-2.079v.684h-2.625v-.684h2.625zm2.164 4.977h-1.063l.007-.68h1.056c.307 0 .565-.067.772-.202.21-.134.367-.327.472-.578.107-.25.161-.549.161-.895v-.27c0-.269-.031-.507-.093-.714a1.403 1.403 0 00-.266-.523 1.122 1.122 0 00-.431-.322 1.46 1.46 0 00-.584-.109h-1.115v-.684h1.115c.33 0 .632.056.905.168.274.11.51.268.708.475.2.207.354.456.461.745.107.29.161.613.161.97v.264c0 .358-.054.681-.161.97a2.12 2.12 0 01-.461.746 2.08 2.08 0 01-.718.475 2.48 2.48 0 01-.926.164zm-.588-4.977V13.5h-.858V8.523h.858zm7.325 2.728h-1.269l-.006-.625h1.107c.187 0 .345-.028.475-.082a.658.658 0 00.301-.243.706.706 0 00.103-.386.771.771 0 00-.096-.407.55.55 0 00-.294-.23 1.464 1.464 0 00-.499-.071h-.831V13.5h-.858V8.523h1.689c.273 0 .517.027.731.08.217.051.4.133.551.245.152.11.267.249.345.417.08.169.119.37.119.602 0 .205-.049.393-.147.564a1.115 1.115 0 01-.434.413 1.7 1.7 0 01-.714.192l-.273.215zm-.038 2.249h-1.501l.387-.68h1.114c.194 0 .355-.032.485-.096a.672.672 0 00.291-.27.81.81 0 00.099-.407.975.975 0 00-.085-.42.587.587 0 00-.271-.277 1.013 1.013 0 00-.481-.099h-.964l.007-.625h1.254l.195.235c.273.01.498.07.673.181.178.112.31.257.397.435a1.3 1.3 0 01.129.574c0 .316-.069.582-.208.796a1.289 1.289 0 01-.591.489c-.258.11-.568.164-.93.164zm2.878-4.977l1.155 2.376 1.155-2.376h.951l-1.675 3.145V13.5h-.865v-1.832l-1.675-3.145h.954z" fill="#6C829D"/><defs><clipPath id="clip0_475_1216"><path fill="#fff" d="M0 0h84v36H0z"/></clipPath><clipPath id="clip1_475_1216"><path fill="#fff" transform="translate(269 16.5)" d="M0 0h114v15.26H0z"/></clipPath><linearGradient id="paint0_linear_475_1216" x1="122.016" y1="46.5" x2="175.006" y2="46.331" gradientUnits="userSpaceOnUse"><stop stop-color="#60F5FF"/><stop offset="1" stop-color="#6DF6FF" stop-opacity="0"/></linearGradient></defs></svg>