<svg width="477" height="45" viewBox="0 0 477 45" fill="none" xmlns="http://www.w3.org/2000/svg"><g clip-path="url(#clip0_470_2443)"><path fill-rule="evenodd" clip-rule="evenodd" d="M99.602 20.86H89.251c-1.857 0-3.398 1.544-3.398 3.405v8.906c0 1.86 1.54 3.404 3.398 3.404h10.351c1.857 0 3.398-1.544 3.398-3.404v-8.906c0-1.86-1.541-3.405-3.398-3.405zM61.634 9.144H60.37v-.238c.355 0 .553-.08.395-.356-.237-.475.79-.436.948-.356.237.198.08.712-.079.95zm-1.738.316h1.54c-.157.277-.632 1.148-.948 1.148-.158-.198-.553-.752-.592-1.148zM89.33 24.265h10.233v8.906H89.33v-8.906zm-21.019 0h14.223c0-1.86-1.54-3.405-3.397-3.405H68.193c-1.857 0-3.398 1.544-3.398 3.405v8.906c0 1.86 1.54 3.404 3.398 3.404h10.944c1.856 0 3.397-1.544 3.397-3.404v-5.858H70.998a2.608 2.608 0 002.607 2.612h5.69v3.246H68.31v-8.906zm-44.448 0h13.592c0-1.86-1.541-3.405-3.398-3.405h-10.51c-1.857 0-3.397 1.544-3.397 3.405v2.77c0 1.86 1.54 3.405 3.397 3.405h10.55v2.77H20.15c0 1.861 1.54 3.405 3.397 3.405h10.865c1.857 0 3.398-1.544 3.398-3.404V30.44c0-1.86-1.54-3.405-3.398-3.405H23.863v-2.77zm-19.557 0h12.84c0-1.86-1.54-3.405-3.397-3.405H3.398C1.54 20.86 0 22.404 0 24.265v8.906c0 1.86 1.54 3.404 3.398 3.404h10.351c1.857 0 3.398-1.544 3.398-3.404H4.307v-8.906zM64.874 7.6a.559.559 0 01-.237.079c-.474.673-.198.594-1.067 1.188 0 1.147.04 1.266.316 2.295v.08c0 .04-.04.04-.04.04-.197.039-.513.118-.671.158 0 .04.079.672 0 1.187-.158.752-1.975 2.415-2.37 2.533-.593.12-1.265-.396-2.332-.87-.276-.12-1.264-.753-1.778-.95-.434-.159-.83.87-.316 1.147.237.12.633.317.751.634.356.95-.04 4.591-.79 5.304-.356 0-.672-.317-.909-.238-.474.278-.158 1.703 0 1.94 2.884 2.969 2.568 5.186 3.793 6.848.553 0 .198.594.632 1.306.119.357-.04.95-.079 1.188v.91a.735.735 0 00-.079.277v.792c-.079.396-.197.91-.276 1.267-.158.752.474 1.346.079 2.058 0 .435 0 .356-.277.713 0 .673-.158 2.137 0 2.652.119.356 1.383 1.86 1.738 2.019.79.356 1.936.277 1.541 1.504-2.291.712-3.714-.396-4.938-.396l-.04.198c-.79 0-1.383-.198-1.58-.238 0-.198.237-1.82.355-2.098.08-.118.158-.277.277-.396.079-.277-.08-2.295-.119-2.85-.474-.356-.592-1.464-.592-2.058-.158-.475-.158-1.03-.158-1.623 0-.277-.198-.712-.08-1.069.08-.237.356-.356.396-.554v-.673c.118-.712.079-1.029-.356-1.464-1.066 0-1.225.079-1.778-.832-.197-.277-1.66-2.652-1.817-2.691-1.225-.554-.988-.317-1.541-1.307-.04 0-.356.12-.632.555-.435.673-1.225 2.81-1.462 3.562-.119.436 0 .871-.198 1.227-.118.238-.592.317-.671.515-.435.792-.119.712-.948 1.267-.158.198-.158.475-.277.712-.079.08-.119.158-.197.277-.158.317.158.831.078 1.03-.157.474-.316.989-.513 1.424-.395.91-.316 2.098-.711 2.652-.198.278-.672 0-1.027.238-.04.198-.593 1.465-.712 1.82v2.06c.119.355.395.672.316 1.108-.079.474-1.698.474-2.568.316-.592-.079-.75-.514-.75-1.029 0-.594 1.185-4.433 1.145-4.67-.908-1.03.237-2.06.593-3.01.158-.474.08-1.108.237-1.543.316-.594.632-1.148.948-1.742.593-.554.316-.593.633-1.068.276-.436.592-.713.395-1.386-.395-1.306.434-3.167.513-4.552-.158-.158-.632-.119-.711-.515-.118-.87.316-2.375.593-2.493.118-.08.276 0 .355-.08 0-.633-.632-4.195-.158-4.393.316-.12.988-.159 1.107-.238 0-.158-.12-.475-.238-.475-.197-.04-.632-.119-.987-.198-1.067-.237-.08-4.433-.08-4.473.277-.396 1.66.119 1.818-.514.435-.594-.355-2.81 1.185-5.582.514-.91 1.541-1.86 2.687-1.464.395.118.158.712.83.079 0-.356-.158-.633-.237-.95C49.742.673 53.614-1.188 56.34.752c.316.119.474.198.711.356.158.792.909 2.138.158 3.048-.316.08-.711.238-.948.396 0 .317.04.594.079.792.04.158.158.237-.119.356-.04 0 0 .119 0 .158.633.119 1.304-.119 1.739-.277h.513v-.633h.237v-.515h.237v.871h.633v.277h9.363v.475h.395V4.275h.356v1.464h.79v.832h2.49v-.238h.394v.119h1.186v.673h-1.186v.119h-.395v-.238h-2.489v.238h-1.106v-.159h-.474V7.6h-4.03z" fill="#fff"/></g><path d="M123.598 10.953h136.331l-5.927 26H123.598v-26z" fill="#16BDF9" stroke="url(#paint0_linear_470_2443)"/><path d="M140.744 18.501v.944h-3.349v9.008h-2.642v-9.008h-3.315v-.944h9.306zm10.323 1.264v7.424c0 .843-.432 1.264-1.296 1.264h-6.385c-.864 0-1.296-.421-1.296-1.264v-7.424c0-.843.432-1.264 1.296-1.264h6.385c.864 0 1.296.421 1.296 1.264zm-2.642 7.248v-7.072c0-.213-.033-.347-.098-.4-.066-.064-.203-.096-.411-.096h-2.659c-.208 0-.344.032-.41.096-.066.053-.099.187-.099.4v7.072c0 .213.033.352.099.416.066.053.202.08.41.08h2.659c.208 0 .345-.027.411-.08.065-.064.098-.203.098-.416zm7.736-8.512v8.512c0 .213.032.352.098.416.066.053.202.08.41.08h2.823c.208 0 .345-.027.411-.08.065-.064.098-.203.098-.416v-8.512h2.643v8.688c0 .843-.433 1.264-1.297 1.264h-6.549c-.864 0-1.296-.421-1.296-1.264v-8.688h2.659zm11.703.944v4.496h3.381c.219 0 .356-.032.411-.096.065-.064.098-.197.098-.4v-3.504c0-.213-.033-.347-.098-.4-.055-.064-.192-.096-.411-.096h-3.381zm0 5.44v3.568h-2.659v-9.952h7.895c.864 0 1.297.421 1.297 1.264v3.856c0 .843-.433 1.264-1.297 1.264h-.804l2.314 3.568h-2.757l-2.2-3.568h-1.789zm15.905-6.384h2.445v9.952h-2.347l-4.612-7.44v7.44h-2.445v-9.952h2.396l4.563 7.424v-7.424zm7.752 7.04h3.906l-1.953-5.472-1.953 5.472zm4.94 2.912l-.706-1.968h-4.579l-.706 1.968h-2.576l3.906-9.952h3.348l3.923 9.952h-2.61zm6.659 0h-2.38v-9.952h2.839l3.168 6.224 3.266-6.224h2.84v9.952h-2.38v-7.488l-2.807 5.328h-1.805l-2.741-5.312v7.472zm15.171-.944h5.301v.944h-8.042v-9.952h7.829v.944h-5.088v3.44h4.415v.944h-4.415v3.68zm14.252-9.008h2.445v9.952h-2.347l-4.612-7.44v7.44h-2.445v-9.952h2.396l4.563 7.424v-7.424zm13.234 0v.944h-3.349v9.008h-2.642v-9.008h-3.316v-.944h9.307z" fill="#fff"/><path stroke="#6C829D" d="M286.5 2.727v39"/><g clip-path="url(#clip1_470_2443)"><path d="M433.846 22.947h4.306l-6.169 7.25 1.863-7.25zm-1.992 7.742l3.824-.031 8-9.401h-13.495l-3.406 13.241h4.113l.964-3.81zm-8.931-2.366l6.04-7.066h-13.527l-3.374 13.241h4.145l2.956-11.551h4.242l-4.563 5.345 2.442 6.206h4.145l-2.506-6.175zm54.074-7.066h-4.145l-5.623 6.052 1.607-6.052h-4.145l-3.406 13.241h4.113l1.51-5.776 3.535 5.776h4.112l-3.92-6.482 6.362-6.76zm-88.102 9.401l2.088-7.711h5.591v.061l-7.679 7.65zm10.635-9.431l-12.21.03-3.566 13.241h5.462l11.471-11.428-1.157-1.843zm-22.619 10.076l-1.671-10.046h-5.173l-3.438 13.241h4.113l2.377-9.124 1.286 9.124h5.751l3.438-13.241h-4.145l-2.538 10.046zm-31.747-4.148h-3.952l1.574-5.898h-4.145l-3.438 13.241h4.145l1.285-5.07h3.952l-1.317 5.07h4.113l3.47-13.241h-4.113l-1.574 5.898zm-7.967-5.898H325.63l-.45 1.413h4.016l-3.02 11.828h4.113l3.052-11.828h3.406l.45-1.413zm119.175 1.966h5.076l.482-1.966h-9.157l-3.406 13.241h9.19l.45-1.69h-5.077l2.442-9.585zm-97.004 9.002h-3.535l2.86-10.968h-4.145l-2.892 11.183 1.253 1.997.129.061h9.832v-.061l3.502-13.18h-4.145l-2.859 10.968zm89.679-10.968h-4.177v-.03c-1.189 4.393-3.374 13.271-3.374 13.271h4.113l3.438-13.24z" fill="#fff"/><path d="M391.818 41.226l17.8-7.158.547-2.12h-5.109l5.912-3.072.321-1.198h-7.261l8.932-6.421h-5.366l-10.539 8.51.193.338 6.683-.031-7.872 4.055.161.277 6.683.03-11.278 6.452.193.338z" fill="#16BDF9"/></g><path d="M327.668 12.575h-1.898v-.971h1.898c.331 0 .598-.053.802-.157a.993.993 0 00.446-.43c.096-.185.145-.397.145-.634a1.41 1.41 0 00-.145-.63 1.097 1.097 0 00-.446-.479c-.204-.12-.471-.18-.802-.18h-1.512v6.133h-1.258v-7.11h2.77c.565 0 1.044.098 1.438.293a2.1 2.1 0 01.906.8c.207.34.311.727.311 1.163 0 .459-.104.853-.311 1.182a1.985 1.985 0 01-.906.757c-.394.175-.873.263-1.438.263zm9.597-1.098v.39c0 .537-.072 1.02-.215 1.445a3.11 3.11 0 01-.616 1.09 2.656 2.656 0 01-.952.688 3.14 3.14 0 01-1.232.234c-.448 0-.857-.078-1.227-.234a2.753 2.753 0 01-.957-.689c-.27-.3-.481-.662-.631-1.088a4.42 4.42 0 01-.22-1.446v-.39c0-.537.073-1.018.22-1.44.147-.427.354-.79.621-1.09.271-.302.589-.532.957-.688.37-.16.779-.24 1.227-.24.451 0 .861.08 1.232.24.371.156.69.386.957.688.267.3.472.663.616 1.09.147.422.22.902.22 1.44zm-1.257.39v-.4c0-.397-.04-.747-.12-1.05a2.126 2.126 0 00-.346-.767 1.43 1.43 0 00-.556-.468 1.68 1.68 0 00-.746-.161c-.277 0-.524.053-.741.16a1.48 1.48 0 00-.556.47 2.22 2.22 0 00-.346.766c-.08.303-.12.653-.12 1.05v.4c0 .397.04.749.12 1.055.08.306.197.565.351.776.157.209.344.367.561.474.217.104.464.156.741.156.28 0 .529-.052.746-.156.217-.107.401-.265.551-.474a2.3 2.3 0 00.341-.776c.08-.306.12-.658.12-1.055zm4.343 1.763l1.452-5.513h.762l-.086 1.421-1.552 5.689h-.792l.216-1.597zm-1.087-5.513l1.177 5.469.105 1.64h-.841l-1.688-7.109h1.247zm4.948 5.454l1.162-5.454h1.253l-1.688 7.11h-.842l.115-1.656zm-1.352-5.454l1.438 5.527.21 1.583h-.791l-1.528-5.689-.08-1.42h.751zm9.472 6.138v.972h-3.872v-.972h3.872zm-3.516-6.138v7.11h-1.258v-7.11h1.258zm3.01 2.969v.957h-3.366v-.957h3.366zm.481-2.969v.977h-3.847v-.977h3.847zm1.052 0h2.579c.554 0 1.027.082 1.418.244.39.163.689.404.896.723.211.316.316.706.316 1.172 0 .355-.067.667-.201.937a1.91 1.91 0 01-.566.684 2.759 2.759 0 01-.871.425l-.381.18h-2.319l-.01-.971h1.738c.301 0 .551-.052.751-.156.201-.105.351-.246.451-.425a1.22 1.22 0 00.156-.615 1.32 1.32 0 00-.151-.645.957.957 0 00-.451-.425c-.203-.1-.462-.151-.776-.151h-1.322v6.133h-1.257v-7.11zm4.162 7.11l-1.713-3.194 1.317-.005 1.738 3.135v.064h-1.342zm7.072-.972v.972h-3.871v-.972h3.871zm-3.516-6.138v7.11h-1.257v-7.11h1.257zm3.01 2.969v.957h-3.365v-.957h3.365zm.481-2.969v.977h-3.846v-.977h3.846zm3.171 7.11h-1.558l.01-.972h1.548c.451 0 .828-.096 1.132-.288.307-.192.537-.467.691-.825.157-.358.236-.785.236-1.28v-.385a3.5 3.5 0 00-.136-1.02 1.993 1.993 0 00-.39-.748 1.637 1.637 0 00-.632-.459 2.187 2.187 0 00-.856-.156h-1.633v-.977h1.633c.484 0 .927.08 1.327.24.401.156.747.382 1.037.678.294.296.519.651.676 1.065.157.413.236.875.236 1.386v.376c0 .511-.079.974-.236 1.387a3.003 3.003 0 01-.676 1.064c-.294.293-.644.52-1.052.68a3.736 3.736 0 01-1.357.234zm-.862-7.11v7.11h-1.257v-7.11h1.257zm10.734 3.897h-1.858l-.01-.894h1.623c.274 0 .506-.039.696-.117a.957.957 0 00.441-.347c.1-.153.15-.337.15-.552 0-.237-.047-.43-.14-.58a.801.801 0 00-.431-.328 2.195 2.195 0 00-.731-.102h-1.217v6.133h-1.258v-7.11h2.475c.401 0 .758.038 1.072.112.317.075.586.193.806.352.224.156.392.355.506.596.117.24.175.527.175.86 0 .292-.071.56-.215.805-.144.24-.356.438-.636.59-.281.154-.63.245-1.047.274l-.401.308zm-.055 3.213h-2.199l.566-.972h1.633c.284 0 .521-.046.711-.137a.966.966 0 00.426-.386 1.13 1.13 0 00.145-.58c0-.232-.041-.432-.125-.601a.849.849 0 00-.395-.396c-.181-.094-.416-.141-.707-.141h-1.412l.01-.894h1.838l.286.337c.4.013.729.1.986.259.261.16.454.366.581.62.127.254.191.527.191.82 0 .453-.102.832-.306 1.138a1.87 1.87 0 01-.866.698c-.378.156-.832.235-1.363.235zm4.218-7.11l1.693 3.394 1.693-3.394h1.392l-2.454 4.492v2.618h-1.268v-2.618l-2.454-4.492h1.398z" fill="#6C829D"/><defs><clipPath id="clip0_470_2443"><path fill="#fff" d="M0 0h103v44.453H0z"/></clipPath><clipPath id="clip1_470_2443"><path fill="#fff" transform="translate(325.18 21.227)" d="M0 0h151.819v20H0z"/></clipPath><linearGradient id="paint0_linear_470_2443" x1="154.645" y1="56.476" x2="221.47" y2="56.257" gradientUnits="userSpaceOnUse"><stop stop-color="#60F5FF"/><stop offset="1" stop-color="#6DF6FF" stop-opacity="0"/></linearGradient></defs></svg>