<svg width="135" height="40" viewBox="0 0 135 40" fill="none" xmlns="http://www.w3.org/2000/svg"><g clip-path="url(#clip0_470_2865)"><path fill-rule="evenodd" clip-rule="evenodd" d="M54.153 11.263h-5.628c-1.01 0-1.848.833-1.848 1.838v4.808c0 1.005.838 1.838 1.848 1.838h5.628c1.01 0 1.847-.833 1.847-1.838v-4.808a1.856 1.856 0 00-1.847-1.838zM33.51 4.937h-.688v-.128c.194 0 .301-.043.215-.193-.129-.256.43-.235.516-.192.129.107.043.385-.043.513zm-.945.171h.837c-.086.15-.343.62-.515.62-.086-.107-.3-.406-.322-.62zm16.003 7.993h5.563v4.808h-5.563v-4.808zm-11.428 0h7.733a1.856 1.856 0 00-1.847-1.838h-5.95c-1.01 0-1.848.833-1.848 1.838v4.808c0 1.005.838 1.838 1.848 1.838h5.95c1.01 0 1.847-.833 1.847-1.838v-3.163h-6.272c0 .791.644 1.41 1.417 1.41h3.094v1.753H37.14v-4.808zm-24.166 0h7.39a1.856 1.856 0 00-1.848-1.838h-5.713c-1.01 0-1.848.833-1.848 1.838v1.496c0 1.004.838 1.838 1.848 1.838h5.735v1.496h-7.583c0 1.004.838 1.838 1.848 1.838h5.907c1.01 0 1.847-.834 1.847-1.838v-1.496a1.857 1.857 0 00-1.847-1.838h-5.736V13.1zm-10.633 0h6.982a1.856 1.856 0 00-1.848-1.838H1.847C.837 11.263 0 12.096 0 13.1v4.808c0 1.005.838 1.838 1.847 1.838h5.628c1.01 0 1.848-.833 1.848-1.838H2.34V13.1zm32.93-8.997c-.043.02-.086.042-.129.042-.258.364-.107.32-.58.641 0 .62.022.684.172 1.24v.043c0 .021-.021.021-.021.021-.108.021-.28.064-.366.086 0 .02.044.363 0 .64-.085.407-1.074 1.304-1.288 1.368-.322.065-.688-.213-1.268-.47-.15-.064-.687-.406-.966-.513-.237-.085-.451.47-.172.62.129.064.344.171.408.342.193.513-.021 2.48-.43 2.864-.193 0-.365-.171-.494-.128-.257.15-.086.919 0 1.047 1.568 1.603 1.397 2.8 2.063 3.697.3 0 .107.32.343.705.065.193-.021.513-.043.641v.492a.394.394 0 00-.043.15v.427c-.043.214-.107.491-.15.684-.086.406.258.727.043 1.111 0 .235 0 .193-.15.385 0 .363-.087 1.154 0 1.432.064.192.751 1.004.945 1.09.43.192 1.052.15.837.812-1.245.384-2.019-.214-2.685-.214l-.021.107c-.43 0-.752-.107-.86-.128 0-.107.13-.983.194-1.133.043-.064.086-.15.15-.214.043-.15-.043-1.24-.064-1.538-.258-.193-.322-.791-.322-1.112-.086-.256-.086-.555-.086-.876 0-.15-.108-.385-.043-.577.043-.128.193-.192.214-.3v-.363c.065-.384.044-.555-.193-.79-.58 0-.666.043-.966-.449-.108-.15-.903-1.432-.989-1.453-.665-.3-.537-.171-.837-.705-.022 0-.194.064-.344.299-.236.363-.666 1.517-.795 1.923-.064.235 0 .47-.107.663-.065.128-.322.17-.365.277-.237.428-.065.385-.516.684-.086.107-.086.257-.15.385-.043.043-.065.085-.108.15-.085.17.086.448.043.555-.086.257-.172.535-.279.77-.215.491-.172 1.132-.387 1.431-.107.15-.365 0-.558.129-.021.107-.322.79-.387.983v1.111c.065.193.215.363.172.599-.043.256-.924.256-1.396.17-.322-.042-.408-.277-.408-.555 0-.32.644-2.394.623-2.522-.494-.556.129-1.111.322-1.624.086-.257.043-.599.129-.834.172-.32.343-.62.515-.94.322-.3.172-.32.344-.577.15-.235.322-.385.215-.748-.215-.705.236-1.71.28-2.458-.087-.085-.345-.064-.388-.278-.064-.47.172-1.282.323-1.346.064-.043.15 0 .193-.043 0-.342-.344-2.265-.086-2.372.172-.064.537-.085.601-.128 0-.086-.064-.257-.128-.257-.108-.021-.344-.064-.537-.106-.58-.129-.043-2.394-.043-2.415.15-.214.902.064.988-.278.236-.32-.194-1.518.644-3.014.28-.491.838-1.004 1.46-.79.216.064.087.384.452.042 0-.192-.086-.342-.129-.513C27.044.364 29.149-.64 30.631.406c.172.064.258.107.387.193.086.427.494 1.154.086 1.645a1.865 1.865 0 00-.516.214c0 .17.022.32.043.427.022.086.086.129-.064.193-.021 0 0 .064 0 .085.344.064.709-.064.945-.15h.28v-.341h.128v-.278h.13v.47h.343v.15h5.09v.256h.216v-.962h.193V3.1h.43v.449h1.353V3.42h.215v.064h.644v.363h-.645v.064h-.214v-.128H38.32v.128h-.601v-.085h-.258v.278h-2.19z" fill="#fff"/></g><path d="M63.748 5.86h70.827l-3.067 15.331h-67.76V5.86z" fill="#16BDF9" stroke="url(#paint0_linear_470_2865)" stroke-width=".7"/><path d="M72.586 10.288v.56h-1.744v5.35h-1.377v-5.35h-1.727v-.56h4.848zm5.378.751v4.408c0 .5-.225.75-.676.75h-3.325c-.45 0-.676-.25-.676-.75v-4.408c0-.5.225-.75.675-.75h3.326c.45 0 .676.25.676.75zm-1.377 4.303v-4.199c0-.127-.017-.206-.051-.237-.034-.038-.106-.057-.214-.057h-1.385c-.108 0-.18.019-.214.057-.034.031-.05.11-.05.237v4.2c0 .126.016.208.05.246.035.032.106.048.214.048h1.385c.108 0 .18-.016.214-.048.034-.038.051-.12.051-.247zm4.03-5.054v5.054c0 .127.017.21.051.247.034.032.105.048.214.048h1.47c.109 0 .18-.016.214-.048.034-.038.051-.12.051-.247v-5.054h1.377v5.159c0 .5-.225.75-.676.75h-3.41c-.451 0-.676-.25-.676-.75v-5.159h1.385zm6.096.561v2.67h1.762c.114 0 .185-.02.213-.058.034-.038.052-.117.052-.237v-2.08c0-.128-.017-.207-.052-.238-.028-.038-.1-.057-.213-.057h-1.762zm0 3.23v2.118h-1.385v-5.909h4.113c.45 0 .675.25.675.75v2.29c0 .5-.225.75-.675.75h-.42l1.206 2.12h-1.436l-1.146-2.12h-.932zm8.285-3.791h1.274v5.91h-1.223l-2.402-4.418v4.417h-1.274v-5.909h1.248l2.377 4.408v-4.408zm4.038 4.18h2.035l-1.017-3.249-1.018 3.25zm2.574 1.73l-.368-1.17h-2.385l-.368 1.17h-1.342l2.034-5.91h1.745l2.043 5.91h-1.359zm3.468-.001h-1.239v-5.909h1.479l1.65 3.696 1.701-3.696h1.479v5.91h-1.24V11.75l-1.462 3.164h-.94l-1.428-3.154v4.436zm7.903-.56h2.762v.56h-4.19v-5.909h4.078v.56h-2.65v2.043h2.3v.56h-2.3v2.186zm7.424-5.349h1.274v5.91h-1.223l-2.402-4.418v4.417h-1.274v-5.909h1.248l2.377 4.408v-4.408zm6.893 0v.56h-1.744v5.35h-1.376v-5.35h-1.727v-.56h4.847z" fill="#fff"/><path d="M1.887 32.082H.594v-.658h1.293c.225 0 .407-.035.546-.105a.67.67 0 00.304-.291.909.909 0 00.098-.43.941.941 0 00-.098-.425.739.739 0 00-.304-.324c-.139-.082-.32-.122-.546-.122H.857v4.148H0v-4.809h1.887c.384 0 .71.066.98.198.27.13.476.31.617.542.14.229.211.49.211.786 0 .31-.07.577-.211.8a1.35 1.35 0 01-.618.511c-.268.12-.595.179-.98.179zm6.538-.744v.265c0 .363-.05.689-.147.977a2.092 2.092 0 01-.42.737c-.18.203-.396.358-.648.466a2.153 2.153 0 01-.84.158c-.304 0-.583-.053-.836-.158a1.875 1.875 0 01-.651-.466 2.146 2.146 0 01-.43-.737 2.97 2.97 0 01-.15-.977v-.265c0-.363.05-.688.15-.974.1-.288.241-.534.423-.736a1.82 1.82 0 01.652-.466c.252-.108.53-.162.836-.162.307 0 .587.054.839.162.253.105.47.26.652.466.182.202.322.448.42.736.1.286.15.611.15.974zm-.857.265v-.271a2.77 2.77 0 00-.082-.71 1.436 1.436 0 00-.235-.519.977.977 0 00-.379-.317 1.152 1.152 0 00-.508-.109 1.13 1.13 0 00-.505.11 1.01 1.01 0 00-.38.316c-.101.139-.18.312-.235.519a2.77 2.77 0 00-.081.71v.27c0 .27.027.507.081.714.055.207.135.382.24.525.106.141.234.248.381.32.148.071.317.106.505.106.192 0 .361-.035.509-.105.148-.073.273-.18.375-.32.103-.144.18-.319.232-.526a2.79 2.79 0 00.082-.713zm2.958 1.192l.99-3.729h.519l-.058.961-1.058 3.848h-.54l.147-1.08zm-.74-3.729l.802 3.7.072 1.11h-.574l-1.15-4.81h.85zm3.371 3.69l.792-3.69h.853l-1.15 4.81h-.573l.078-1.12zm-.921-3.69l.98 3.739.143 1.07h-.54l-1.04-3.848-.055-.96h.512zm6.452 4.152v.657h-2.637v-.657h2.637zm-2.395-4.152v4.81h-.856v-4.81h.856zm2.05 2.008v.648h-2.292v-.648h2.293zm.328-2.008v.66h-2.62v-.66h2.62zm.717 0h1.757c.378 0 .7.055.966.165.266.11.47.273.61.489.144.214.215.478.215.793a1.293 1.293 0 01-.522 1.096c-.166.124-.364.22-.593.288l-.26.122h-1.58l-.006-.657h1.184c.204 0 .375-.036.512-.106a.72.72 0 00.307-.288.823.823 0 00.105-.416.887.887 0 00-.102-.436.65.65 0 00-.307-.287 1.198 1.198 0 00-.529-.102h-.9v4.148h-.857v-4.809zm2.835 4.81l-1.167-2.161.898-.003 1.184 2.12v.043h-.915zm4.818-.658v.657h-2.637v-.657h2.637zm-2.395-4.152v4.81h-.857v-4.81h.857zm2.05 2.008v.648h-2.292v-.648h2.293zm.328-2.008v.66h-2.62v-.66h2.62zm2.16 4.809h-1.061l.007-.657h1.054c.307 0 .564-.065.771-.195.21-.13.366-.316.471-.558.107-.242.16-.53.16-.866v-.26c0-.26-.03-.49-.092-.69a1.334 1.334 0 00-.266-.506 1.113 1.113 0 00-.43-.31 1.502 1.502 0 00-.583-.106h-1.113v-.66h1.113c.33 0 .631.053.904.16a2.013 2.013 0 011.166 1.18c.108.28.161.592.161.938v.254c0 .346-.053.659-.16.938-.107.28-.26.52-.46.72-.2.199-.44.352-.717.46a2.562 2.562 0 01-.925.158zm-.587-4.809v4.81h-.856v-4.81h.856zm7.313 2.636h-1.267l-.006-.605h1.105c.187 0 .345-.026.474-.079a.652.652 0 00.3-.234.663.663 0 00.103-.374.728.728 0 00-.096-.393.544.544 0 00-.293-.221 1.508 1.508 0 00-.498-.07h-.83v4.15h-.856v-4.81h1.686c.273 0 .516.025.73.076.216.05.4.13.55.238.152.105.267.24.344.403.08.163.12.357.12.581 0 .198-.05.38-.147.545a1.101 1.101 0 01-.434.4 1.743 1.743 0 01-.713.185l-.273.208zm-.038 2.173h-1.498l.385-.657h1.113c.193 0 .355-.031.484-.093a.66.66 0 00.29-.26.762.762 0 00.1-.394.903.903 0 00-.086-.406.578.578 0 00-.27-.267 1.043 1.043 0 00-.48-.096h-.963l.007-.605h1.252l.195.228c.273.01.497.067.672.175.177.108.31.248.396.42.086.172.13.356.13.555 0 .306-.07.562-.209.77a1.276 1.276 0 01-.59.472 2.438 2.438 0 01-.928.158zm2.873-4.809l1.153 2.296 1.153-2.296H42l-1.672 3.039v1.77h-.863v-1.77l-1.672-3.039h.952z" fill="#6C829D"/><g clip-path="url(#clip1_470_2865)"><path d="M108.273 29.032h2.468l-3.535 4.35 1.067-4.35zm-1.141 4.646l2.191-.019 4.585-5.64h-7.734l-1.951 7.944h2.356l.553-2.285zm-5.119-1.42l3.461-4.24h-7.752l-1.933 7.945h2.375l1.694-6.93h2.431l-2.615 3.207 1.4 3.723h2.375l-1.436-3.705zM133 28.019h-2.375l-3.223 3.63.921-3.63h-2.375l-1.952 7.944h2.357l.865-3.465 2.026 3.465h2.357l-2.247-3.89L133 28.02zm-50.488 5.64l1.197-4.627h3.204v.037l-4.4 4.59zM88.607 28l-6.997.018-2.044 7.945h3.13l6.574-6.857L88.607 28zm-12.961 6.046l-.957-6.027h-2.965l-1.97 7.944h2.357l1.362-5.474.737 5.474h3.296l1.97-7.944H77.1l-1.455 6.027zm-18.192-2.488h-2.265l.903-3.54h-2.376l-1.97 7.945h2.375l.737-3.041h2.265l-.755 3.041h2.356l1.99-7.944h-2.358l-.902 3.539zm-4.568-3.539h-6.628l-.258.848h2.302l-1.731 7.096h2.357l1.749-7.097h1.952l.257-.847zm68.292 1.179h2.909l.276-1.18h-5.247l-1.952 7.945h5.266l.258-1.014h-2.909l1.399-5.75zM65.59 34.6h-2.025l1.64-6.581h-2.376l-1.657 6.71.718 1.197.074.037h5.634v-.037l2.007-7.907H67.23l-1.64 6.58zm51.389-6.582h-2.393V28c-.682 2.636-1.934 7.963-1.934 7.963h2.357l1.97-7.945z" fill="#fff"/><path d="M84.189 40l10.2-4.295.313-1.272h-2.927l3.388-1.843.184-.719h-4.162l5.12-3.852h-3.076l-6.04 5.105.111.203 3.83-.018-4.51 2.433.091.166 3.83.018-6.463 3.871.11.203z" fill="#16BDF9"/></g><defs><clipPath id="clip0_470_2865"><path fill="#fff" d="M0 0h56v24H0z"/></clipPath><clipPath id="clip1_470_2865"><path fill="#fff" transform="translate(46 28)" d="M0 0h87v12H0z"/></clipPath><linearGradient id="paint0_linear_470_2865" x1="79.832" y1="32.836" x2="114.641" y2="32.736" gradientUnits="userSpaceOnUse"><stop stop-color="#60F5FF"/><stop offset="1" stop-color="#6DF6FF" stop-opacity="0"/></linearGradient></defs></svg>