<svg width="206" height="65" viewBox="0 0 206 65" fill="none" xmlns="http://www.w3.org/2000/svg">
<g clip-path="url(#clip0_475_3214)">
<path fill-rule="evenodd" clip-rule="evenodd" d="M82.6329 18.194H74.0452C72.5046 18.194 71.2263 19.5404 71.2263 21.163V28.9306C71.2263 30.5532 72.5046 31.8996 74.0452 31.8996H82.6329C84.1735 31.8996 85.4519 30.5532 85.4519 28.9306V21.163C85.4519 19.5404 84.1735 18.194 82.6329 18.194ZM51.1334 7.97522H50.0845V7.76809C50.3796 7.76809 50.5434 7.69904 50.4123 7.45738C50.2157 7.04311 51.0679 7.07763 51.199 7.14668C51.3957 7.31929 51.2645 7.76809 51.1334 7.97522ZM49.6912 8.25141H50.9696C50.8384 8.49307 50.4451 9.25257 50.1829 9.25257C50.0518 9.07996 49.724 8.59664 49.6912 8.25141ZM74.1107 21.163H82.6002V28.9306H74.1107V21.163ZM56.6729 21.163H68.4729C68.4729 19.5404 67.1946 18.194 65.654 18.194H56.5746C55.034 18.194 53.7557 19.5404 53.7557 21.163V28.9306C53.7557 30.5532 55.034 31.8996 56.5746 31.8996H65.654C67.1946 31.8996 68.4729 30.5532 68.4729 28.9306V23.8212H58.9018C58.9018 25.0986 59.8851 26.0998 61.0651 26.0998H65.7851V28.9306H56.6729V21.163ZM19.7978 21.163H31.0734C31.0734 19.5404 29.7951 18.194 28.2545 18.194H19.5356C17.995 18.194 16.7167 19.5404 16.7167 21.163V23.5796C16.7167 25.2022 17.995 26.5485 19.5356 26.5485H28.2873V28.9652H16.7167C16.7167 30.5877 17.995 31.9341 19.5356 31.9341H28.5495C30.0901 31.9341 31.3684 30.5877 31.3684 28.9652V26.5485C31.3684 24.926 30.0901 23.5796 28.5495 23.5796H19.7978V21.163ZM3.57279 21.163H14.2256C14.2256 19.5404 12.9472 18.194 11.4067 18.194H2.81889C1.27834 18.194 0 19.5404 0 21.163V28.9306C0 30.5532 1.27834 31.8996 2.81889 31.8996H11.4067C12.9472 31.8996 14.2256 30.5532 14.2256 28.9306H3.57279V21.163ZM53.8212 6.62883C53.7557 6.66335 53.6901 6.69788 53.6246 6.69788C53.2312 7.28477 53.4607 7.21572 52.7396 7.73356C52.7396 8.73473 52.7723 8.8383 53.0018 9.73589C53.0018 9.77042 53.0018 9.77042 53.0018 9.80494C53.0018 9.83946 52.969 9.83946 52.969 9.83946C52.8051 9.87398 52.5429 9.94303 52.4118 9.97755C52.4118 10.0121 52.4773 10.5644 52.4118 11.0132C52.2807 11.6692 50.7729 13.1191 50.4451 13.2227C49.9534 13.3263 49.3962 12.8775 48.5112 12.4632C48.2818 12.3596 47.4623 11.8073 47.0362 11.6347C46.6757 11.4966 46.3479 12.3942 46.774 12.6358C46.9707 12.7394 47.2984 12.912 47.3968 13.1882C47.6918 14.0167 47.364 17.1928 46.7412 17.8143C46.4462 17.8143 46.184 17.5381 45.9873 17.6071C45.594 17.8488 45.8562 19.0916 45.9873 19.2987C48.3801 21.888 48.1179 23.8212 49.134 25.2712C49.5929 25.2712 49.2979 25.789 49.6584 26.4105C49.7568 26.7212 49.6257 27.239 49.5929 27.4461C49.5929 27.7223 49.5929 27.964 49.5929 28.2402C49.5601 28.3092 49.5273 28.4128 49.5273 28.4818C49.5273 28.7235 49.5273 28.9306 49.5273 29.1723C49.4618 29.5175 49.3634 29.9663 49.2979 30.277C49.1668 30.933 49.6912 31.4508 49.3634 32.0722C49.3634 32.452 49.3634 32.3829 49.134 32.6936C49.134 33.2805 49.0029 34.5579 49.134 35.0067C49.2323 35.3174 50.2812 36.6292 50.5762 36.7673C51.2318 37.078 52.1823 37.009 51.8545 38.0792C49.9534 38.7006 48.7734 37.734 47.7573 37.734L47.7245 37.9066C47.069 37.9066 46.5773 37.734 46.4134 37.6994C46.4134 37.5268 46.6101 36.1114 46.7084 35.8697C46.774 35.7662 46.8395 35.6281 46.9379 35.5245C47.0034 35.2828 46.8723 33.5222 46.8395 33.0389C46.4462 32.7281 46.3479 31.7615 46.3479 31.2437C46.2168 30.8294 46.2168 30.3461 46.2168 29.8282C46.2168 29.5866 46.0529 29.2068 46.1512 28.8961C46.2168 28.689 46.4462 28.5854 46.479 28.4128C46.479 28.2056 46.479 28.033 46.479 27.8259C46.5773 27.2045 46.5445 26.9283 46.184 26.5485C45.299 26.5485 45.1679 26.6176 44.709 25.8236C44.5451 25.5819 43.3323 23.5105 43.2012 23.476C42.1851 22.9927 42.3818 23.1998 41.9229 22.3368C41.8901 22.3368 41.6279 22.4403 41.3984 22.8201C41.0379 23.407 40.3823 25.2712 40.1856 25.9271C40.0873 26.3069 40.1856 26.6866 40.0217 26.9973C39.9234 27.2045 39.5301 27.2735 39.4645 27.4461C39.104 28.1366 39.3662 28.0676 38.6779 28.5509C38.5467 28.7235 38.5467 28.9652 38.4484 29.1723C38.3829 29.2413 38.3501 29.3104 38.2845 29.4139C38.1534 29.6901 38.4156 30.1389 38.3501 30.3115C38.219 30.7258 38.0879 31.1746 37.924 31.5544C37.5962 32.3484 37.6617 33.3841 37.334 33.8674C37.1701 34.1091 36.7767 33.8674 36.4817 34.0745C36.449 34.2472 35.9901 35.3519 35.8917 35.6626C35.8917 36.2495 35.8917 36.8364 35.8917 37.4578C35.9901 37.7685 36.2195 38.0447 36.154 38.4244C36.0884 38.8387 34.7445 38.8387 34.0234 38.7006C33.5317 38.6316 33.4006 38.2518 33.4006 37.803C33.4006 37.2852 34.384 33.9365 34.3512 33.7293C33.5973 32.8317 34.5479 31.9341 34.8428 31.1056C34.974 30.6913 34.9084 30.1389 35.0395 29.7592C35.3017 29.2413 35.564 28.758 35.8262 28.2402C36.3179 27.7569 36.0884 27.7223 36.3506 27.3081C36.5801 26.9283 36.8423 26.6866 36.6784 26.0998C36.3506 24.9605 37.039 23.3379 37.1045 22.1296C36.9734 21.9915 36.5801 22.026 36.5145 21.6808C36.4162 20.9213 36.7767 19.6094 37.0062 19.5059C37.1045 19.4368 37.2356 19.5059 37.3012 19.4368C37.3012 18.8845 36.7767 15.7774 37.1701 15.6048C37.4323 15.5012 37.9895 15.4667 38.0879 15.3976C38.0879 15.2596 37.9895 14.9834 37.8912 14.9834C37.7273 14.9489 37.3667 14.8798 37.0717 14.8108C36.1867 14.6036 37.0062 10.9442 37.0062 10.9097C37.2356 10.5644 38.3829 11.0132 38.514 10.4609C38.8745 9.94303 38.219 8.00975 39.4973 5.59314C39.9234 4.79912 40.7756 3.97057 41.7262 4.3158C42.054 4.41936 41.8573 4.93721 42.4145 4.38484C42.4145 4.07414 42.2834 3.83248 42.2179 3.55629C41.2673 0.587322 44.4795 -1.03525 46.7412 0.656368C47.0034 0.759936 47.1345 0.828982 47.3312 0.967074C47.4623 1.65753 48.0851 2.83131 47.4623 3.62534C47.2001 3.69438 46.8723 3.83248 46.6757 3.97057C46.6757 4.24675 46.7084 4.48841 46.7412 4.66103C46.774 4.79912 46.8723 4.86816 46.6429 4.97173C46.6101 4.97173 46.6429 5.0753 46.6429 5.10982C47.1673 5.21339 47.7245 5.00625 48.0851 4.86816H48.5112V4.3158H48.6095H48.7079V3.867H48.9045V4.6265H49.429V4.86816H57.1973V5.28244H57.5251V3.72891H57.8201V5.00625H58.4757V5.73124H60.5407V5.5241H60.8685V5.62767H61.8518V6.21456H60.8685V6.31812H60.5407V6.11099H58.4757V6.31812C58.1807 6.31812 57.8857 6.31812 57.5579 6.31812V6.18003H57.1646V6.62883H53.8212Z" fill="white"/>
</g>
<path d="M97.0883 9.24941H205.577L200.817 34.446H97.0883V9.24941Z" fill="#16BDF9" stroke="url(#paint0_linear_475_3214)" stroke-width="0.7"/>
<path d="M110.76 16.6182V17.5236H108.099V26.1635H105.999V17.5236H103.363V16.6182H110.76Z" fill="white"/>
<path d="M118.967 17.8305V24.9511C118.967 25.7594 118.623 26.1635 117.936 26.1635H112.861C112.174 26.1635 111.83 25.7594 111.83 24.9511V17.8305C111.83 17.0223 112.174 16.6182 112.861 16.6182H117.936C118.623 16.6182 118.967 17.0223 118.967 17.8305ZM116.866 24.7823V17.9993C116.866 17.7947 116.84 17.6668 116.788 17.6157C116.736 17.5543 116.627 17.5236 116.462 17.5236H114.348C114.183 17.5236 114.074 17.5543 114.022 17.6157C113.97 17.6668 113.944 17.7947 113.944 17.9993V24.7823C113.944 24.9869 113.97 25.1199 114.022 25.1813C114.074 25.2325 114.183 25.2581 114.348 25.2581H116.462C116.627 25.2581 116.736 25.2325 116.788 25.1813C116.84 25.1199 116.866 24.9869 116.866 24.7823Z" fill="white"/>
<path d="M123.015 16.6182V24.7823C123.015 24.9869 123.041 25.1199 123.093 25.1813C123.145 25.2325 123.254 25.2581 123.419 25.2581H125.663C125.828 25.2581 125.937 25.2325 125.989 25.1813C126.042 25.1199 126.068 24.9869 126.068 24.7823V16.6182H128.168V24.9511C128.168 25.7594 127.825 26.1635 127.137 26.1635H121.932C121.245 26.1635 120.901 25.7594 120.901 24.9511V16.6182H123.015Z" fill="white"/>
<path d="M132.318 17.5236V21.8359H135.005C135.179 21.8359 135.288 21.8052 135.331 21.7438C135.384 21.6824 135.41 21.5545 135.41 21.3601V17.9993C135.41 17.7947 135.384 17.6668 135.331 17.6157C135.288 17.5543 135.179 17.5236 135.005 17.5236H132.318ZM132.318 22.7413V26.1635H130.204V16.6182H136.479C137.167 16.6182 137.51 17.0223 137.51 17.8305V21.5289C137.51 22.3372 137.167 22.7413 136.479 22.7413H135.84L137.68 26.1635H135.488L133.74 22.7413H132.318Z" fill="white"/>
<path d="M144.96 16.6182H146.904V26.1635H145.038L141.372 19.0275V26.1635H139.428V16.6182H141.333L144.96 23.7388V16.6182Z" fill="white"/>
<path d="M151.122 23.3705H154.227L152.674 18.1221L151.122 23.3705ZM155.048 26.1635L154.487 24.2759H150.848L150.287 26.1635H148.238L151.343 16.6182H154.005L157.123 26.1635H155.048Z" fill="white"/>
<path d="M160.341 26.1635H158.45V16.6182H160.707L163.224 22.5878L165.821 16.6182H168.078V26.1635H166.186V18.9815L163.955 24.0917H162.52L160.341 18.9968V26.1635Z" fill="white"/>
<path d="M172.4 25.2581H176.614V26.1635H170.222V16.6182H176.445V17.5236H172.4V20.823H175.91V21.7284H172.4V25.2581Z" fill="white"/>
<path d="M183.729 16.6182H185.672V26.1635H183.807L180.141 19.0275V26.1635H178.197V16.6182H180.102L183.729 23.7388V16.6182Z" fill="white"/>
<path d="M194.248 16.6182V17.5236H191.586V26.1635H189.486V17.5236H186.851V16.6182H194.248Z" fill="white"/>
<path d="M2.87929 51.8237H0.90596V50.762H2.87929C3.22293 50.762 3.50062 50.705 3.71235 50.5912C3.92409 50.4774 4.07856 50.3209 4.17575 50.1217C4.27641 49.9189 4.32674 49.6877 4.32674 49.4281C4.32674 49.1827 4.27641 48.9532 4.17575 48.7398C4.07856 48.5228 3.92409 48.3485 3.71235 48.2169C3.50062 48.0853 3.22293 48.0195 2.87929 48.0195H1.30687V54.7209H0V46.9524H2.87929C3.46591 46.9524 3.96401 47.0591 4.3736 47.2725C4.78666 47.4824 5.1008 47.7741 5.31601 48.1476C5.53122 48.5175 5.63882 48.9408 5.63882 49.4174C5.63882 49.9189 5.53122 50.3493 5.31601 50.7086C5.1008 51.0679 4.78666 51.3435 4.3736 51.5356C3.96401 51.7277 3.46591 51.8237 2.87929 51.8237Z" fill="#6C829D"/>
<path d="M12.8553 50.6232V51.0501C12.8553 51.637 12.7806 52.1634 12.6314 52.6294C12.4821 53.0953 12.2686 53.492 11.991 53.8192C11.7167 54.1464 11.387 54.3972 11.0017 54.5715C10.6164 54.7422 10.1895 54.8276 9.72085 54.8276C9.25572 54.8276 8.83051 54.7422 8.44522 54.5715C8.06339 54.3972 7.7319 54.1464 7.45074 53.8192C7.16958 53.492 6.9509 53.0953 6.7947 52.6294C6.64197 52.1634 6.56561 51.637 6.56561 51.0501V50.6232C6.56561 50.0363 6.64197 49.5117 6.7947 49.0493C6.94743 48.5833 7.16264 48.1867 7.44033 47.8594C7.72149 47.5286 8.05298 47.2779 8.4348 47.1071C8.8201 46.9328 9.24531 46.8457 9.71044 46.8457C10.179 46.8457 10.606 46.9328 10.9913 47.1071C11.3766 47.2779 11.7081 47.5286 11.9858 47.8594C12.2634 48.1867 12.4769 48.5833 12.6262 49.0493C12.7789 49.5117 12.8553 50.0363 12.8553 50.6232ZM11.5484 51.0501V50.6126C11.5484 50.1786 11.5067 49.7962 11.4234 49.4654C11.3436 49.1311 11.2238 48.8519 11.0642 48.6278C10.908 48.4001 10.7153 48.2294 10.4862 48.1156C10.2571 47.9982 9.99854 47.9395 9.71044 47.9395C9.42233 47.9395 9.16547 47.9982 8.93985 48.1156C8.71423 48.2294 8.52158 48.4001 8.36191 48.6278C8.20571 48.8519 8.08596 49.1311 8.00265 49.4654C7.91934 49.7962 7.87769 50.1786 7.87769 50.6126V51.0501C7.87769 51.484 7.91934 51.8682 8.00265 52.2025C8.08596 52.5369 8.20745 52.8197 8.36712 53.0509C8.53026 53.2785 8.72464 53.451 8.95026 53.5684C9.17589 53.6823 9.43275 53.7392 9.72085 53.7392C10.0124 53.7392 10.271 53.6823 10.4966 53.5684C10.7223 53.451 10.9132 53.2785 11.0694 53.0509C11.2256 52.8197 11.3436 52.5369 11.4234 52.2025C11.5067 51.8682 11.5484 51.484 11.5484 51.0501Z" fill="#6C829D"/>
<path d="M16.0626 52.9762L17.5725 46.9524H18.3639L18.2754 48.505L16.6613 54.7209H15.8387L16.0626 52.9762ZM14.9327 46.9524L16.1563 52.9282L16.2656 54.7209H15.3909L13.6363 46.9524H14.9327ZM20.0769 52.9122L21.2849 46.9524H22.5865L20.8319 54.7209H19.9572L20.0769 52.9122ZM18.6711 46.9524L20.1654 52.9922L20.3841 54.7209H19.5615L17.9734 48.505L17.8901 46.9524H18.6711Z" fill="#6C829D"/>
<path d="M28.5169 53.6591V54.7209H24.4922V53.6591H28.5169ZM24.8618 46.9524V54.7209H23.555V46.9524H24.8618ZM27.9911 50.1964V51.2422H24.4922V50.1964H27.9911ZM28.4909 46.9524V48.0195H24.4922V46.9524H28.4909Z" fill="#6C829D"/>
<path d="M29.5843 46.9524H32.2657C32.8419 46.9524 33.3331 47.0413 33.7392 47.2192C34.1453 47.397 34.456 47.6603 34.6712 48.0088C34.8899 48.3539 34.9992 48.7807 34.9992 49.2894C34.9992 49.6771 34.9298 50.0185 34.791 50.3138C34.6521 50.609 34.456 50.858 34.2026 51.0607C33.9492 51.2599 33.6472 51.4147 33.2966 51.5249L32.9009 51.7223H30.4903L30.4798 50.6606H32.2866C32.599 50.6606 32.8593 50.6037 33.0676 50.4898C33.2758 50.376 33.432 50.2213 33.5362 50.0257C33.6438 49.8265 33.6976 49.6024 33.6976 49.3534C33.6976 49.0831 33.6455 48.8483 33.5414 48.6491C33.4407 48.4464 33.2845 48.2916 33.0728 48.1849C32.861 48.0746 32.592 48.0195 32.2657 48.0195H30.8912V54.7209H29.5843V46.9524ZM33.911 54.7209L32.1304 51.2315L33.4997 51.2261L35.3064 54.6515V54.7209H33.911Z" fill="#6C829D"/>
<path d="M41.2629 53.6591V54.7209H37.2381V53.6591H41.2629ZM37.6078 46.9524V54.7209H36.3009V46.9524H37.6078ZM40.737 50.1964V51.2422H37.2381V50.1964H40.737ZM41.2368 46.9524V48.0195H37.2381V46.9524H41.2368Z" fill="#6C829D"/>
<path d="M44.5326 54.7209H42.9134L42.9238 53.6591H44.5326C45.0012 53.6591 45.3935 53.5542 45.7093 53.3443C46.0287 53.1345 46.2682 52.8339 46.4279 52.4426C46.591 52.0514 46.6726 51.5854 46.6726 51.0447V50.6232C46.6726 50.2035 46.6257 49.8318 46.532 49.5081C46.4417 49.1844 46.3064 48.9123 46.1259 48.6918C45.9489 48.4713 45.7302 48.3041 45.4698 48.1902C45.213 48.0764 44.9162 48.0195 44.5795 48.0195H42.8821V46.9524H44.5795C45.0828 46.9524 45.5427 47.0396 45.9593 47.2139C46.3758 47.3846 46.7351 47.6318 47.037 47.9555C47.3425 48.2792 47.5768 48.6669 47.7399 49.1186C47.9031 49.5704 47.9847 50.0755 47.9847 50.6339V51.0447C47.9847 51.6032 47.9031 52.1083 47.7399 52.56C47.5768 53.0118 47.3425 53.3995 47.037 53.7232C46.7316 54.0433 46.3671 54.2905 45.9436 54.4648C45.5236 54.6355 45.0533 54.7209 44.5326 54.7209ZM43.6371 46.9524V54.7209H42.3302V46.9524H43.6371Z" fill="#6C829D"/>
<path d="M54.795 51.2101H52.8633L52.8529 50.2337H54.5399C54.8245 50.2337 55.0657 50.1911 55.2636 50.1057C55.4649 50.0168 55.6176 49.8905 55.7218 49.7269C55.8259 49.5597 55.878 49.3587 55.878 49.124C55.878 48.8643 55.8294 48.6527 55.7322 48.489C55.635 48.3254 55.4857 48.2063 55.2844 48.1316C55.0866 48.0569 54.8332 48.0195 54.5242 48.0195H53.259V54.7209H51.9521V46.9524H54.5242C54.9408 46.9524 55.3122 46.9933 55.6385 47.0751C55.9682 47.1569 56.2476 47.285 56.4767 47.4593C56.7093 47.63 56.8846 47.847 57.0026 48.1102C57.1241 48.3734 57.1848 48.6864 57.1848 49.0493C57.1848 49.3694 57.1102 49.6628 56.961 49.9296C56.8117 50.1928 56.5913 50.408 56.2997 50.5752C56.0081 50.7424 55.6454 50.842 55.2115 50.874L54.795 51.2101ZM54.7377 54.7209H52.452L53.0403 53.6591H54.7377C55.0328 53.6591 55.2792 53.6093 55.4771 53.5097C55.6749 53.4066 55.8224 53.2661 55.9196 53.0882C56.0203 52.9068 56.0706 52.6952 56.0706 52.4533C56.0706 52.2008 56.0272 51.982 55.9404 51.797C55.8537 51.6085 55.7166 51.4645 55.5291 51.3649C55.3417 51.2617 55.097 51.2101 54.795 51.2101H53.3267L53.3371 50.2337H55.248L55.5447 50.6019C55.9613 50.6161 56.3032 50.7104 56.5705 50.8847C56.8412 51.059 57.0425 51.2848 57.1744 51.5623C57.3063 51.8397 57.3723 52.1385 57.3723 52.4586C57.3723 52.9531 57.2664 53.3675 57.0547 53.7018C56.8464 54.0362 56.5462 54.2905 56.1539 54.4648C55.7617 54.6355 55.2896 54.7209 54.7377 54.7209Z" fill="#6C829D"/>
<path d="M59.1217 46.9524L60.8816 50.6606L62.6414 46.9524H64.0889L61.5376 51.8611V54.7209H60.2203V51.8611L57.6691 46.9524H59.1217Z" fill="#6C829D"/>
<g clip-path="url(#clip1_475_3214)">
<path d="M165.212 46.8975H168.977L163.583 53.9248L165.212 46.8975ZM163.47 54.4012L166.814 54.3714L173.81 45.2598H162.009L159.031 58.0935H162.628L163.47 54.4012Z" fill="white"/>
<path d="M155.661 52.1084L160.943 45.2598H149.114L146.164 58.0935H149.788L152.373 46.8975H156.082L152.092 52.0786L154.228 58.0935H157.852L155.661 52.1084Z" fill="white"/>
<path d="M202.946 45.2598H199.322L194.405 51.1258L195.81 45.2598H192.185L189.207 58.0935H192.803L194.124 52.4955L197.215 58.0935H200.811L197.383 51.8106L202.946 45.2598Z" fill="white"/>
<path d="M125.906 54.3719L127.732 46.898H132.621V46.9575L125.906 54.3719ZM135.205 45.2305L124.529 45.2602L121.41 58.094H126.187L136.217 47.0171L135.205 45.2305Z" fill="white"/>
<path d="M115.428 54.9967L113.967 45.2598H109.444L106.438 58.0935H110.034L112.113 49.2498L113.237 58.0935H118.266L121.272 45.2598H117.648L115.428 54.9967Z" fill="white"/>
<path d="M87.6669 50.9769H84.2111L85.5878 45.2598H81.9633L78.957 58.0935H82.5815L83.7053 53.1804H87.1612L86.0092 58.0935H89.6056L92.64 45.2598H89.0436L87.6669 50.9769Z" fill="white"/>
<path d="M80.6995 45.2598H70.5848L70.1914 46.6295H73.7035L71.0624 58.0935H74.6587L77.3279 46.6295H80.3061L80.6995 45.2598Z" fill="white"/>
<path d="M184.91 47.1655H189.349L189.771 45.2598H181.763L178.785 58.0935H186.821L187.214 56.4558H182.775L184.91 47.1655Z" fill="white"/>
<path d="M100.087 55.89H96.9963L99.4969 45.2598H95.8724L93.3438 56.0985L94.4395 58.034L94.5519 58.0935H103.149V58.034L106.212 45.2598H102.587L100.087 55.89Z" fill="white"/>
<path d="M178.505 45.2602H174.852V45.2305C173.813 49.4885 171.902 58.094 171.902 58.094H175.499L178.505 45.2602Z" fill="white"/>
<path d="M128.462 64.6146L144.027 57.6766L144.505 55.622H140.037L145.207 52.6444L145.488 51.4831H139.138L146.949 45.2598H142.257L133.041 53.5079L133.21 53.8354L139.054 53.8057L132.17 57.7362L132.311 58.0042L138.155 58.034L128.293 64.2871L128.462 64.6146Z" fill="#16BDF9"/>
</g>
<defs>
<linearGradient id="paint0_linear_475_3214" x1="121.815" y1="53.0414" x2="174.931" y2="52.8973" gradientUnits="userSpaceOnUse">
<stop stop-color="#60F5FF"/>
<stop offset="1" stop-color="#6DF6FF" stop-opacity="0"/>
</linearGradient>
<clipPath id="clip0_475_3214">
<rect width="85.4519" height="38.7692" fill="white"/>
</clipPath>
<clipPath id="clip1_475_3214">
<rect width="132.756" height="19.3846" fill="white" transform="translate(70.1914 45.2305)"/>
</clipPath>
</defs>
</svg>
