<svg width="383" height="36" viewBox="0 0 383 36" fill="none" xmlns="http://www.w3.org/2000/svg">
<g clip-path="url(#clip0_475_1216)">
<path fill-rule="evenodd" clip-rule="evenodd" d="M81.229 16.8944H72.7871C71.2727 16.8944 70.0161 18.1446 70.0161 19.6513V26.8641C70.0161 28.3708 71.2727 29.621 72.7871 29.621H81.229C82.7434 29.621 84 28.3708 84 26.8641V19.6513C84 18.1446 82.7434 16.8944 81.229 16.8944ZM50.2647 7.4055H49.2336V7.21315C49.5236 7.21315 49.6847 7.14904 49.5558 6.92464C49.3625 6.53996 50.2002 6.57201 50.3291 6.63613C50.5224 6.79641 50.3936 7.21315 50.2647 7.4055ZM48.847 7.66195H50.1036C49.9747 7.88635 49.588 8.5916 49.3303 8.5916C49.2014 8.43132 48.8792 7.98252 48.847 7.66195ZM72.8516 19.6513H81.1968V26.8641H72.8516V19.6513ZM55.71 19.6513H67.3095C67.3095 18.1446 66.0529 16.8944 64.5385 16.8944H55.6133C54.099 16.8944 52.8423 18.1446 52.8423 19.6513V26.8641C52.8423 28.3708 54.099 29.621 55.6133 29.621H64.5385C66.0529 29.621 67.3095 28.3708 67.3095 26.8641V22.1197H57.901C57.901 23.3058 58.8677 24.2354 60.0276 24.2354H64.6674V26.8641H55.71V19.6513ZM19.4614 19.6513H30.5455C30.5455 18.1446 29.2888 16.8944 27.7745 16.8944H19.2037C17.6893 16.8944 16.4327 18.1446 16.4327 19.6513V21.8953C16.4327 23.4019 17.6893 24.6522 19.2037 24.6522H27.8067V26.8961H16.4327C16.4327 28.4028 17.6893 29.653 19.2037 29.653H28.0644C29.5788 29.653 30.8354 28.4028 30.8354 26.8961V24.6522C30.8354 23.1455 29.5788 21.8953 28.0644 21.8953H19.4614V19.6513ZM3.51208 19.6513H13.9839C13.9839 18.1446 12.7273 16.8944 11.2129 16.8944H2.771C1.25662 16.8944 0 18.1446 0 19.6513V26.8641C0 28.3708 1.25662 29.621 2.771 29.621H11.2129C12.7273 29.621 13.9839 28.3708 13.9839 26.8641H3.51208V19.6513ZM52.9068 6.15527C52.8423 6.18733 52.7779 6.21939 52.7135 6.21939C52.3268 6.76436 52.5524 6.70024 51.8435 7.1811C51.8435 8.11075 51.8757 8.20692 52.1013 9.0404C52.1013 9.07246 52.1013 9.07246 52.1013 9.10452C52.1013 9.13657 52.069 9.13657 52.069 9.13657C51.9079 9.16863 51.6502 9.23274 51.5213 9.2648C51.5213 9.29686 51.5857 9.80977 51.5213 10.2265C51.3924 10.8356 49.9102 12.182 49.588 12.2782C49.1047 12.3743 48.557 11.9576 47.687 11.5729C47.4614 11.4767 46.6559 10.9638 46.2371 10.8035C45.8826 10.6753 45.5604 11.5088 45.9793 11.7332C46.1726 11.8294 46.4948 11.9896 46.5915 12.2461C46.8815 13.0155 46.5593 15.9647 45.9471 16.5417C45.6571 16.5417 45.3993 16.2853 45.206 16.3494C44.8193 16.5738 45.0771 17.7278 45.206 17.9202C47.5581 20.3245 47.3003 22.1197 48.2992 23.466C48.7503 23.466 48.4603 23.9469 48.8147 24.5239C48.9114 24.8124 48.7825 25.2933 48.7503 25.4856C48.7503 25.7421 48.7503 25.9665 48.7503 26.2229C48.7181 26.2871 48.6858 26.3832 48.6858 26.4473C48.6858 26.6717 48.6858 26.8641 48.6858 27.0885C48.6214 27.4091 48.5247 27.8258 48.4603 28.1143C48.3314 28.7234 48.847 29.2042 48.5247 29.7813C48.5247 30.1339 48.5247 30.0698 48.2992 30.3583C48.2992 30.9033 48.1703 32.0894 48.2992 32.5061C48.3959 32.7946 49.4269 34.0128 49.7169 34.141C50.3613 34.4295 51.2957 34.3654 50.9735 35.3592C49.1047 35.9362 47.9448 35.0386 46.9459 35.0386L46.9137 35.1989C46.2693 35.1989 45.786 35.0386 45.6249 35.0066C45.6249 34.8463 45.8182 33.5319 45.9148 33.3075C45.9793 33.2114 46.0437 33.0831 46.1404 32.987C46.2048 32.7626 46.0759 31.1277 46.0437 30.6789C45.6571 30.3904 45.5604 29.4928 45.5604 29.0119C45.4315 28.6272 45.4315 28.1784 45.4315 27.6976C45.4315 27.4732 45.2704 27.1205 45.3671 26.832C45.4315 26.6397 45.6571 26.5435 45.6893 26.3832C45.6893 26.1909 45.6893 26.0306 45.6893 25.8383C45.786 25.2612 45.7537 25.0048 45.3993 24.6522C44.5293 24.6522 44.4005 24.7163 43.9494 23.979C43.7883 23.7546 42.5961 21.8311 42.4672 21.7991C41.4684 21.3503 41.6617 21.5426 41.2106 20.7412C41.1784 20.7412 40.9206 20.8374 40.695 21.19C40.3406 21.735 39.6962 23.466 39.5029 24.0751C39.4062 24.4278 39.5029 24.7804 39.3418 25.0689C39.2451 25.2612 38.8585 25.3253 38.794 25.4856C38.4396 26.1268 38.6973 26.0627 38.0207 26.5115C37.8918 26.6717 37.8918 26.8961 37.7952 27.0885C37.7307 27.1526 37.6985 27.2167 37.6341 27.3129C37.5052 27.5693 37.7629 27.9861 37.6985 28.1464C37.5696 28.531 37.4407 28.9478 37.2796 29.3004C36.9574 30.0377 37.0219 30.9994 36.6997 31.4482C36.5385 31.6726 36.1519 31.4482 35.8619 31.6406C35.8297 31.8009 35.3786 32.8267 35.2819 33.1152C35.2819 33.6602 35.2819 34.2051 35.2819 34.7822C35.3786 35.0707 35.6041 35.3271 35.5397 35.6798C35.4753 36.0644 34.1542 36.0644 33.4453 35.9362C32.962 35.8721 32.8331 35.5195 32.8331 35.1027C32.8331 34.6219 33.7998 31.5123 33.7675 31.32C33.0265 30.4865 33.9609 29.653 34.2509 28.8837C34.3797 28.499 34.3153 27.9861 34.4442 27.6335C34.702 27.1526 34.9597 26.7038 35.2175 26.2229C35.7008 25.7741 35.4753 25.7421 35.733 25.3574C35.9586 25.0048 36.2163 24.7804 36.0552 24.2354C35.733 23.1775 36.4097 21.6709 36.4741 20.5489C36.3452 20.4206 35.9586 20.4527 35.8941 20.1321C35.7975 19.4269 36.1519 18.2087 36.3774 18.1125C36.4741 18.0484 36.603 18.1125 36.6674 18.0484C36.6674 17.5355 36.1519 14.6504 36.5385 14.4901C36.7963 14.3939 37.3441 14.3619 37.4407 14.2977C37.4407 14.1695 37.3441 13.9131 37.2474 13.9131C37.0863 13.881 36.7319 13.8169 36.4419 13.7528C35.5719 13.5604 36.3774 10.1624 36.3774 10.1303C36.603 9.80977 37.7307 10.2265 37.8596 9.7136C38.214 9.23274 37.5696 7.43755 38.8262 5.19356C39.2451 4.45625 40.0829 3.68689 41.0173 4.00746C41.3395 4.10363 41.1461 4.58448 41.6939 4.07157C41.6939 3.78306 41.565 3.55866 41.5006 3.3022C40.5662 0.545301 43.7238 -0.961378 45.9471 0.609415C46.2048 0.705585 46.3337 0.769699 46.527 0.897927C46.6559 1.53907 47.2681 2.629 46.6559 3.36632C46.3982 3.43043 46.0759 3.55866 45.8826 3.68689C45.8826 3.94334 45.9148 4.16774 45.9471 4.32803C45.9793 4.45625 46.0759 4.52037 45.8504 4.61654C45.8182 4.61654 45.8504 4.71271 45.8504 4.74477C46.3659 4.84094 46.9137 4.6486 47.2681 4.52037H47.687V4.00746H47.7837H47.8803V3.59071H48.0736V4.29597H48.5892V4.52037H56.2255V4.90505H56.5478V3.46249H56.8377V4.64859H57.4822V5.32179H59.5121V5.12945H59.8343V5.22562H60.8009V5.77059H59.8343V5.86676H59.5121V5.67442H57.4822V5.86676C57.1922 5.86676 56.9022 5.86676 56.58 5.86676V5.73853H56.1933V6.15527H52.9068Z" fill="white"/>
</g>
<path d="M97.5 9.5H205.377L200.718 30.5H97.5V9.5Z" fill="#16BDF9" stroke="url(#paint0_linear_475_1216)"/>
<path d="M111.325 16V16.7588H108.69V24H106.61V16.7588H104V16H111.325Z" fill="white"/>
<path d="M119.451 17.0161V22.9839C119.451 23.6613 119.111 24 118.431 24H113.405C112.725 24 112.385 23.6613 112.385 22.9839V17.0161C112.385 16.3387 112.725 16 113.405 16H118.431C119.111 16 119.451 16.3387 119.451 17.0161ZM117.371 22.8424V17.1576C117.371 16.9861 117.346 16.8789 117.294 16.836C117.242 16.7846 117.135 16.7588 116.971 16.7588H114.878C114.714 16.7588 114.607 16.7846 114.555 16.836C114.503 16.8789 114.478 16.9861 114.478 17.1576V22.8424C114.478 23.0139 114.503 23.1254 114.555 23.1768C114.607 23.2197 114.714 23.2412 114.878 23.2412H116.971C117.135 23.2412 117.242 23.2197 117.294 23.1768C117.346 23.1254 117.371 23.0139 117.371 22.8424Z" fill="white"/>
<path d="M123.46 16V22.8424C123.46 23.0139 123.486 23.1254 123.538 23.1768C123.59 23.2197 123.697 23.2412 123.861 23.2412H126.083C126.247 23.2412 126.354 23.2197 126.406 23.1768C126.458 23.1254 126.483 23.0139 126.483 22.8424V16H128.563V22.9839C128.563 23.6613 128.223 24 127.543 24H122.388C121.708 24 121.367 23.6613 121.367 22.9839V16H123.46Z" fill="white"/>
<path d="M132.673 16.7588V20.373H135.334C135.506 20.373 135.614 20.3473 135.657 20.2958C135.709 20.2444 135.735 20.1372 135.735 19.9743V17.1576C135.735 16.9861 135.709 16.8789 135.657 16.836C135.614 16.7846 135.506 16.7588 135.334 16.7588H132.673ZM132.673 21.1318V24H130.58V16H136.794C137.474 16 137.815 16.3387 137.815 17.0161V20.1158C137.815 20.7931 137.474 21.1318 136.794 21.1318H136.161L137.982 24H135.812L134.081 21.1318H132.673Z" fill="white"/>
<path d="M145.192 16H147.117V24H145.269L141.639 18.0193V24H139.714V16H141.6L145.192 21.9678V16Z" fill="white"/>
<path d="M151.293 21.6592H154.368L152.831 17.2604L151.293 21.6592ZM155.182 24L154.627 22.418H151.022L150.467 24H148.438L151.513 16H154.149L157.236 24H155.182Z" fill="white"/>
<path d="M160.423 24H158.55V16H160.785L163.279 21.0032L165.85 16H168.085V24H166.211V17.9807L164.002 22.2637H162.581L160.423 17.9936V24Z" fill="white"/>
<path d="M172.365 23.2412H176.538V24H170.208V16H176.37V16.7588H172.365V19.5241H175.84V20.283H172.365V23.2412Z" fill="white"/>
<path d="M183.583 16H185.508V24H183.661L180.03 18.0193V24H178.106V16H179.992L183.583 21.9678V16Z" fill="white"/>
<path d="M194 16V16.7588H191.364V24H189.285V16.7588H186.675V16H194Z" fill="white"/>
<line x1="238.5" y1="4" x2="238.5" y2="32" stroke="#6C829D"/>
<g clip-path="url(#clip1_475_1216)">
<path d="M350.597 17.8127H353.83L349.198 23.3447L350.597 17.8127ZM349.101 23.7197L351.972 23.6963L357.98 16.5234H347.847L345.289 26.6263H348.377L349.101 23.7197Z" fill="white"/>
<path d="M342.393 21.9148L346.929 16.5234H336.772L334.238 26.6263H337.351L339.57 17.8127H342.755L339.329 21.8913L341.163 26.6263H344.275L342.393 21.9148Z" fill="white"/>
<path d="M383.001 16.5234H379.889L375.667 21.1412L376.873 16.5234H373.761L371.203 26.6263H374.291L375.425 22.2195L378.079 26.6263H381.168L378.224 21.6804L383.001 16.5234Z" fill="white"/>
<path d="M316.845 23.6963L318.413 17.8127H322.611V17.8596L316.845 23.6963ZM324.831 16.5L315.662 16.5234L312.984 26.6263H317.086L325.699 17.9064L324.831 16.5Z" fill="white"/>
<path d="M307.846 24.1885L306.591 16.5234H302.707L300.125 26.6263H303.213L304.999 19.6645L305.964 26.6263H310.282L312.864 16.5234H309.752L307.846 24.1885Z" fill="white"/>
<path d="M284.007 21.024H281.039L282.221 16.5234H279.109L276.527 26.6263H279.64L280.605 22.7586H283.572L282.583 26.6263H285.671L288.277 16.5234H285.189L284.007 21.024Z" fill="white"/>
<path d="M278.023 16.5234H269.338L269 17.6017H272.016L269.748 26.6263H272.836L275.128 17.6017H277.686L278.023 16.5234Z" fill="white"/>
<path d="M367.51 18.0236H371.322L371.684 16.5234H364.807L362.25 26.6263H369.15L369.488 25.3371H365.676L367.51 18.0236Z" fill="white"/>
<path d="M294.669 24.8917H292.015L294.163 16.5234H291.05L288.879 25.0558L289.82 26.5795L289.916 26.6263H297.299V26.5795L299.929 16.5234H296.817L294.669 24.8917Z" fill="white"/>
<path d="M362.01 16.5234H358.873V16.5C357.98 19.852 356.34 26.6263 356.34 26.6263H359.428L362.01 16.5234Z" fill="white"/>
<path d="M319.039 31.7598L332.406 26.2982L332.816 24.6808H328.98L333.419 22.3367L333.66 21.4225H328.208L334.915 16.5234H330.886L322.972 23.0165L323.117 23.2743L328.135 23.2509L322.224 26.3451L322.345 26.556L327.363 26.5795L318.895 31.502L319.039 31.7598Z" fill="#16BDF9"/>
</g>
<path d="M271.396 11.644H270.101V10.9639H271.396C271.622 10.9639 271.804 10.9274 271.943 10.8545C272.082 10.7816 272.183 10.6813 272.247 10.5537C272.313 10.4238 272.346 10.2757 272.346 10.1094C272.346 9.95215 272.313 9.80518 272.247 9.66846C272.183 9.52946 272.082 9.41781 271.943 9.3335C271.804 9.24919 271.622 9.20703 271.396 9.20703H270.364V13.5H269.506V8.52344H271.396C271.781 8.52344 272.108 8.5918 272.377 8.72852C272.648 8.86296 272.854 9.0498 272.996 9.28906C273.137 9.52604 273.208 9.7972 273.208 10.1025C273.208 10.4238 273.137 10.6995 272.996 10.9297C272.854 11.1598 272.648 11.3364 272.377 11.4595C272.108 11.5825 271.781 11.644 271.396 11.644ZM277.945 10.875V11.1484C277.945 11.5244 277.896 11.8617 277.798 12.1602C277.7 12.4587 277.56 12.7127 277.377 12.9224C277.197 13.132 276.981 13.2926 276.728 13.4043C276.475 13.5137 276.195 13.5684 275.887 13.5684C275.582 13.5684 275.303 13.5137 275.05 13.4043C274.799 13.2926 274.582 13.132 274.397 12.9224C274.212 12.7127 274.069 12.4587 273.966 12.1602C273.866 11.8617 273.816 11.5244 273.816 11.1484V10.875C273.816 10.499 273.866 10.1629 273.966 9.8667C274.067 9.5682 274.208 9.31413 274.39 9.10449C274.575 8.89258 274.792 8.73193 275.043 8.62256C275.296 8.5109 275.575 8.45508 275.88 8.45508C276.188 8.45508 276.468 8.5109 276.721 8.62256C276.974 8.73193 277.192 8.89258 277.374 9.10449C277.556 9.31413 277.696 9.5682 277.794 9.8667C277.895 10.1629 277.945 10.499 277.945 10.875ZM277.087 11.1484V10.8682C277.087 10.5902 277.06 10.3452 277.005 10.1333C276.952 9.91911 276.874 9.74023 276.769 9.59668C276.667 9.45085 276.54 9.34147 276.39 9.26855C276.239 9.19336 276.069 9.15576 275.88 9.15576C275.691 9.15576 275.523 9.19336 275.375 9.26855C275.226 9.34147 275.1 9.45085 274.995 9.59668C274.893 9.74023 274.814 9.91911 274.759 10.1333C274.705 10.3452 274.677 10.5902 274.677 10.8682V11.1484C274.677 11.4264 274.705 11.6725 274.759 11.8867C274.814 12.1009 274.894 12.2821 274.999 12.4302C275.106 12.576 275.233 12.6865 275.381 12.7617C275.529 12.8346 275.698 12.8711 275.887 12.8711C276.079 12.8711 276.248 12.8346 276.396 12.7617C276.545 12.6865 276.67 12.576 276.772 12.4302C276.875 12.2821 276.952 12.1009 277.005 11.8867C277.06 11.6725 277.087 11.4264 277.087 11.1484ZM280.05 12.3823L281.042 8.52344H281.561L281.503 9.51807L280.443 13.5H279.903L280.05 12.3823ZM279.309 8.52344L280.112 12.3516L280.184 13.5H279.609L278.458 8.52344H279.309ZM282.686 12.3413L283.479 8.52344H284.333L283.181 13.5H282.607L282.686 12.3413ZM281.763 8.52344L282.744 12.3926L282.887 13.5H282.347L281.305 9.51807L281.25 8.52344H281.763ZM288.226 12.8198V13.5H285.584V12.8198H288.226ZM285.827 8.52344V13.5H284.969V8.52344H285.827ZM287.881 10.6016V11.2715H285.584V10.6016H287.881ZM288.209 8.52344V9.20703H285.584V8.52344H288.209ZM288.927 8.52344H290.687C291.065 8.52344 291.388 8.5804 291.654 8.69434C291.921 8.80827 292.125 8.97689 292.266 9.2002C292.41 9.42122 292.481 9.69466 292.481 10.0205C292.481 10.2689 292.436 10.4876 292.345 10.6768C292.254 10.8659 292.125 11.0254 291.958 11.1553C291.792 11.2829 291.594 11.382 291.364 11.4526L291.104 11.5791H289.521L289.515 10.8989H290.701C290.906 10.8989 291.077 10.8625 291.213 10.7896C291.35 10.7166 291.453 10.6175 291.521 10.4922C291.592 10.3646 291.627 10.221 291.627 10.0615C291.627 9.88835 291.593 9.73796 291.524 9.61035C291.458 9.48047 291.356 9.38135 291.217 9.31299C291.078 9.24235 290.901 9.20703 290.687 9.20703H289.785V13.5H288.927V8.52344ZM291.767 13.5L290.598 11.2646L291.497 11.2612L292.683 13.4556V13.5H291.767ZM296.593 12.8198V13.5H293.951V12.8198H296.593ZM294.194 8.52344V13.5H293.336V8.52344H294.194ZM296.248 10.6016V11.2715H293.951V10.6016H296.248ZM296.576 8.52344V9.20703H293.951V8.52344H296.576ZM298.74 13.5H297.677L297.684 12.8198H298.74C299.047 12.8198 299.305 12.7526 299.512 12.6182C299.722 12.4837 299.879 12.2912 299.984 12.0405C300.091 11.7899 300.145 11.4914 300.145 11.145V10.875C300.145 10.6061 300.114 10.368 300.052 10.1606C299.993 9.95329 299.904 9.77897 299.786 9.6377C299.669 9.49642 299.526 9.38932 299.355 9.31641C299.186 9.24349 298.992 9.20703 298.771 9.20703H297.656V8.52344H298.771C299.101 8.52344 299.403 8.57926 299.676 8.69092C299.95 8.80029 300.186 8.95866 300.384 9.16602C300.584 9.37337 300.738 9.62174 300.845 9.91113C300.952 10.2005 301.006 10.5241 301.006 10.8818V11.145C301.006 11.5028 300.952 11.8263 300.845 12.1157C300.738 12.4051 300.584 12.6535 300.384 12.8608C300.183 13.0659 299.944 13.2243 299.666 13.3359C299.39 13.4453 299.082 13.5 298.74 13.5ZM298.152 8.52344V13.5H297.294V8.52344H298.152ZM305.477 11.251H304.208L304.202 10.6255H305.309C305.496 10.6255 305.654 10.5981 305.784 10.5435C305.916 10.4865 306.017 10.4056 306.085 10.3008C306.153 10.1937 306.188 10.0649 306.188 9.91455C306.188 9.74821 306.156 9.61263 306.092 9.50781C306.028 9.40299 305.93 9.32666 305.798 9.27881C305.668 9.23096 305.502 9.20703 305.299 9.20703H304.468V13.5H303.61V8.52344H305.299C305.572 8.52344 305.816 8.54964 306.03 8.60205C306.247 8.65446 306.43 8.73649 306.581 8.84814C306.733 8.95752 306.848 9.09652 306.926 9.26514C307.006 9.43376 307.045 9.63428 307.045 9.8667C307.045 10.0718 306.996 10.2598 306.898 10.4307C306.8 10.5993 306.656 10.7371 306.464 10.8442C306.273 10.9513 306.035 11.0151 305.75 11.0356L305.477 11.251ZM305.439 13.5H303.938L304.325 12.8198H305.439C305.633 12.8198 305.794 12.7879 305.924 12.7241C306.054 12.658 306.151 12.568 306.215 12.4541C306.281 12.3379 306.314 12.2023 306.314 12.0474C306.314 11.8856 306.285 11.7454 306.229 11.627C306.172 11.5062 306.082 11.4139 305.958 11.3501C305.835 11.284 305.675 11.251 305.477 11.251H304.513L304.52 10.6255H305.774L305.969 10.8613C306.242 10.8704 306.467 10.9308 306.642 11.0425C306.82 11.1541 306.952 11.2988 307.039 11.4766C307.125 11.6543 307.168 11.8457 307.168 12.0508C307.168 12.3675 307.099 12.633 306.96 12.8472C306.823 13.0614 306.626 13.2243 306.369 13.3359C306.111 13.4453 305.801 13.5 305.439 13.5ZM308.317 8.52344L309.472 10.8989L310.627 8.52344H311.578L309.903 11.668V13.5H309.038V11.668L307.363 8.52344H308.317Z" fill="#6C829D"/>
<defs>
<linearGradient id="paint0_linear_475_1216" x1="122.016" y1="46.5" x2="175.006" y2="46.3312" gradientUnits="userSpaceOnUse">
<stop stop-color="#60F5FF"/>
<stop offset="1" stop-color="#6DF6FF" stop-opacity="0"/>
</linearGradient>
<clipPath id="clip0_475_1216">
<rect width="84" height="36" fill="white"/>
</clipPath>
<clipPath id="clip1_475_1216">
<rect width="114" height="15.2598" fill="white" transform="translate(269 16.5)"/>
</clipPath>
</defs>
</svg>
