<svg width="477" height="45" viewBox="0 0 477 45" fill="none" xmlns="http://www.w3.org/2000/svg">
<g clip-path="url(#clip0_470_2443)">
<path fill-rule="evenodd" clip-rule="evenodd" d="M99.6022 20.8604H89.2509C87.3939 20.8604 85.8531 22.4042 85.8531 24.2646V33.171C85.8531 35.0314 87.3939 36.5752 89.2509 36.5752H99.6022C101.459 36.5752 103 35.0314 103 33.171V24.2646C103 22.4042 101.459 20.8604 99.6022 20.8604ZM61.6341 9.14362H60.3698V8.90612C60.7254 8.90612 60.9229 8.82695 60.7649 8.54987C60.5278 8.07486 61.555 8.11444 61.7131 8.19361C61.9501 8.39153 61.7921 8.90612 61.6341 9.14362ZM59.8957 9.46029H61.4365C61.2785 9.73738 60.8044 10.6082 60.4883 10.6082C60.3303 10.4103 59.9352 9.85613 59.8957 9.46029ZM89.3299 24.2646H99.5627V33.171H89.3299V24.2646ZM68.3111 24.2646H82.5343C82.5343 22.4042 80.9935 20.8604 79.1366 20.8604H68.1926C66.3356 20.8604 64.7948 22.4042 64.7948 24.2646V33.171C64.7948 35.0314 66.3356 36.5752 68.1926 36.5752H79.1366C80.9935 36.5752 82.5343 35.0314 82.5343 33.171V27.3126H70.9977C70.9977 28.7772 72.183 29.9251 73.6053 29.9251H79.2946V33.171H68.3111V24.2646ZM23.8634 24.2646H37.4545C37.4545 22.4042 35.9137 20.8604 34.0568 20.8604H23.5474C21.6904 20.8604 20.1496 22.4042 20.1496 24.2646V27.0355C20.1496 28.8959 21.6904 30.4397 23.5474 30.4397H34.0963V33.2106H20.1496C20.1496 35.071 21.6904 36.6148 23.5474 36.6148H34.4123C36.2693 36.6148 37.8101 35.071 37.8101 33.2106V30.4397C37.8101 28.5793 36.2693 27.0355 34.4123 27.0355H23.8634V24.2646ZM4.30648 24.2646H17.1469C17.1469 22.4042 15.6061 20.8604 13.7491 20.8604H3.39778C1.54085 20.8604 0 22.4042 0 24.2646V33.171C0 35.0314 1.54085 36.5752 3.39778 36.5752H13.7491C15.6061 36.5752 17.1469 35.0314 17.1469 33.171H4.30648V24.2646ZM64.8738 7.59986C64.7948 7.63944 64.7158 7.67902 64.6367 7.67902C64.1626 8.35195 64.4392 8.27278 63.57 8.86654C63.57 10.0145 63.6095 10.1332 63.8861 11.1624C63.8861 11.202 63.8861 11.202 63.8861 11.2416C63.8861 11.2811 63.8466 11.2811 63.8466 11.2811C63.649 11.3207 63.3329 11.3999 63.1749 11.4395C63.1749 11.4791 63.2539 12.1124 63.1749 12.627C63.0169 13.3791 61.1995 15.0416 60.8044 15.1604C60.2117 15.2791 59.5401 14.7645 58.4733 14.2895C58.1968 14.1708 57.2091 13.5374 56.6954 13.3395C56.2608 13.1812 55.8657 14.2104 56.3794 14.4874C56.6164 14.6062 57.0115 14.8041 57.13 15.1208C57.4856 16.0708 57.0905 19.7125 56.3399 20.425C55.9843 20.425 55.6682 20.1083 55.4311 20.1875C54.957 20.4646 55.2731 21.8896 55.4311 22.1271C58.3153 25.0959 57.9992 27.3126 59.224 28.9751C59.7771 28.9751 59.4216 29.5689 59.8562 30.2814C59.9747 30.6376 59.8166 31.2314 59.7771 31.4689C59.7771 31.7856 59.7771 32.0626 59.7771 32.3793C59.7376 32.4585 59.6981 32.5772 59.6981 32.6564C59.6981 32.9335 59.6981 33.171 59.6981 33.4481C59.6191 33.8439 59.5006 34.3585 59.4216 34.7148C59.2635 35.4669 59.8957 36.0606 59.5006 36.7731C59.5006 37.2085 59.5006 37.1294 59.224 37.4856C59.224 38.1586 59.066 39.6232 59.224 40.1377C59.3425 40.494 60.6068 41.9982 60.9624 42.1565C61.7526 42.5128 62.8983 42.4336 62.5033 43.6607C60.2117 44.3732 58.7894 43.2649 57.5646 43.2649L57.5251 43.4628C56.7349 43.4628 56.1423 43.2649 55.9448 43.2253C55.9448 43.0274 56.1818 41.4044 56.3003 41.1273C56.3794 41.0086 56.4584 40.8503 56.5769 40.7315C56.6559 40.4544 56.4979 38.4356 56.4584 37.8815C55.9843 37.5252 55.8657 36.4169 55.8657 35.8231C55.7077 35.3481 55.7077 34.7939 55.7077 34.2002C55.7077 33.9231 55.5102 33.4877 55.6287 33.1314C55.7077 32.8939 55.9843 32.7752 56.0238 32.5772C56.0238 32.3397 56.0238 32.1418 56.0238 31.9043C56.1423 31.1918 56.1028 30.8751 55.6682 30.4397C54.6015 30.4397 54.4434 30.5189 53.8903 29.6084C53.6927 29.3314 52.2309 26.9563 52.0729 26.9167C50.8481 26.3626 51.0852 26.6001 50.532 25.6105C50.4925 25.6105 50.1764 25.7292 49.8999 26.1647C49.4653 26.8376 48.6751 28.9751 48.438 29.7272C48.3195 30.1626 48.438 30.598 48.2405 30.9543C48.122 31.1918 47.6479 31.271 47.5689 31.4689C47.1343 32.2606 47.4503 32.1814 46.6206 32.7356C46.4626 32.9335 46.4626 33.2106 46.3441 33.4481C46.2651 33.5272 46.2255 33.6064 46.1465 33.7252C45.9885 34.0418 46.3046 34.5564 46.2255 34.7543C46.0675 35.2294 45.9095 35.7439 45.7119 36.1794C45.3168 37.0898 45.3959 38.2773 45.0008 38.8315C44.8032 39.1086 44.3291 38.8315 43.9735 39.069C43.934 39.2669 43.3809 40.5336 43.2624 40.8898C43.2624 41.5628 43.2624 42.2357 43.2624 42.9482C43.3809 43.3044 43.6575 43.6211 43.5784 44.0565C43.4994 44.5315 41.8796 44.5315 41.0104 44.3732C40.4177 44.294 40.2597 43.8586 40.2597 43.344C40.2597 42.7503 41.445 38.9106 41.4054 38.6731C40.4967 37.644 41.6425 36.6148 41.9981 35.6648C42.1561 35.1898 42.0771 34.5564 42.2351 34.121C42.5512 33.5272 42.8673 32.9731 43.1834 32.3793C43.776 31.8251 43.4994 31.7856 43.8155 31.3106C44.0921 30.8751 44.4081 30.598 44.2106 29.9251C43.8155 28.6189 44.6452 26.7584 44.7242 25.373C44.5662 25.2146 44.0921 25.2542 44.013 24.8584C43.8945 23.9876 44.3291 22.4834 44.6057 22.3646C44.7242 22.2854 44.8822 22.3646 44.9613 22.2854C44.9613 21.6521 44.3291 18.0896 44.8032 17.8916C45.1193 17.7729 45.7909 17.7333 45.9095 17.6541C45.9095 17.4958 45.7909 17.1791 45.6724 17.1791C45.4749 17.1396 45.0403 17.0604 44.6847 16.9812C43.618 16.7437 44.6057 12.5478 44.6057 12.5082C44.8822 12.1124 46.2651 12.627 46.4231 11.9937C46.8577 11.3999 46.0675 9.18321 47.6084 6.41234C48.122 5.50191 49.1492 4.5519 50.295 4.94774C50.6901 5.06649 50.453 5.66025 51.1247 5.02691C51.1247 4.67065 50.9666 4.39357 50.8876 4.0769C49.7418 0.672689 53.6137 -1.18775 56.3399 0.751857C56.6559 0.870608 56.814 0.949776 57.051 1.10811C57.209 1.89979 57.9597 3.24564 57.2091 4.15606C56.893 4.23523 56.4979 4.39357 56.2608 4.5519C56.2608 4.86857 56.3003 5.14566 56.3399 5.34358C56.3794 5.50191 56.4979 5.58108 56.2213 5.69983C56.1818 5.69983 56.2213 5.81858 56.2213 5.85817C56.8535 5.97692 57.5251 5.73942 57.9597 5.58108H58.4733V4.94774H58.5919H58.7104V4.43315H58.9474V5.30399H59.5796V5.58108H68.9432V6.05609H69.3383V4.27482H69.6939V5.73942H70.4841V6.57068H72.9731V6.33317H73.3682V6.45192H74.5535V7.12485H73.3682V7.2436H72.9731V7.0061H70.4841V7.2436C70.1285 7.2436 69.7729 7.2436 69.3778 7.2436V7.08527H68.9037V7.59986H64.8738Z" fill="white"/>
</g>
<path d="M123.598 10.9531H259.929L254.002 36.9531H123.598V10.9531Z" fill="#16BDF9" stroke="url(#paint0_linear_470_2443)"/>
<path d="M140.744 18.501V19.445H137.395V28.453H134.753V19.445H131.438V18.501H140.744Z" fill="white"/>
<path d="M151.067 19.765V27.189C151.067 28.0316 150.635 28.453 149.771 28.453H143.386C142.522 28.453 142.09 28.0316 142.09 27.189V19.765C142.09 18.9223 142.522 18.501 143.386 18.501H149.771C150.635 18.501 151.067 18.9223 151.067 19.765ZM148.425 27.013V19.941C148.425 19.7276 148.392 19.5943 148.327 19.541C148.261 19.477 148.124 19.445 147.916 19.445H145.257C145.049 19.445 144.913 19.477 144.847 19.541C144.781 19.5943 144.748 19.7276 144.748 19.941V27.013C144.748 27.2263 144.781 27.365 144.847 27.429C144.913 27.4823 145.049 27.509 145.257 27.509H147.916C148.124 27.509 148.261 27.4823 148.327 27.429C148.392 27.365 148.425 27.2263 148.425 27.013Z" fill="white"/>
<path d="M156.161 18.501V27.013C156.161 27.2263 156.193 27.365 156.259 27.429C156.325 27.4823 156.461 27.509 156.669 27.509H159.492C159.7 27.509 159.837 27.4823 159.903 27.429C159.968 27.365 160.001 27.2263 160.001 27.013V18.501H162.644V27.189C162.644 28.0316 162.211 28.453 161.347 28.453H154.798C153.934 28.453 153.502 28.0316 153.502 27.189V18.501H156.161Z" fill="white"/>
<path d="M167.864 19.445V23.941H171.245C171.464 23.941 171.601 23.909 171.656 23.845C171.721 23.781 171.754 23.6476 171.754 23.445V19.941C171.754 19.7276 171.721 19.5943 171.656 19.541C171.601 19.477 171.464 19.445 171.245 19.445H167.864ZM167.864 24.885V28.453H165.205V18.501H173.1C173.964 18.501 174.397 18.9223 174.397 19.765V23.621C174.397 24.4636 173.964 24.885 173.1 24.885H172.296L174.61 28.453H171.853L169.653 24.885H167.864Z" fill="white"/>
<path d="M183.769 18.501H186.214V28.453H183.867L179.255 21.013V28.453H176.81V18.501H179.206L183.769 25.925V18.501Z" fill="white"/>
<path d="M191.521 25.541H195.427L193.474 20.069L191.521 25.541ZM196.461 28.453L195.755 26.485H191.176L190.47 28.453H187.894L191.8 18.501H195.148L199.071 28.453H196.461Z" fill="white"/>
<path d="M203.12 28.453H200.74V18.501H203.579L206.747 24.725L210.013 18.501H212.853V28.453H210.473V20.965L207.666 26.293H205.861L203.12 20.981V28.453Z" fill="white"/>
<path d="M218.291 27.509H223.592V28.453H215.55V18.501H223.379V19.445H218.291V22.885H222.706V23.829H218.291V27.509Z" fill="white"/>
<path d="M232.543 18.501H234.988V28.453H232.641L228.029 21.013V28.453H225.584V18.501H227.98L232.543 25.925V18.501Z" fill="white"/>
<path d="M245.777 18.501V19.445H242.428V28.453H239.786V19.445H236.47V18.501H245.777Z" fill="white"/>
<line x1="286.5" y1="2.72656" x2="286.5" y2="41.7266" stroke="#6C829D"/>
<g clip-path="url(#clip1_470_2443)">
<path d="M433.846 22.9465H438.152L431.983 30.1969L433.846 22.9465ZM431.854 30.6885L435.678 30.6578L443.678 21.2568H430.183L426.777 34.498H430.89L431.854 30.6885Z" fill="white"/>
<path d="M422.923 28.3229L428.963 21.2568H415.436L412.062 34.498H416.207L419.163 22.9465H423.405L418.842 28.2922L421.284 34.498H425.429L422.923 28.3229Z" fill="white"/>
<path d="M476.997 21.2568H472.852L467.229 27.3091L468.836 21.2568H464.691L461.285 34.498H465.398L466.908 28.7223L470.443 34.498H474.555L470.635 28.0157L476.997 21.2568Z" fill="white"/>
<path d="M388.895 30.6582L390.983 22.947H396.574V23.0084L388.895 30.6582ZM399.53 21.2266L387.32 21.2573L383.754 34.4985H389.216L400.687 23.0699L399.53 21.2266Z" fill="white"/>
<path d="M376.911 31.3029L375.24 21.2568H370.067L366.629 34.498H370.742L373.119 25.3736L374.405 34.498H380.156L383.594 21.2568H379.449L376.911 31.3029Z" fill="white"/>
<path d="M345.164 27.1555H341.212L342.786 21.2568H338.641L335.203 34.498H339.348L340.633 29.4289H344.585L343.268 34.498H347.381L350.851 21.2568H346.738L345.164 27.1555Z" fill="white"/>
<path d="M337.197 21.2568H325.63L325.18 22.67H329.196L326.176 34.498H330.289L333.341 22.67H336.747L337.197 21.2568Z" fill="white"/>
<path d="M456.372 23.223H461.448L461.93 21.2568H452.773L449.367 34.498H458.557L459.007 32.8083H453.93L456.372 23.223Z" fill="white"/>
<path d="M359.368 32.2246H355.833L358.693 21.2568H354.548L351.656 32.4396L352.909 34.4366L353.038 34.498H362.87V34.4366L366.372 21.2568H362.227L359.368 32.2246Z" fill="white"/>
<path d="M449.047 21.2573H444.87V21.2266C443.681 25.6198 441.496 34.4985 441.496 34.4985H445.609L449.047 21.2573Z" fill="white"/>
<path d="M391.818 41.2261L409.618 34.0679L410.165 31.9481H405.056L410.968 28.8759L411.289 27.6777H404.028L412.96 21.2568H407.594L397.055 29.7668L397.248 30.1048L403.931 30.074L396.059 34.1293L396.22 34.4058L402.903 34.4366L391.625 40.8882L391.818 41.2261Z" fill="#16BDF9"/>
</g>
<path d="M327.668 12.5752H325.77V11.6035H327.668C327.999 11.6035 328.266 11.5514 328.47 11.4473C328.673 11.3431 328.822 11.1999 328.916 11.0176C329.012 10.832 329.061 10.6204 329.061 10.3828C329.061 10.1582 329.012 9.94824 328.916 9.75293C328.822 9.55436 328.673 9.39486 328.47 9.27441C328.266 9.15397 327.999 9.09375 327.668 9.09375H326.156V15.2266H324.898V8.11719H327.668C328.233 8.11719 328.712 8.21484 329.106 8.41016C329.503 8.60221 329.805 8.86914 330.012 9.21094C330.219 9.54948 330.323 9.93685 330.323 10.373C330.323 10.832 330.219 11.2259 330.012 11.5547C329.805 11.8835 329.503 12.1357 329.106 12.3115C328.712 12.4873 328.233 12.5752 327.668 12.5752Z" fill="#6C829D"/>
<path d="M337.265 11.4766V11.8672C337.265 12.4043 337.193 12.8861 337.05 13.3125C336.906 13.7389 336.701 14.1019 336.434 14.4014C336.17 14.7008 335.853 14.9303 335.482 15.0898C335.111 15.2461 334.701 15.3242 334.25 15.3242C333.802 15.3242 333.393 15.2461 333.023 15.0898C332.655 14.9303 332.337 14.7008 332.066 14.4014C331.796 14.1019 331.585 13.7389 331.435 13.3125C331.288 12.8861 331.215 12.4043 331.215 11.8672V11.4766C331.215 10.9395 331.288 10.4593 331.435 10.0361C331.582 9.6097 331.789 9.24674 332.056 8.94727C332.327 8.64453 332.645 8.41504 333.013 8.25879C333.383 8.09928 333.792 8.01953 334.24 8.01953C334.691 8.01953 335.101 8.09928 335.472 8.25879C335.843 8.41504 336.162 8.64453 336.429 8.94727C336.696 9.24674 336.901 9.6097 337.045 10.0361C337.192 10.4593 337.265 10.9395 337.265 11.4766ZM336.008 11.8672V11.4668C336.008 11.0697 335.968 10.7197 335.888 10.417C335.811 10.111 335.696 9.85547 335.542 9.65039C335.392 9.44206 335.207 9.28581 334.986 9.18164C334.766 9.07422 334.517 9.02051 334.24 9.02051C333.963 9.02051 333.716 9.07422 333.499 9.18164C333.282 9.28581 333.096 9.44206 332.943 9.65039C332.792 9.85547 332.677 10.111 332.597 10.417C332.517 10.7197 332.477 11.0697 332.477 11.4668V11.8672C332.477 12.2643 332.517 12.6159 332.597 12.9219C332.677 13.2279 332.794 13.4867 332.948 13.6982C333.105 13.9066 333.292 14.0645 333.509 14.1719C333.726 14.276 333.973 14.3281 334.25 14.3281C334.53 14.3281 334.779 14.276 334.996 14.1719C335.213 14.0645 335.397 13.9066 335.547 13.6982C335.697 13.4867 335.811 13.2279 335.888 12.9219C335.968 12.6159 336.008 12.2643 336.008 11.8672Z" fill="#6C829D"/>
<path d="M340.351 13.6299L341.803 8.11719H342.565L342.479 9.53809L340.927 15.2266H340.135L340.351 13.6299ZM339.264 8.11719L340.441 13.5859L340.546 15.2266H339.705L338.017 8.11719H339.264ZM344.212 13.5713L345.374 8.11719H346.627L344.939 15.2266H344.097L344.212 13.5713ZM342.86 8.11719L344.298 13.6445L344.508 15.2266H343.717L342.189 9.53809L342.109 8.11719H342.86Z" fill="#6C829D"/>
<path d="M352.332 14.2549V15.2266H348.46V14.2549H352.332ZM348.816 8.11719V15.2266H347.558V8.11719H348.816ZM351.826 11.0859V12.043H348.46V11.0859H351.826ZM352.307 8.11719V9.09375H348.46V8.11719H352.307Z" fill="#6C829D"/>
<path d="M353.359 8.11719H355.938C356.492 8.11719 356.965 8.19857 357.356 8.36133C357.746 8.52409 358.045 8.76497 358.252 9.08398C358.463 9.39974 358.568 9.79036 358.568 10.2559C358.568 10.6107 358.501 10.9232 358.367 11.1934C358.234 11.4635 358.045 11.6914 357.801 11.877C357.558 12.0592 357.267 12.2008 356.93 12.3018L356.549 12.4824H354.23L354.22 11.5107H355.958C356.259 11.5107 356.509 11.4587 356.709 11.3545C356.91 11.2503 357.06 11.1087 357.16 10.9297C357.264 10.7474 357.316 10.5423 357.316 10.3145C357.316 10.0671 357.265 9.85221 357.165 9.66992C357.068 9.48438 356.918 9.34277 356.714 9.24512C356.511 9.14421 356.252 9.09375 355.938 9.09375H354.616V15.2266H353.359V8.11719ZM357.521 15.2266L355.808 12.0332L357.125 12.0283L358.863 15.1631V15.2266H357.521Z" fill="#6C829D"/>
<path d="M364.593 14.2549V15.2266H360.722V14.2549H364.593ZM361.077 8.11719V15.2266H359.82V8.11719H361.077ZM364.087 11.0859V12.043H360.722V11.0859H364.087ZM364.568 8.11719V9.09375H360.722V8.11719H364.568Z" fill="#6C829D"/>
<path d="M367.739 15.2266H366.181L366.191 14.2549H367.739C368.19 14.2549 368.567 14.1589 368.871 13.9668C369.178 13.7747 369.408 13.4997 369.562 13.1416C369.719 12.7835 369.798 12.3571 369.798 11.8623V11.4766C369.798 11.0924 369.752 10.7523 369.662 10.4561C369.575 10.1598 369.445 9.91081 369.272 9.70898C369.101 9.50716 368.891 9.35417 368.64 9.25C368.393 9.14583 368.108 9.09375 367.784 9.09375H366.151V8.11719H367.784C368.268 8.11719 368.711 8.19694 369.111 8.35645C369.512 8.5127 369.858 8.73893 370.148 9.03516C370.442 9.33138 370.667 9.6862 370.824 10.0996C370.981 10.513 371.06 10.9753 371.06 11.4863V11.8623C371.06 12.3734 370.981 12.8356 370.824 13.249C370.667 13.6624 370.442 14.0173 370.148 14.3135C369.854 14.6064 369.504 14.8327 369.096 14.9922C368.692 15.1484 368.24 15.2266 367.739 15.2266ZM366.877 8.11719V15.2266H365.62V8.11719H366.877Z" fill="#6C829D"/>
<path d="M377.611 12.0137H375.753L375.743 11.1201H377.366C377.64 11.1201 377.872 11.0811 378.062 11.0029C378.256 10.9215 378.403 10.806 378.503 10.6563C378.603 10.5033 378.653 10.3193 378.653 10.1045C378.653 9.86686 378.606 9.67318 378.513 9.52344C378.419 9.3737 378.276 9.26465 378.082 9.19629C377.892 9.12793 377.648 9.09375 377.351 9.09375H376.134V15.2266H374.876V8.11719H377.351C377.752 8.11719 378.109 8.15462 378.423 8.22949C378.74 8.30436 379.009 8.42155 379.229 8.58105C379.453 8.7373 379.621 8.93587 379.735 9.17676C379.852 9.41764 379.91 9.7041 379.91 10.0361C379.91 10.3291 379.839 10.5977 379.695 10.8418C379.551 11.0827 379.339 11.2796 379.059 11.4326C378.778 11.5856 378.429 11.6768 378.012 11.7061L377.611 12.0137ZM377.556 15.2266H375.357L375.923 14.2549H377.556C377.84 14.2549 378.077 14.2093 378.267 14.1182C378.458 14.0238 378.6 13.8952 378.693 13.7324C378.79 13.5664 378.838 13.3727 378.838 13.1514C378.838 12.9202 378.797 12.7201 378.713 12.5508C378.63 12.3783 378.498 12.2464 378.318 12.1553C378.137 12.0609 377.902 12.0137 377.611 12.0137H376.199L376.209 11.1201H378.047L378.333 11.457C378.733 11.4701 379.062 11.5563 379.319 11.7158C379.58 11.8753 379.773 12.082 379.9 12.3359C380.027 12.5898 380.091 12.8633 380.091 13.1563C380.091 13.6087 379.989 13.988 379.785 14.2939C379.585 14.5999 379.296 14.8327 378.919 14.9922C378.541 15.1484 378.087 15.2266 377.556 15.2266Z" fill="#6C829D"/>
<path d="M381.774 8.11719L383.467 11.5107L385.16 8.11719H386.552L384.098 12.6094V15.2266H382.83V12.6094L380.376 8.11719H381.774Z" fill="#6C829D"/>
<defs>
<linearGradient id="paint0_linear_470_2443" x1="154.645" y1="56.4759" x2="221.47" y2="56.2571" gradientUnits="userSpaceOnUse">
<stop stop-color="#60F5FF"/>
<stop offset="1" stop-color="#6DF6FF" stop-opacity="0"/>
</linearGradient>
<clipPath id="clip0_470_2443">
<rect width="103" height="44.4526" fill="white"/>
</clipPath>
<clipPath id="clip1_470_2443">
<rect width="151.819" height="20" fill="white" transform="translate(325.18 21.2266)"/>
</clipPath>
</defs>
</svg>
