<svg width="135" height="40" viewBox="0 0 135 40" fill="none" xmlns="http://www.w3.org/2000/svg">
<g clip-path="url(#clip0_470_2865)">
<path fill-rule="evenodd" clip-rule="evenodd" d="M54.1527 11.2629H48.5247C47.5151 11.2629 46.6774 12.0964 46.6774 13.1008V17.9094C46.6774 18.9138 47.5151 19.7473 48.5247 19.7473H54.1527C55.1623 19.7473 56 18.9138 56 17.9094V13.1008C56 12.0964 55.1623 11.2629 54.1527 11.2629ZM33.5098 4.937H32.8224V4.80877C33.0157 4.80877 33.1231 4.76603 33.0372 4.61643C32.9083 4.35997 33.4668 4.38134 33.5527 4.42409C33.6816 4.53094 33.5957 4.80877 33.5098 4.937ZM32.5646 5.10797H33.4024C33.3165 5.25757 33.0587 5.72774 32.8868 5.72774C32.8009 5.62088 32.5861 5.32168 32.5646 5.10797ZM48.5677 13.1008H54.1312V17.9094H48.5677V13.1008ZM37.14 13.1008H44.873C44.873 12.0964 44.0353 11.2629 43.0257 11.2629H37.0756C36.066 11.2629 35.2282 12.0964 35.2282 13.1008V17.9094C35.2282 18.9138 36.066 19.7473 37.0756 19.7473H43.0257C44.0353 19.7473 44.873 18.9138 44.873 17.9094V14.7464H38.6007C38.6007 15.5372 39.2451 16.1569 40.0184 16.1569H43.1116V17.9094H37.14V13.1008ZM12.9743 13.1008H20.3636C20.3636 12.0964 19.5259 11.2629 18.5163 11.2629H12.8025C11.7929 11.2629 10.9551 12.0964 10.9551 13.1008V14.5968C10.9551 15.6013 11.7929 16.4348 12.8025 16.4348H18.5378V17.9308H10.9551C10.9551 18.9352 11.7929 19.7687 12.8025 19.7687H18.7096C19.7192 19.7687 20.557 18.9352 20.557 17.9308V16.4348C20.557 15.4303 19.7192 14.5968 18.7096 14.5968H12.9743V13.1008ZM2.34139 13.1008H9.32259C9.32259 12.0964 8.48485 11.2629 7.47526 11.2629H1.84733C0.837745 11.2629 0 12.0964 0 13.1008V17.9094C0 18.9138 0.837745 19.7473 1.84733 19.7473H7.47526C8.48485 19.7473 9.32259 18.9138 9.32259 17.9094H2.34139V13.1008ZM35.2712 4.10352C35.2282 4.12489 35.1853 4.14626 35.1423 4.14626C34.8845 4.50957 35.0349 4.46683 34.5623 4.7874C34.5623 5.40717 34.5838 5.47128 34.7342 6.02694C34.7342 6.04831 34.7342 6.04831 34.7342 6.06968C34.7342 6.09105 34.7127 6.09105 34.7127 6.09105C34.6053 6.11242 34.4334 6.15516 34.3475 6.17653C34.3475 6.19791 34.3905 6.53985 34.3475 6.81767C34.2616 7.22373 33.2735 8.12132 33.0587 8.18544C32.7365 8.24955 32.3713 7.97173 31.7913 7.71527C31.641 7.65116 31.1039 7.30922 30.8247 7.20236C30.5884 7.11687 30.3736 7.67253 30.6529 7.82213C30.7817 7.88624 30.9965 7.9931 31.061 8.16407C31.2543 8.67698 31.0395 10.6431 30.6314 11.0278C30.4381 11.0278 30.2662 10.8569 30.1373 10.8996C29.8796 11.0492 30.0514 11.8186 30.1373 11.9468C31.7054 13.5496 31.5336 14.7464 32.1995 15.644C32.5002 15.644 32.3069 15.9646 32.5432 16.3493C32.6076 16.5416 32.5217 16.8622 32.5002 16.9904C32.5002 17.1614 32.5002 17.311 32.5002 17.482C32.4787 17.5247 32.4572 17.5888 32.4572 17.6316C32.4572 17.7812 32.4572 17.9094 32.4572 18.059C32.4143 18.2727 32.3498 18.5505 32.3069 18.7429C32.2209 19.1489 32.5646 19.4695 32.3498 19.8542C32.3498 20.0893 32.3498 20.0465 32.1995 20.2389C32.1995 20.6022 32.1135 21.3929 32.1995 21.6707C32.2639 21.8631 32.9513 22.6752 33.1446 22.7607C33.5742 22.953 34.1972 22.9103 33.9824 23.5728C32.7365 23.9575 31.9632 23.3591 31.2973 23.3591L31.2758 23.4659C30.8462 23.4659 30.524 23.3591 30.4166 23.3377C30.4166 23.2309 30.5455 22.3546 30.6099 22.205C30.6529 22.1409 30.6958 22.0554 30.7603 21.9913C30.8032 21.8417 30.7173 20.7518 30.6958 20.4526C30.438 20.2602 30.3736 19.6618 30.3736 19.3413C30.2877 19.0848 30.2877 18.7856 30.2877 18.465C30.2877 18.3154 30.1803 18.0804 30.2447 17.888C30.2877 17.7598 30.438 17.6957 30.4595 17.5888C30.4595 17.4606 30.4595 17.3537 30.4595 17.2255C30.524 16.8408 30.5025 16.6699 30.2662 16.4348C29.6862 16.4348 29.6003 16.4775 29.2996 15.986C29.1922 15.8364 28.3974 14.5541 28.3115 14.5327C27.6456 14.2335 27.7745 14.3618 27.4737 13.8275C27.4522 13.8275 27.2804 13.8916 27.13 14.1267C26.8937 14.49 26.4641 15.644 26.3352 16.0501C26.2708 16.2852 26.3352 16.5203 26.2278 16.7126C26.1634 16.8408 25.9056 16.8836 25.8627 16.9904C25.6264 17.4179 25.7982 17.3751 25.3471 17.6743C25.2612 17.7812 25.2612 17.9308 25.1968 18.059C25.1538 18.1017 25.1323 18.1445 25.0894 18.2086C25.0035 18.3796 25.1753 18.6574 25.1323 18.7642C25.0464 19.0207 24.9605 19.2985 24.8531 19.5336C24.6383 20.0252 24.6812 20.6663 24.4664 20.9655C24.359 21.1151 24.1013 20.9655 23.9079 21.0937C23.8865 21.2006 23.5857 21.8845 23.5213 22.0768C23.5213 22.4401 23.5213 22.8034 23.5213 23.1881C23.5857 23.3805 23.7361 23.5514 23.6931 23.7865C23.6502 24.043 22.7695 24.043 22.2969 23.9575C21.9747 23.9147 21.8888 23.6796 21.8888 23.4018C21.8888 23.0813 22.5332 21.0082 22.5117 20.88C22.0176 20.3244 22.6406 19.7687 22.8339 19.2558C22.9198 18.9993 22.8769 18.6574 22.9628 18.4223C23.1346 18.1017 23.3065 17.8025 23.4783 17.482C23.8005 17.1828 23.6502 17.1614 23.822 16.9049C23.9724 16.6699 24.1442 16.5203 24.0368 16.1569C23.822 15.4517 24.2731 14.4472 24.3161 13.6992C24.2301 13.6138 23.9724 13.6351 23.9294 13.4214C23.865 12.9512 24.1013 12.1391 24.2516 12.075C24.3161 12.0323 24.402 12.075 24.445 12.0323C24.445 11.6903 24.1013 9.76692 24.359 9.66006C24.5309 9.59595 24.896 9.57457 24.9605 9.53183C24.9605 9.44635 24.896 9.27538 24.8316 9.27538C24.7242 9.25401 24.4879 9.21126 24.2946 9.16852C23.7146 9.04029 24.2516 6.77493 24.2516 6.75356C24.402 6.53985 25.1538 6.81767 25.2397 6.47573C25.476 6.15516 25.0464 4.95837 25.8842 3.46238C26.1634 2.97084 26.7219 2.45792 27.3448 2.67164C27.5596 2.73575 27.4308 3.05632 27.7959 2.71438C27.7959 2.52204 27.71 2.37244 27.667 2.20147C27.0441 0.363534 29.1492 -0.640919 30.6314 0.406276C30.8032 0.47039 30.8891 0.513133 31.018 0.598618C31.1039 1.02604 31.5121 1.75267 31.1039 2.24421C30.9321 2.28695 30.7173 2.37244 30.5884 2.45792C30.5884 2.62889 30.6099 2.77849 30.6314 2.88535C30.6529 2.97084 30.7173 3.01358 30.5669 3.07769C30.5455 3.07769 30.5669 3.14181 30.5669 3.16318C30.9106 3.22729 31.2758 3.09906 31.5121 3.01358H31.7913V2.67164H31.8558H31.9202V2.39381H32.0491V2.86398H32.3928V3.01358H37.4837V3.27003H37.6985V2.30832H37.8918V3.09906H38.3214V3.54786H39.6747V3.41963H39.8895V3.48375H40.5339V3.84706H39.8895V3.91117H39.6747V3.78295H38.3214V3.91117C38.1281 3.91117 37.9348 3.91117 37.72 3.91117V3.82569H37.4622V4.10352H35.2712Z" fill="white"/>
</g>
<path d="M63.7484 5.85977H134.575L131.508 21.191H63.7484V5.85977Z" fill="#16BDF9" stroke="url(#paint0_linear_470_2865)" stroke-width="0.7"/>
<path d="M72.5859 10.2881V10.8486H70.8418V16.1971H69.4653V10.8486H67.7383V10.2881H72.5859Z" fill="white"/>
<path d="M77.9637 11.0386V15.4466C77.9637 15.9469 77.7386 16.1971 77.2883 16.1971H73.9625C73.5122 16.1971 73.2871 15.9469 73.2871 15.4466V11.0386C73.2871 10.5383 73.5122 10.2881 73.9625 10.2881H77.2883C77.7386 10.2881 77.9637 10.5383 77.9637 11.0386ZM76.5872 15.3421V11.1431C76.5872 11.0164 76.5701 10.9373 76.5359 10.9056C76.5017 10.8676 76.4305 10.8486 76.3222 10.8486H74.9371C74.8288 10.8486 74.7576 10.8676 74.7234 10.9056C74.6892 10.9373 74.6721 11.0164 74.6721 11.1431V15.3421C74.6721 15.4688 74.6892 15.5511 74.7234 15.5891C74.7576 15.6208 74.8288 15.6366 74.9371 15.6366H76.3222C76.4305 15.6366 76.5017 15.6208 76.5359 15.5891C76.5701 15.5511 76.5872 15.4688 76.5872 15.3421Z" fill="white"/>
<path d="M80.6167 10.2881V15.3421C80.6167 15.4688 80.6338 15.5511 80.668 15.5891C80.7022 15.6208 80.7735 15.6366 80.8818 15.6366H82.3523C82.4606 15.6366 82.5319 15.6208 82.5661 15.5891C82.6003 15.5511 82.6174 15.4688 82.6174 15.3421V10.2881H83.9938V15.4466C83.9938 15.9469 83.7687 16.1971 83.3184 16.1971H79.9071C79.4568 16.1971 79.2317 15.9469 79.2317 15.4466V10.2881H80.6167Z" fill="white"/>
<path d="M86.7133 10.8486V13.5181H88.4745C88.5885 13.5181 88.6598 13.4991 88.6883 13.4611C88.7225 13.4231 88.7396 13.3439 88.7396 13.2236V11.1431C88.7396 11.0164 88.7225 10.9373 88.6883 10.9056C88.6598 10.8676 88.5885 10.8486 88.4745 10.8486H86.7133ZM86.7133 14.0786V16.1971H85.3283V10.2881H89.4406C89.8909 10.2881 90.116 10.5383 90.116 11.0386V13.3281C90.116 13.8284 89.8909 14.0786 89.4406 14.0786H89.0217L90.2272 16.1971H88.7908L87.6452 14.0786H86.7133Z" fill="white"/>
<path d="M94.9981 10.2881H96.272V16.1971H95.0494L92.647 11.7796V16.1971H91.3731V10.2881H92.6213L94.9981 14.6961V10.2881Z" fill="white"/>
<path d="M99.0362 14.4681H101.071L100.054 11.2191L99.0362 14.4681ZM101.61 16.1971L101.242 15.0286H98.8566L98.489 16.1971H97.1467L99.1815 10.2881H100.926L102.969 16.1971H101.61Z" fill="white"/>
<path d="M105.078 16.1971H103.839V10.2881H105.318L106.968 13.9836L108.669 10.2881H110.148V16.1971H108.908V11.7511L107.446 14.9146H106.506L105.078 11.7606V16.1971Z" fill="white"/>
<path d="M112.981 15.6366H115.743V16.1971H111.553V10.2881H115.631V10.8486H112.981V12.8911H115.281V13.4516H112.981V15.6366Z" fill="white"/>
<path d="M120.405 10.2881H121.679V16.1971H120.456L118.054 11.7796V16.1971H116.78V10.2881H118.028L120.405 14.6961V10.2881Z" fill="white"/>
<path d="M127.298 10.2881V10.8486H125.554V16.1971H124.178V10.8486H122.451V10.2881H127.298Z" fill="white"/>
<path d="M1.88691 32.0816H0.593712V31.4243H1.88691C2.11211 31.4243 2.29409 31.3891 2.43285 31.3187C2.57161 31.2482 2.67284 31.1513 2.73653 31.028C2.8025 30.9025 2.83549 30.7594 2.83549 30.5986C2.83549 30.4467 2.8025 30.3047 2.73653 30.1725C2.67284 30.0382 2.57161 29.9303 2.43285 29.8489C2.29409 29.7674 2.11211 29.7266 1.88691 29.7266H0.856447V33.8751H0V29.0661H1.88691C2.27135 29.0661 2.59777 29.1321 2.8662 29.2642C3.13689 29.3941 3.34276 29.5747 3.48379 29.8059C3.62483 30.0349 3.69534 30.2969 3.69534 30.592C3.69534 30.9025 3.62483 31.1689 3.48379 31.3913C3.34276 31.6137 3.13689 31.7844 2.8662 31.9033C2.59777 32.0222 2.27135 32.0816 1.88691 32.0816Z" fill="#6C829D"/>
<path d="M8.42457 31.3385V31.6027C8.42457 31.966 8.37566 32.2919 8.27785 32.5804C8.18003 32.8688 8.04013 33.1143 7.85815 33.3169C7.67845 33.5195 7.46234 33.6747 7.20985 33.7826C6.95735 33.8883 6.67755 33.9412 6.37046 33.9412C6.06564 33.9412 5.78698 33.8883 5.53449 33.7826C5.28426 33.6747 5.06702 33.5195 4.88277 33.3169C4.69851 33.1143 4.5552 32.8688 4.45284 32.5804C4.35275 32.2919 4.30271 31.966 4.30271 31.6027V31.3385C4.30271 30.9751 4.35275 30.6504 4.45284 30.3641C4.55293 30.0757 4.69396 29.8301 4.87594 29.6276C5.0602 29.4228 5.27744 29.2675 5.52766 29.1618C5.78016 29.0539 6.05882 29 6.36364 29C6.67073 29 6.95052 29.0539 7.20302 29.1618C7.45552 29.2675 7.67276 29.4228 7.85474 29.6276C8.03672 29.8301 8.17662 30.0757 8.27443 30.3641C8.37452 30.6504 8.42457 30.9751 8.42457 31.3385ZM7.56812 31.6027V31.3319C7.56812 31.0632 7.54082 30.8265 7.48623 30.6217C7.43391 30.4148 7.35543 30.2419 7.25079 30.1032C7.14843 29.9623 7.02218 29.8566 6.87205 29.7861C6.72191 29.7134 6.55244 29.6771 6.36364 29.6771C6.17483 29.6771 6.0065 29.7134 5.85864 29.7861C5.71078 29.8566 5.58453 29.9623 5.47989 30.1032C5.37753 30.2419 5.29905 30.4148 5.24446 30.6217C5.18986 30.8265 5.16256 31.0632 5.16256 31.3319V31.6027C5.16256 31.8713 5.18986 32.1092 5.24446 32.3161C5.29905 32.5231 5.37867 32.6982 5.4833 32.8413C5.59022 32.9822 5.71761 33.089 5.86546 33.1617C6.01332 33.2321 6.18166 33.2674 6.37046 33.2674C6.56154 33.2674 6.73101 33.2321 6.87887 33.1617C7.02673 33.089 7.15184 32.9822 7.2542 32.8413C7.35657 32.6982 7.43391 32.5231 7.48623 32.3161C7.54082 32.1092 7.56812 31.8713 7.56812 31.6027Z" fill="#6C829D"/>
<path d="M10.5264 32.7951L11.516 29.0661H12.0346L11.9766 30.0272L10.9188 33.8751H10.3797L10.5264 32.7951ZM9.78601 29.0661L10.5879 32.7653L10.6595 33.8751H10.0863L8.93639 29.0661H9.78601ZM13.1572 32.7554L13.9488 29.0661H14.8019L13.652 33.8751H13.0787L13.1572 32.7554ZM12.2359 29.0661L13.2152 32.805L13.3585 33.8751H12.8194L11.7787 30.0272L11.7241 29.0661H12.2359Z" fill="#6C829D"/>
<path d="M18.6883 33.2178V33.8751H16.0507V33.2178H18.6883ZM16.293 29.0661V33.8751H15.4365V29.0661H16.293ZM18.3437 31.0742V31.7216H16.0507V31.0742H18.3437ZM18.6712 29.0661V29.7266H16.0507V29.0661H18.6712Z" fill="#6C829D"/>
<path d="M19.3878 29.0661H21.145C21.5226 29.0661 21.8445 29.1211 22.1107 29.2312C22.3768 29.3413 22.5804 29.5042 22.7214 29.72C22.8647 29.9336 22.9364 30.1979 22.9364 30.5127C22.9364 30.7528 22.8909 30.9641 22.7999 31.1469C22.7089 31.3297 22.5804 31.4838 22.4143 31.6093C22.2483 31.7326 22.0504 31.8284 21.8206 31.8967L21.5613 32.0189H19.9815L19.9747 31.3616H21.1587C21.3634 31.3616 21.534 31.3264 21.6705 31.2559C21.807 31.1854 21.9093 31.0897 21.9776 30.9685C22.0481 30.8452 22.0834 30.7065 22.0834 30.5524C22.0834 30.385 22.0492 30.2397 21.981 30.1164C21.915 29.9909 21.8127 29.8951 21.6739 29.829C21.5351 29.7608 21.3588 29.7266 21.145 29.7266H20.2442V33.8751H19.3878V29.0661ZM22.2233 33.8751L21.0563 31.715L21.9537 31.7117L23.1377 33.8322V33.8751H22.2233Z" fill="#6C829D"/>
<path d="M27.0412 33.2178V33.8751H24.4036V33.2178H27.0412ZM24.6459 29.0661V33.8751H23.7894V29.0661H24.6459ZM26.6966 31.0742V31.7216H24.4036V31.0742H26.6966ZM27.0241 29.0661V29.7266H24.4036V29.0661H27.0241Z" fill="#6C829D"/>
<path d="M29.184 33.8751H28.1228L28.1297 33.2178H29.184C29.4911 33.2178 29.7482 33.1529 29.9552 33.023C30.1644 32.893 30.3214 32.707 30.426 32.4648C30.5329 32.2226 30.5864 31.9341 30.5864 31.5994V31.3385C30.5864 31.0786 30.5557 30.8485 30.4943 30.6482C30.4351 30.4478 30.3464 30.2793 30.2281 30.1428C30.1121 30.0063 29.9688 29.9028 29.7982 29.8323C29.6299 29.7619 29.4354 29.7266 29.2147 29.7266H28.1024V29.0661H29.2147C29.5446 29.0661 29.846 29.12 30.1189 29.2279C30.3919 29.3336 30.6273 29.4866 30.8253 29.687C31.0254 29.8874 31.179 30.1274 31.2859 30.407C31.3928 30.6867 31.4463 30.9994 31.4463 31.3451V31.5994C31.4463 31.9451 31.3928 32.2578 31.2859 32.5374C31.179 32.8171 31.0254 33.0571 30.8253 33.2575C30.6251 33.4556 30.3862 33.6087 30.1087 33.7166C29.8335 33.8223 29.5252 33.8751 29.184 33.8751ZM28.5971 29.0661V33.8751H27.7407V29.0661H28.5971Z" fill="#6C829D"/>
<path d="M35.9093 31.7018H34.6434L34.6366 31.0974H35.7421C35.9287 31.0974 36.0868 31.0709 36.2164 31.0181C36.3484 30.963 36.4485 30.8849 36.5167 30.7836C36.5849 30.6801 36.6191 30.5557 36.6191 30.4103C36.6191 30.2496 36.5872 30.1186 36.5235 30.0173C36.4598 29.916 36.362 29.8422 36.2301 29.796C36.1004 29.7498 35.9344 29.7266 35.7319 29.7266H34.9028V33.8751H34.0463V29.0661H35.7319C36.0049 29.0661 36.2483 29.0914 36.4621 29.142C36.6782 29.1927 36.8613 29.2719 37.0115 29.3798C37.1639 29.4855 37.2787 29.6198 37.3561 29.7828C37.4357 29.9457 37.4755 30.1395 37.4755 30.3641C37.4755 30.5623 37.4266 30.7439 37.3288 30.9091C37.231 31.072 37.0865 31.2053 36.8954 31.3087C36.7044 31.4122 36.4667 31.4739 36.1823 31.4937L35.9093 31.7018ZM35.8718 33.8751H34.3739L34.7594 33.2178H35.8718C36.0652 33.2178 36.2267 33.187 36.3563 33.1254C36.486 33.0615 36.5827 32.9745 36.6464 32.8644C36.7123 32.7521 36.7453 32.6211 36.7453 32.4714C36.7453 32.315 36.7169 32.1796 36.66 32.0651C36.6031 31.9484 36.5133 31.8592 36.3904 31.7976C36.2676 31.7337 36.1072 31.7018 35.9093 31.7018H34.9471L34.9539 31.0974H36.2062L36.4007 31.3253C36.6737 31.3341 36.8977 31.3924 37.0729 31.5003C37.2503 31.6082 37.3822 31.748 37.4687 31.9198C37.5551 32.0915 37.5983 32.2765 37.5983 32.4747C37.5983 32.7807 37.529 33.0373 37.3902 33.2443C37.2537 33.4512 37.0569 33.6087 36.7999 33.7166C36.5429 33.8223 36.2335 33.8751 35.8718 33.8751Z" fill="#6C829D"/>
<path d="M38.7448 29.0661L39.8981 31.3616L41.0514 29.0661H42L40.3281 32.1048V33.8751H39.4648V32.1048L37.7928 29.0661H38.7448Z" fill="#6C829D"/>
<g clip-path="url(#clip1_470_2865)">
<path d="M108.273 29.0324H110.741L107.206 33.3826L108.273 29.0324ZM107.132 33.6775L109.323 33.6591L113.908 28.0186H106.174L104.223 35.9633H106.579L107.132 33.6775Z" fill="white"/>
<path d="M102.013 32.2582L105.474 28.0186H97.7224L95.7891 35.9633H98.1643L99.8583 29.0324H102.289L99.6741 32.2398L101.074 35.9633H103.449L102.013 32.2582Z" fill="white"/>
<path d="M133 28.0186H130.625L127.402 31.6499L128.323 28.0186H125.948L123.996 35.9633H126.353L127.218 32.4978L129.244 35.9633H131.601L129.354 32.0739L133 28.0186Z" fill="white"/>
<path d="M82.5124 33.659L83.7093 29.0323H86.9131V29.0691L82.5124 33.659ZM88.607 28L81.6102 28.0184L79.5664 35.9631H82.6966L89.2699 29.106L88.607 28Z" fill="white"/>
<path d="M75.646 34.0462L74.6885 28.0186H71.7241L69.7539 35.9633H72.1107L73.4733 30.4886L74.2098 35.9633H77.5057L79.4758 28.0186H77.1006L75.646 34.0462Z" fill="white"/>
<path d="M57.454 31.5577H55.1893L56.0915 28.0186H53.7163L51.7461 35.9633H54.1213L54.8578 32.9218H57.1226L56.3677 35.9633H58.7245L60.7131 28.0186H58.3563L57.454 31.5577Z" fill="white"/>
<path d="M52.8863 28.0186H46.2578L46 28.8665H48.3016L46.5708 35.9633H48.9276L50.6768 28.8665H52.6286L52.8863 28.0186Z" fill="white"/>
<path d="M121.178 29.1983H124.087L124.363 28.0186H119.116L117.164 35.9633H122.43L122.688 34.9494H119.779L121.178 29.1983Z" fill="white"/>
<path d="M65.5909 34.5992H63.5655L65.2043 28.0186H62.829L61.1719 34.7282L61.89 35.9264L61.9636 35.9633H67.5979V35.9264L69.6049 28.0186H67.2297L65.5909 34.5992Z" fill="white"/>
<path d="M116.979 28.0184H114.586V28C113.904 30.6359 112.652 35.9631 112.652 35.9631H115.009L116.979 28.0184Z" fill="white"/>
<path d="M84.1886 40.0001L94.3892 35.7052L94.7023 34.4333H91.7746L95.1626 32.59L95.3467 31.8711H91.1854L96.3042 28.0186H93.2292L87.1899 33.1245L87.3003 33.3273L91.1302 33.3089L86.6191 35.7421L86.7111 35.908L90.541 35.9264L84.0781 39.7974L84.1886 40.0001Z" fill="#16BDF9"/>
</g>
<defs>
<linearGradient id="paint0_linear_470_2865" x1="79.8319" y1="32.8358" x2="114.641" y2="32.7358" gradientUnits="userSpaceOnUse">
<stop stop-color="#60F5FF"/>
<stop offset="1" stop-color="#6DF6FF" stop-opacity="0"/>
</linearGradient>
<clipPath id="clip0_470_2865">
<rect width="56" height="24" fill="white"/>
</clipPath>
<clipPath id="clip1_470_2865">
<rect width="87" height="12" fill="white" transform="translate(46 28)"/>
</clipPath>
</defs>
</svg>
