<svg width="107" height="35" viewBox="0 0 107 35" fill="none" xmlns="http://www.w3.org/2000/svg">
<g clip-path="url(#clip0_494_4734)">
<path d="M34.9653 21.7174C32.6407 31.0915 23.1567 36.806 13.7822 34.4813C4.40803 32.157 -1.3064 22.6727 1.01825 13.2986C3.3429 3.92403 12.8268 -1.7908 22.201 0.533848C22.2167 0.537782 22.2328 0.541717 22.2486 0.546045C31.5979 2.89234 37.286 12.3613 34.9653 21.7174Z" fill="#F7931A"/>
<path d="M21.9584 14.9626C21.4119 17.1487 18.0784 16.0281 16.9963 15.7606L17.9525 11.9352C19.018 12.1977 22.505 12.7001 21.9419 14.9626H21.9584ZM21.3627 21.1441C20.7725 23.5262 16.7614 22.2372 15.4606 21.9141L16.5151 17.6898C17.8159 18.0175 21.9801 18.6569 21.3627 21.1441ZM25.7346 14.9957C26.0789 12.6675 24.3083 11.4162 21.9092 10.5856L22.6962 7.43228L20.7564 6.95145L19.9914 10.0229C19.4886 9.8974 18.9696 9.77699 18.4557 9.6621L19.2206 6.55797L17.3024 6.07715L16.5155 9.23046L15.2914 8.95739L12.6409 8.29595L12.1326 10.3456C12.1326 10.3456 13.5534 10.6733 13.5263 10.6954C14.0689 10.7611 14.4647 11.2431 14.4226 11.7884L13.5263 15.3789C13.5935 15.3942 13.6596 15.4159 13.723 15.4446L13.5207 15.3899L12.2691 20.4232C12.1518 20.7915 11.7584 20.9942 11.3897 20.8769H11.3893C11.3893 20.9041 9.99009 20.5326 9.99009 20.5326L9.03906 22.7188L11.5364 23.3365L12.9026 23.6918L12.1101 26.8778L14.0283 27.3586L14.8153 24.2053C15.3323 24.3474 15.8411 24.4784 16.34 24.5988L15.5641 27.7631L17.4823 28.2384L18.2747 25.058C21.5535 25.6761 24.0072 25.4294 25.0456 22.4677C25.8818 20.0849 25.002 18.7132 23.2805 17.8169C24.5373 17.5273 25.4666 16.7238 25.7342 14.9968L25.7346 14.9957Z" fill="white"/>
<path d="M50.0028 23.4997C50.4764 23.5011 50.9424 23.3822 51.356 23.1546C51.7816 22.9307 52.156 22.6224 52.4558 22.2496C52.7681 21.8554 53.0137 21.4139 53.183 20.9421C53.3616 20.4547 53.4523 19.9404 53.4516 19.4222C53.48 18.8964 53.3662 18.3726 53.1221 17.9046C52.9042 17.5421 52.4986 17.3573 51.9108 17.3573C51.6546 17.3659 51.3999 17.4003 51.1505 17.4597C50.8409 17.5279 50.5545 17.6744 50.3193 17.8846L48.9763 23.4246L49.1918 23.4646C49.2558 23.4801 49.3213 23.4902 49.3868 23.4947C49.4709 23.5049 49.5556 23.5091 49.6403 23.5071L50.0026 23.4995L50.0028 23.4997ZM52.671 14.8398C53.2576 14.8265 53.84 14.9446 54.3738 15.1849C54.8372 15.4028 55.2445 15.7216 55.5648 16.1174C55.8929 16.5267 56.1341 16.9967 56.2744 17.4998C56.428 18.0546 56.5037 18.6273 56.4999 19.2024C56.4991 20.9916 55.7962 22.7108 54.5386 23.9999C53.9288 24.617 53.2034 25.1109 52.4025 25.4548C51.5627 25.8195 50.6543 26.0055 49.7368 25.9999H49.088C48.7353 25.9885 48.3832 25.9587 48.0338 25.9099C47.6071 25.8489 47.1842 25.7655 46.7669 25.6599C46.3294 25.5574 45.9047 25.4082 45.5 25.2149L49.0603 10.5L52.2405 10L50.9736 15.2225C51.2374 15.1048 51.5112 15.0103 51.792 14.9401C52.0814 14.8706 52.3786 14.836 52.6763 14.8376L52.6712 14.8402L52.671 14.8398Z" fill="#718DA0"/>
<path d="M60.5902 13.6751C60.215 13.6792 59.8491 13.544 59.5487 13.2909C59.2302 13.0077 59.0581 12.5649 59.0898 12.1098C59.0885 11.8258 59.1424 11.5449 59.2481 11.287C59.3493 11.0358 59.4915 10.8083 59.6679 10.6165C59.8442 10.4282 60.0483 10.2763 60.2713 10.1677C60.5032 10.0557 60.7531 9.99872 61.0053 10C61.3779 9.99872 61.7403 10.1346 62.0376 10.3868C62.3554 10.6705 62.5273 11.113 62.4964 11.5679C62.4984 11.8526 62.4452 12.1343 62.3405 12.3931C62.2393 12.643 62.0977 12.8694 61.923 13.061C61.7472 13.25 61.5431 13.4019 61.3196 13.5098C61.0877 13.6218 60.8378 13.678 60.5856 13.6749H60.5902V13.6751ZM59.2529 26H56.5L58.8261 15.0135H61.595L59.2527 26H59.2529Z" fill="#718DA0"/>
<path d="M64.779 12.4841L67.9182 12L67.1378 15.1323H70.5L69.8943 17.5981H66.5598L65.6694 21.3069C65.5923 21.5908 65.5446 21.8819 65.5268 22.1758C65.5084 22.4133 65.5437 22.652 65.6292 22.8742C65.713 23.0737 65.8681 23.2349 66.0645 23.326C66.3473 23.4507 66.656 23.5075 66.9651 23.4908C67.2817 23.4919 67.5976 23.4608 67.9081 23.3984C68.2206 23.3375 68.5284 23.2541 68.8286 23.1488L69.0538 25.4549C68.6228 25.6094 68.1824 25.7372 67.7354 25.8367C67.183 25.9537 66.6191 26.0082 66.0545 25.999C65.1213 25.999 64.4009 25.8592 63.8856 25.5846C63.4037 25.3401 63.0175 24.9411 62.7901 24.4515C62.568 23.9319 62.4711 23.3677 62.5075 22.8042C62.5411 22.1431 62.6357 21.4864 62.7901 20.8424L64.7788 12.474V12.4841H64.779Z" fill="#718DA0"/>
<path d="M70.5074 21.5516C70.5013 20.6855 70.6467 19.8247 70.9371 19.0102C71.2095 18.2399 71.6279 17.5314 72.1683 16.9246C72.7132 16.3227 73.3758 15.8436 74.114 15.5175C74.9192 15.1645 75.7888 14.9883 76.6657 15.0006C77.1951 14.9943 77.7236 15.0509 78.2398 15.1695C78.6738 15.2739 79.096 15.4234 79.5 15.6156L78.4934 17.912C78.2327 17.8042 77.9622 17.7114 77.6822 17.6253C77.3483 17.5309 77.0026 17.4871 76.6561 17.4954C75.7808 17.4633 74.9388 17.839 74.3699 18.515C73.805 19.1896 73.5215 20.0965 73.5201 21.2355C73.4935 21.8133 73.6437 22.385 73.9498 22.8729C74.236 23.2895 74.7643 23.4976 75.5334 23.4976C75.9021 23.4979 76.2696 23.4577 76.6295 23.3776C76.9506 23.3081 77.2652 23.2089 77.5687 23.081L77.7835 25.4438C77.3886 25.5955 76.9857 25.7249 76.5765 25.8308C76.057 25.9497 75.5254 26.0058 74.9929 25.9977C74.2859 26.0185 73.5823 25.8976 72.9214 25.6421C72.3962 25.4272 71.9232 25.0986 71.5357 24.6792C71.1681 24.2726 70.8964 23.7863 70.7416 23.2574C70.5777 22.7009 70.4963 22.1226 70.5001 21.5419L70.5074 21.5517V21.5516Z" fill="#718DA0"/>
<path d="M85.6618 17.4958C85.2046 17.49 84.7577 17.6219 84.3917 17.8711C84.0207 18.1318 83.7094 18.4563 83.4758 18.8255C83.2188 19.2185 83.0258 19.6435 82.903 20.0868C82.7841 20.5118 82.7223 20.9481 82.7194 21.3867C82.6902 21.922 82.8102 22.4551 83.068 22.9371C83.3032 23.3075 83.7246 23.4941 84.338 23.4941C84.796 23.5011 85.2435 23.3681 85.6081 23.1162C85.9799 22.8555 86.2917 22.5311 86.5267 22.1623C86.78 21.7687 86.9684 21.3439 87.0863 20.9009C87.2038 20.4751 87.2656 20.0377 87.2697 19.5982C87.3001 19.0632 87.1797 18.5296 86.9211 18.0478C86.6861 17.6798 86.2618 17.4933 85.6511 17.4933L85.662 17.4958H85.6618ZM84.0406 25.9987C83.352 26.0132 82.6674 25.9047 82.0248 25.6797C81.4842 25.4861 81.0013 25.1806 80.6143 24.7867C80.2338 24.3899 79.9472 23.9266 79.7713 23.4252C79.5803 22.863 79.4888 22.2765 79.5011 21.6883C79.5032 20.8783 79.6462 20.0734 79.9256 19.3038C80.1966 18.5293 80.6198 17.8056 81.1736 17.1671C81.7301 16.5287 82.4221 15.9981 83.2083 15.6069C84.0546 15.1937 85.0036 14.9849 85.9645 15.0008C86.6489 14.9895 87.3298 15.098 87.9695 15.3198C88.5108 15.5103 88.9964 15.8118 89.388 16.2005C89.7662 16.5983 90.0522 17.0614 90.2285 17.562C90.4209 18.1248 90.5121 18.7121 90.4987 19.3013C90.496 20.1107 90.3565 20.915 90.0853 21.6859C89.8189 22.4615 89.4036 23.188 88.8584 23.8325C88.3102 24.4735 87.6209 25.0041 86.8345 25.3904C85.9752 25.8057 85.0139 26.0151 84.0406 25.9987Z" fill="#718DA0"/>
<path d="M95.2708 13.6751C94.8336 13.6796 94.407 13.5444 94.0581 13.2909C93.6862 13.0078 93.4854 12.5649 93.5226 12.1098C93.521 11.8259 93.5839 11.545 93.7071 11.287C93.8219 11.0371 93.9833 10.81 94.1836 10.6165C94.3906 10.4288 94.6296 10.2769 94.8905 10.1677C95.1603 10.056 95.451 9.99896 95.7448 10.0001C96.1828 9.99636 96.6105 10.1327 96.9604 10.3869C97.3313 10.6706 97.5317 11.1131 97.4959 11.568C97.4965 11.853 97.4325 12.1347 97.3081 12.3932C97.1921 12.6433 97.0275 12.87 96.8237 13.0611C96.6186 13.2501 96.3804 13.402 96.1195 13.5099C95.8512 13.6207 95.5624 13.677 95.2706 13.6749L95.2708 13.6751ZM93.7128 26H90.5L93.2095 15.0135H96.4438L93.7128 26Z" fill="#718DA0"/>
<path d="M98.0571 15.7441C98.2943 15.6785 98.5576 15.5977 98.8391 15.5097C99.1206 15.4214 99.449 15.3406 99.811 15.2575C100.208 15.1759 100.609 15.1146 101.013 15.0734C101.514 15.0221 102.018 14.9976 102.522 15.0002C104.169 15.0002 105.306 15.4632 105.931 16.3897C106.306 16.9446 106.495 17.6214 106.5 18.4205V18.4781C106.497 18.9977 106.417 19.5684 106.26 20.1899L104.824 25.9898H101.685L103.08 20.3106C103.163 19.9578 103.231 19.6149 103.281 19.2795C103.335 18.9892 103.335 18.692 103.281 18.402C103.229 18.1596 103.09 17.9428 102.89 17.7892C102.612 17.6127 102.281 17.5303 101.949 17.5546C101.531 17.5554 101.114 17.5968 100.705 17.6783L98.6567 26H95.5L98.0571 15.7441Z" fill="#718DA0"/>
</g>
<defs>
<clipPath id="clip0_494_4734">
<rect width="106" height="35" fill="white" transform="translate(0.5)"/>
</clipPath>
</defs>
</svg>
