<svg width="37" height="37" viewBox="0 0 37 37" fill="none" xmlns="http://www.w3.org/2000/svg">
<path d="M36.4517 22.9524C33.9931 32.8667 23.9625 38.9105 14.0477 36.4519C4.13327 33.9937 -1.91051 23.9628 0.548117 14.0484C3.00675 4.13364 13.0373 -1.91053 22.9517 0.548087C22.9683 0.552249 22.9854 0.55641 23.0021 0.560988C32.8903 3.04249 38.9062 13.0572 36.4517 22.9524Z" fill="#F7931A"/>
<path d="M22.8931 15.6227C22.3054 17.9902 18.7206 16.7766 17.557 16.4868L18.5852 12.3441C19.731 12.6283 23.4808 13.1725 22.8753 15.6227H22.8931ZM22.2525 22.317C21.6178 24.8968 17.3044 23.5008 15.9055 23.151L17.0395 18.5761C18.4384 18.9311 22.9164 19.6235 22.2525 22.317ZM26.9539 15.6585C27.3241 13.1371 25.42 11.782 22.8402 10.8825L23.6865 7.46756L21.6004 6.94684L20.7779 10.2731C20.2371 10.1372 19.679 10.0068 19.1264 9.88239L19.949 6.52072L17.8862 6L17.0399 9.41494L15.7236 9.11921L12.8733 8.4029L12.3267 10.6226C12.3267 10.6226 13.8546 10.9775 13.8254 11.0014C14.4089 11.0725 14.8346 11.5945 14.7893 12.1851L13.8254 16.0735C13.8977 16.0901 13.9688 16.1136 14.037 16.1447L13.8195 16.0854L12.4735 21.5364C12.3474 21.9352 11.9243 22.1547 11.5278 22.0277H11.5274C11.5274 22.0571 10.0227 21.6548 10.0227 21.6548L9 24.0224L11.6856 24.6914L13.1547 25.0762L12.3025 28.5265L14.3653 29.0472L15.2116 25.6323C15.7676 25.7861 16.3147 25.928 16.8512 26.0584L16.0168 29.4852L18.0796 30L18.9317 26.5557C22.4577 27.2251 25.0963 26.9579 26.213 23.7505C27.1121 21.1699 26.166 19.6845 24.3148 18.7138C25.6663 18.4001 26.6657 17.53 26.9535 15.6597L26.9539 15.6585Z" fill="white"/>
</svg>
