<svg width="37" height="37" viewBox="0 0 37 37" fill="none" xmlns="http://www.w3.org/2000/svg">
<g clip-path="url(#clip0_494_2346)">
<path d="M18.5 37C28.7173 37 37 28.7173 37 18.5C37 8.28273 28.7173 0 18.5 0C8.28273 0 0 8.28273 0 18.5C0 28.7173 8.28273 37 18.5 37Z" fill="#0AC18E"/>
<path d="M24.271 12.2882C23.3413 10.1799 21.2049 9.72918 18.5896 10.1659L17.7491 6.90723L15.7676 7.41903L16.594 10.6683C16.0728 10.7997 15.5375 10.9124 15.007 11.0627L14.1806 7.83223L12.1991 8.34403L13.0396 11.6027C12.6123 11.7247 9.03906 12.6403 9.03906 12.6403L9.58373 14.7627C9.58373 14.7627 11.0393 14.3542 11.0252 14.387C11.8328 14.1758 12.2132 14.5796 12.3916 14.9599L14.7018 23.8906C14.7299 24.1489 14.683 24.5902 14.1289 24.7405C14.1618 24.7593 12.6874 25.1114 12.6874 25.1114L12.9034 27.5859C12.9034 27.5859 16.4438 26.6797 16.9086 26.5623L17.7585 29.8585L19.74 29.3467L18.8901 26.027C19.4347 25.9002 19.9653 25.7688 20.4818 25.6326L21.327 28.9335L23.3085 28.4217L22.4586 25.1302C25.5106 24.3883 27.6658 22.4632 27.2245 19.5192C26.9427 17.7443 25.0035 16.2887 23.393 16.1244C24.3837 15.2463 24.8861 13.9645 24.271 12.2882ZM23.3179 20.0591C23.7123 22.975 19.6601 23.3318 18.3219 23.684L17.1575 19.3219C18.5004 18.9698 22.6511 17.4907 23.3179 20.0591ZM20.8762 14.1194C21.2941 16.7113 17.8289 17.0118 16.7114 17.2982L15.6502 13.34C16.7724 13.0629 20.0264 11.72 20.8762 14.1194Z" fill="white"/>
</g>
<defs>
<clipPath id="clip0_494_2346">
<rect width="37" height="37" fill="white"/>
</clipPath>
</defs>
</svg>
