<svg width="140" height="35" viewBox="0 0 140 35" fill="none" xmlns="http://www.w3.org/2000/svg">
<g clip-path="url(#clip0_494_4745)">
<circle cx="17.9492" cy="17.5" r="17.5" fill="white"/>
<path opacity="0.6" d="M17.9441 13.5L9.44922 17.409L17.9441 22.5L26.4492 17.409L17.9441 13.5Z" fill="black"/>
<path opacity="0.45" d="M9.44922 17.5086L18.4492 22.5V3.5L9.44922 17.5086Z" fill="black"/>
<path opacity="0.8" d="M18.4492 3.5V22.5L26.4492 17.5086L18.4492 3.5Z" fill="black"/>
<path opacity="0.45" d="M9.44922 19.5L18.4492 31.5V24.5256L9.44922 19.5Z" fill="black"/>
<path opacity="0.8" d="M18.4492 24.5256V31.5L26.4492 19.5L18.4492 24.5256Z" fill="black"/>
<path d="M48.6118 21.6534C48.6103 21.7411 48.5742 21.8247 48.5113 21.8859C48.4483 21.947 48.3638 21.9808 48.276 21.9798H42.0927C42.2513 23.5093 43.3984 24.9083 45.0212 24.9083C46.131 24.9083 46.9517 24.4886 47.5672 23.6026C47.5959 23.556 47.6355 23.5172 47.6827 23.4896C47.7299 23.462 47.7831 23.4463 47.8377 23.444C47.8784 23.4429 47.919 23.4501 47.9568 23.4651C47.9947 23.4802 48.0291 23.5028 48.0579 23.5316C48.0867 23.5604 48.1093 23.5948 48.1244 23.6327C48.1395 23.6705 48.1466 23.7111 48.1455 23.7518C48.1457 23.8081 48.1295 23.8632 48.0988 23.9104C47.474 24.9922 46.2336 25.5238 45.0212 25.5238C42.9414 25.5238 41.4492 23.6585 41.4492 21.6721C41.4492 19.6856 42.9321 17.8203 45.0212 17.8203C47.1103 17.8203 48.6025 19.6669 48.6118 21.6534ZM47.9496 21.3643C47.819 19.8348 46.6439 18.4358 45.0212 18.4358C43.3984 18.4358 42.2513 19.8348 42.0927 21.3643H47.9496Z" fill="#55677E"/>
<path d="M56.1275 17.97C56.2084 17.9723 56.2853 18.0055 56.3425 18.0627C56.3997 18.1199 56.4329 18.1968 56.4353 18.2777C56.4364 18.3185 56.4293 18.359 56.4142 18.3969C56.3991 18.4347 56.3765 18.4691 56.3477 18.4979C56.3189 18.5267 56.2845 18.5494 56.2466 18.5644C56.2088 18.5795 56.1682 18.5867 56.1275 18.5855H54.4674V25.1045C54.4667 25.1859 54.434 25.2638 54.3765 25.3214C54.3189 25.3789 54.2411 25.4116 54.1597 25.4123C54.0788 25.41 54.0019 25.3768 53.9446 25.3196C53.8874 25.2624 53.8542 25.1854 53.8519 25.1045V18.5855H52.2571C52.2164 18.5867 52.1758 18.5795 52.138 18.5644C52.1001 18.5494 52.0657 18.5267 52.0369 18.4979C52.0081 18.4691 51.9855 18.4347 51.9704 18.3969C51.9554 18.359 51.9482 18.3185 51.9493 18.2777C51.9501 18.1963 51.9827 18.1185 52.0403 18.0609C52.0978 18.0034 52.1757 17.9707 52.2571 17.97H53.8519V15.5918C53.8521 15.513 53.8803 15.4368 53.9316 15.377C53.9829 15.3171 54.0538 15.2776 54.1317 15.2654C54.1752 15.2596 54.2195 15.2633 54.2614 15.2761C54.3034 15.289 54.3421 15.3108 54.3748 15.3401C54.4076 15.3693 54.4337 15.4052 54.4512 15.4455C54.4688 15.4857 54.4775 15.5292 54.4768 15.5731V17.97H56.1275Z" fill="#55677E"/>
<path d="M66.2472 21.1222V25.0672C66.2449 25.148 66.2117 25.225 66.1545 25.2822C66.0973 25.3394 66.0203 25.3726 65.9395 25.3749C65.8987 25.3761 65.8582 25.3689 65.8203 25.3539C65.7825 25.3388 65.7481 25.3162 65.7192 25.2874C65.6904 25.2585 65.6678 25.2242 65.6528 25.1863C65.6377 25.1484 65.6305 25.1079 65.6317 25.0672V21.1222C65.6317 19.7885 64.8763 18.4642 63.3934 18.4642C61.4908 18.4642 60.6701 20.1242 60.782 21.8309C60.782 21.8776 60.8007 22.0734 60.8007 22.1014V25.0578C60.8005 25.1366 60.7723 25.2128 60.721 25.2726C60.6697 25.3325 60.5988 25.372 60.5209 25.3842C60.4774 25.39 60.4331 25.3863 60.3912 25.3734C60.3492 25.3606 60.3105 25.3388 60.2778 25.3095C60.245 25.2803 60.2189 25.2444 60.2013 25.2041C60.1837 25.1639 60.175 25.1204 60.1758 25.0765V12.1037C60.1766 12.0223 60.2092 11.9444 60.2668 11.8868C60.3243 11.8293 60.4022 11.7966 60.4836 11.7959C60.5645 11.7982 60.6414 11.8314 60.6986 11.8886C60.7558 11.9459 60.789 12.0228 60.7914 12.1037V19.4341C61.323 18.4828 62.2742 17.8393 63.3841 17.8393C65.212 17.8393 66.2472 19.4341 66.2472 21.1222Z" fill="#55677E"/>
<path d="M77.354 21.6534C77.3525 21.7411 77.3164 21.8247 77.2534 21.8859C77.1905 21.947 77.106 21.9808 77.0182 21.9798H70.8349C70.9935 23.5093 72.1406 24.9083 73.7634 24.9083C74.8732 24.9083 75.6939 24.4886 76.3094 23.6026C76.3381 23.556 76.3777 23.5172 76.4249 23.4896C76.4721 23.462 76.5253 23.4463 76.5799 23.444C76.6206 23.4429 76.6612 23.4501 76.699 23.4651C76.7369 23.4802 76.7713 23.5028 76.8001 23.5316C76.8289 23.5604 76.8515 23.5948 76.8666 23.6327C76.8816 23.6705 76.8888 23.7111 76.8877 23.7518C76.8879 23.8081 76.8717 23.8632 76.841 23.9104C76.2162 24.9922 74.9758 25.5238 73.7634 25.5238C71.6836 25.5238 70.1914 23.6585 70.1914 21.6721C70.1914 19.6856 71.6743 17.8203 73.7634 17.8203C75.8338 17.8203 77.3446 19.6669 77.354 21.6534ZM76.6825 21.3643C76.5519 19.8348 75.3768 18.4358 73.754 18.4358C72.1313 18.4358 70.9841 19.8348 70.8256 21.3643H76.6825Z" fill="#55677E"/>
<path d="M84.9557 18.2588C84.9616 18.3416 84.9345 18.4234 84.8804 18.4863C84.8262 18.5492 84.7493 18.5881 84.6666 18.5946C82.848 18.865 82.0273 20.3479 82.0273 22.0733V25.0297C82.0271 25.1085 81.9988 25.1847 81.9475 25.2445C81.8963 25.3043 81.8253 25.3439 81.7475 25.3561C81.7039 25.3619 81.6597 25.3582 81.6177 25.3453C81.5758 25.3324 81.5371 25.3106 81.5043 25.2814C81.4716 25.2522 81.4455 25.2162 81.4279 25.176C81.4103 25.1358 81.4016 25.0922 81.4024 25.0484V18.3055C81.4026 18.2267 81.4308 18.1505 81.4821 18.0907C81.5334 18.0308 81.6043 17.9913 81.6822 17.9791C81.7257 17.9733 81.7699 17.977 81.8119 17.9899C81.8539 18.0027 81.8926 18.0246 81.9253 18.0538C81.9581 18.083 81.9842 18.1189 82.0017 18.1592C82.0193 18.1994 82.028 18.2429 82.0273 18.2868V19.6578C82.5402 18.7904 83.5568 17.9697 84.6199 17.9697C84.7785 17.9697 84.9557 18.0816 84.9557 18.2588Z" fill="#55677E"/>
<path d="M95.1235 21.6534C95.122 21.7411 95.0859 21.8247 95.023 21.8859C94.9601 21.947 94.8755 21.9808 94.7878 21.9798H88.6045C88.763 23.5093 89.9101 24.9083 91.5329 24.9083C92.6427 24.9083 93.4634 24.4886 94.079 23.6026C94.1076 23.556 94.1473 23.5172 94.1944 23.4896C94.2416 23.462 94.2948 23.4463 94.3494 23.444C94.3902 23.4429 94.4307 23.4501 94.4686 23.4651C94.5064 23.4802 94.5408 23.5028 94.5696 23.5316C94.5984 23.5604 94.6211 23.5948 94.6361 23.6327C94.6512 23.6705 94.6583 23.7111 94.6572 23.7518C94.6574 23.8081 94.6412 23.8632 94.6106 23.9104C93.9857 24.9922 92.7453 25.5238 91.5329 25.5238C89.4531 25.5238 87.9609 23.6585 87.9609 21.6721C87.9609 19.6856 89.4438 17.8203 91.5329 17.8203C93.622 17.8203 95.1142 19.6669 95.1235 21.6534ZM94.4613 21.3643C94.3308 19.8348 93.1557 18.4358 91.5329 18.4358C89.9101 18.4358 88.763 19.8348 88.6045 21.3643H94.4613Z" fill="#55677E"/>
<path d="M105.118 18.3336V25.1045C105.115 25.1853 105.082 25.2623 105.025 25.3195C104.968 25.3767 104.891 25.4099 104.81 25.4122C104.769 25.4134 104.729 25.4062 104.691 25.3912C104.653 25.3761 104.618 25.3535 104.59 25.3247C104.561 25.2958 104.538 25.2615 104.523 25.2236C104.508 25.1857 104.501 25.1452 104.502 25.1045V23.8174C103.989 24.834 103.085 25.5708 101.928 25.5708C100.091 25.5708 99.0742 23.976 99.0742 22.2879V18.3243C99.0749 18.2429 99.1076 18.165 99.1652 18.1075C99.2227 18.0499 99.3006 18.0172 99.382 18.0165C99.4629 18.0189 99.5398 18.052 99.597 18.1092C99.6542 18.1665 99.6874 18.2434 99.6898 18.3243V22.2879C99.6898 23.6216 100.445 24.9459 101.928 24.9459C104.008 24.9459 104.502 22.9967 104.502 20.8424V18.3149C104.503 18.2651 104.515 18.216 104.539 18.172C104.562 18.128 104.596 18.0903 104.637 18.062C104.678 18.0337 104.726 18.0156 104.775 18.0093C104.825 18.003 104.875 18.0087 104.922 18.0258C104.98 18.0531 105.03 18.0965 105.065 18.1511C105.099 18.2056 105.118 18.269 105.118 18.3336Z" fill="#55677E"/>
<path d="M120.777 21.0937V25.0574C120.774 25.1383 120.741 25.2152 120.684 25.2724C120.627 25.3296 120.55 25.3628 120.469 25.3652C120.428 25.3663 120.388 25.3591 120.35 25.3441C120.312 25.329 120.278 25.3064 120.249 25.2776C120.22 25.2488 120.197 25.2144 120.182 25.1765C120.167 25.1387 120.16 25.0981 120.161 25.0574V21.0937C120.161 19.7601 119.406 18.4544 117.923 18.4544C116.058 18.4544 115.349 20.4502 115.349 21.9984V25.0574C115.346 25.1383 115.313 25.2152 115.256 25.2724C115.199 25.3296 115.122 25.3628 115.041 25.3652C115 25.3663 114.96 25.3591 114.922 25.3441C114.884 25.329 114.85 25.3064 114.821 25.2776C114.792 25.2488 114.769 25.2144 114.754 25.1765C114.739 25.1387 114.732 25.0981 114.733 25.0574V21.0937C114.733 19.7601 113.978 18.4544 112.495 18.4544C110.611 18.4544 109.837 19.9373 109.902 21.9144C109.902 21.9611 109.921 22.045 109.902 22.073V25.0481C109.902 25.1269 109.874 25.203 109.823 25.2629C109.771 25.3227 109.7 25.3623 109.622 25.3745C109.579 25.3803 109.535 25.3766 109.493 25.3637C109.451 25.3508 109.412 25.329 109.379 25.2998C109.347 25.2705 109.32 25.2346 109.303 25.1944C109.285 25.1541 109.277 25.1106 109.277 25.0667V18.3052C109.278 18.2264 109.306 18.1502 109.357 18.0904C109.408 18.0305 109.479 17.991 109.557 17.9788C109.601 17.973 109.645 17.9767 109.687 17.9896C109.729 18.0025 109.768 18.0243 109.8 18.0535C109.833 18.0827 109.859 18.1186 109.877 18.1589C109.894 18.1991 109.903 18.2426 109.902 18.2865V19.415C110.434 18.4637 111.385 17.8389 112.495 17.8389C113.754 17.8389 114.733 18.6409 115.134 19.8067C115.647 18.6503 116.645 17.8389 117.923 17.8389C119.741 17.8389 120.777 19.415 120.777 21.0937Z" fill="#55677E"/>
</g>
<defs>
<clipPath id="clip0_494_4745">
<rect width="139.69" height="35" fill="white" transform="translate(0.148438)"/>
</clipPath>
</defs>
</svg>
