<svg width="107" height="31" viewBox="0 0 107 31" fill="none" xmlns="http://www.w3.org/2000/svg">
<g clip-path="url(#clip0_494_4763)">
<path d="M15.4932 0.585938C7.25221 0.585938 0.570312 7.26783 0.570312 15.5088C0.570312 23.7498 7.25221 30.4317 15.4932 30.4317C23.7342 30.4317 30.4161 23.7498 30.4161 15.5088C30.399 7.26783 23.7342 0.585938 15.4932 0.585938Z" fill="white"/>
<path d="M15.4932 0.585938C7.25221 0.585938 0.570312 7.26783 0.570312 15.5088C0.570312 23.7498 7.25221 30.4317 15.4932 30.4317C23.7342 30.4317 30.4161 23.7498 30.4161 15.5088C30.399 7.26783 23.7342 0.585938 15.4932 0.585938ZM15.7159 15.9886L14.174 21.2313H22.4664C22.7576 21.2313 22.9461 21.5054 22.8776 21.7795L22.158 24.2638C22.0894 24.5037 21.8667 24.675 21.6097 24.675H8.93125L11.0729 17.4277L8.70852 18.1645L9.22251 16.4512L11.604 15.7144L14.6194 5.53739C14.688 5.29753 14.9107 5.1262 15.1677 5.1262H18.3716C18.6628 5.1262 18.8513 5.40033 18.7828 5.67446L16.2299 14.2753L18.5943 13.5385L18.0803 15.269L15.7159 15.9886Z" fill="#345D9D"/>
<path d="M39.0352 5.5H38.1101C37.9387 5.5 37.8188 5.6028 37.7845 5.77413L35.3859 24.7747C35.3688 24.9632 35.4202 25.0488 35.6086 25.0488H36.5338C36.7223 25.0488 36.8251 24.9632 36.8593 24.7747L39.2751 5.77413C39.3265 5.58567 39.2237 5.5 39.0352 5.5Z" fill="#697F9A"/>
<path d="M43.8838 10.9824H42.9587C42.7873 10.9824 42.6674 11.0681 42.6331 11.2566L40.9198 24.7917C40.9027 24.9801 41.0055 25.0658 41.1768 25.0658H42.102C42.2733 25.0658 42.3933 24.9801 42.4275 24.7917L44.1237 11.2737C44.1408 11.0852 44.0723 10.9824 43.8838 10.9824Z" fill="#697F9A"/>
<path d="M84.4191 10.3682C83.1341 10.3682 82.0204 10.728 81.0781 11.4647C80.1358 12.2014 79.519 13.1609 79.2106 14.3602C78.9536 15.3368 78.7309 16.7074 78.6281 17.6326C78.491 18.8833 78.3711 19.9113 78.3711 20.905C78.3882 22.1214 78.7823 23.0809 79.519 23.8176C80.2729 24.5372 81.3008 24.9141 82.603 24.9141C83.8708 24.9141 84.9845 24.5543 85.9268 23.8176C86.8691 23.098 87.4859 22.1214 87.7943 20.905C87.9999 20.0997 88.2055 19.0204 88.3768 17.6326C88.5481 16.1934 88.6338 15.0969 88.6338 14.343C88.6338 13.1437 88.2569 12.1843 87.503 11.4647C86.732 10.728 85.704 10.3682 84.4191 10.3682ZM87.0233 16.3133C86.9376 16.9987 86.8862 17.4441 86.8691 17.6326C86.6978 19.0375 86.5436 20.0312 86.4065 20.6309C86.2009 21.5218 85.7554 22.2414 85.0873 22.7896C84.4191 23.3379 83.6309 23.5949 82.7572 23.5949C81.8662 23.5949 81.1638 23.3208 80.6327 22.7896C80.1015 22.2585 79.8445 21.5561 79.8445 20.6823C79.8445 20.2197 79.8959 19.6372 79.9816 18.9518C80.0673 18.2665 80.1187 17.821 80.1358 17.6326C80.3071 16.2962 80.4613 15.3025 80.5984 14.6343C80.804 13.7434 81.2494 13.0238 81.9176 12.4755C82.5858 11.9273 83.3739 11.6703 84.2477 11.6703C85.1387 11.6703 85.8411 11.9444 86.3722 12.4584C86.9034 12.9895 87.1604 13.692 87.1604 14.5658C87.1604 15.0626 87.109 15.628 87.0233 16.3133Z" fill="#697F9A"/>
<path d="M93.9112 10.5918H93.0031C92.8318 10.5918 92.7119 10.6946 92.6776 10.8659L90.9472 24.401C90.93 24.5895 91.0328 24.6752 91.2042 24.6752H92.1294C92.3007 24.6752 92.4206 24.5895 92.4549 24.401L94.1511 10.8831C94.1682 10.6946 94.0996 10.5918 93.9112 10.5918Z" fill="#697F9A"/>
<path d="M105.595 11.397C104.962 10.7288 104.071 10.4033 102.906 10.4033C102.152 10.4033 101.466 10.5404 100.832 10.8316C100.199 11.1229 99.6674 11.5512 99.222 12.1338C99.1363 12.2023 99.102 12.1852 99.102 12.0824L99.2391 10.883C99.2562 10.7117 99.1877 10.6089 99.0164 10.6089H98.0912C97.9199 10.6089 97.7999 10.7117 97.7657 10.883L96.0695 24.401C96.0524 24.5724 96.1038 24.6752 96.2922 24.6752H97.2174C97.3887 24.6752 97.5087 24.5724 97.5258 24.401L98.7594 14.7037C98.965 13.7957 99.3933 13.0589 100.027 12.5278C100.661 11.9967 101.415 11.7226 102.306 11.7226C103.128 11.7226 103.779 11.9796 104.259 12.4936C104.739 13.0075 104.979 13.6929 104.979 14.5667C104.979 14.8237 104.962 15.0292 104.944 15.1834L103.762 24.401C103.762 24.4867 103.762 24.5381 103.797 24.5895C103.848 24.6409 103.916 24.6752 104.019 24.6752H104.944C105.116 24.6752 105.236 24.5895 105.253 24.401L106.435 14.9607C106.469 14.5838 106.486 14.3097 106.486 14.1212C106.538 12.9561 106.229 12.0481 105.595 11.397Z" fill="#697F9A"/>
<path d="M44.4814 5.12587C43.9332 4.83461 43.2307 5.04021 42.9566 5.6056C42.6653 6.15386 42.888 6.85631 43.4363 7.14758C43.9846 7.43884 44.6699 7.21611 44.9611 6.66785C45.2524 6.10246 45.0468 5.41714 44.4814 5.12587Z" fill="#697F9A"/>
<path d="M94.5791 5.12587C94.0308 4.83461 93.3284 5.04021 93.0542 5.6056C92.763 6.15386 92.9857 6.85631 93.534 7.14758C94.0822 7.43884 94.7847 7.21611 95.0759 6.66785C95.3501 6.10246 95.1273 5.41714 94.5791 5.12587Z" fill="#697F9A"/>
<path d="M72.3566 10.3682C71.0716 10.3682 69.9579 10.7451 69.0156 11.4647C68.0733 12.2014 67.4565 13.1609 67.1481 14.3602C66.8911 15.3368 66.6513 16.8787 66.5656 17.6326C66.4457 18.7291 66.3086 19.9113 66.3086 20.905C66.3257 22.1214 66.7198 23.0809 67.4565 23.8176C68.2104 24.5372 69.2383 24.9141 70.5405 24.9141C71.8083 24.9141 72.922 24.5543 73.8643 23.8176C74.8066 23.098 75.4234 22.1214 75.7318 20.905C75.7489 20.8022 75.7832 20.6994 75.8003 20.5966C75.8174 20.5109 75.7489 20.4424 75.6804 20.4424H74.5325C74.4639 20.4424 74.3783 20.4767 74.3611 20.5795C74.3611 20.5966 74.344 20.6309 74.344 20.6309C74.1384 21.5218 73.6929 22.2414 73.0248 22.7896C72.3566 23.3379 71.5684 23.5949 70.6947 23.5949C69.8037 23.5949 69.1013 23.3208 68.5702 22.7896C68.039 22.2585 67.782 21.5561 67.782 20.6823C67.782 20.2197 67.8334 19.6372 67.9191 18.9518C67.9876 18.3693 68.0562 17.821 68.0733 17.6326C68.2446 16.2962 68.3988 15.3025 68.5359 14.6343C68.7415 13.7434 69.1869 13.0238 69.8551 12.4755C70.5233 11.9273 71.3114 11.6703 72.1852 11.6703C73.059 11.6703 73.7786 11.9273 74.3097 12.4584C74.8409 12.9895 75.0979 13.692 75.0979 14.5658V14.5829C75.0979 14.7028 75.2007 14.8056 75.3206 14.8056H76.4C76.4856 14.8056 76.5713 14.7371 76.5713 14.6343C76.5713 14.5144 76.5713 14.4116 76.5713 14.3088C76.5713 13.1095 76.1944 12.15 75.4405 11.4304C74.6695 10.728 73.6587 10.3682 72.3566 10.3682Z" fill="#697F9A"/>
<path d="M63.0562 11.4647C62.3023 10.7451 61.2744 10.3682 59.9894 10.3682C58.7044 10.3682 57.5907 10.728 56.6484 11.4647C55.7061 12.2014 55.0893 13.1609 54.7809 14.3602C54.5239 15.3368 54.404 16.2105 54.1984 17.6326C54.0099 19.0375 53.9414 19.9113 53.9414 20.905C53.9585 22.1214 54.3526 23.0809 55.0893 23.8176C55.8432 24.5372 56.8712 24.9141 58.1733 24.9141C59.4411 24.9141 60.5548 24.5543 61.4971 23.8176C62.4394 23.098 63.0562 22.1214 63.3646 20.905C63.3817 20.8022 63.416 20.6994 63.4331 20.5966C63.4503 20.5109 63.3989 20.4424 63.3132 20.4424H62.1653C62.0967 20.4424 62.0111 20.4767 61.9939 20.5795C61.9939 20.5966 61.9768 20.6309 61.9768 20.6309C61.7712 21.5218 61.3258 22.2414 60.6576 22.7896C59.9894 23.3379 59.2013 23.5949 58.3275 23.5949C57.4366 23.5949 56.7341 23.3208 56.203 22.7896C55.6718 22.2585 55.4149 21.5561 55.4149 20.6823C55.4149 20.2711 55.4491 19.7571 55.5177 19.1746L63.8443 16.5875C64.0156 16.5361 64.0842 16.4504 64.1184 16.2448C64.1698 15.8165 64.2041 15.0798 64.2041 14.3259C64.187 13.2465 63.8101 12.1843 63.0562 11.4647ZM62.7307 15.3539C62.7307 15.4396 62.6793 15.5081 62.5936 15.5252L55.689 17.6668C55.689 17.6497 55.689 17.6497 55.689 17.6326C55.8603 16.2962 56.0145 15.3025 56.1516 14.6343C56.3572 13.7434 56.8026 13.0238 57.4708 12.4755C58.139 11.9273 58.9271 11.6703 59.8009 11.6703C60.6918 11.6703 61.3943 11.9444 61.9254 12.4584C62.7649 13.3322 62.7821 14.2231 62.7307 15.3539Z" fill="#697F9A"/>
<path d="M50.7698 23.1843C50.9411 23.0986 51.1295 23.2185 51.0953 23.407L50.9754 24.3322C50.9582 24.4521 50.8726 24.5549 50.7698 24.6063C49.9474 24.9147 48.7995 25.0518 47.8743 24.6406C46.812 24.1609 46.5379 23.1157 46.6921 21.8136L47.9085 11.8936L48.0799 10.4715L48.4911 7.31905C48.5082 7.13059 48.6281 7.04492 48.8166 7.04492H49.7075C49.9131 7.04492 49.9645 7.16485 49.9302 7.31905L49.3991 11.8079H52.2946C52.4659 11.8079 52.5345 11.9107 52.5345 12.082L52.4488 12.7331C52.4317 12.8359 52.4145 12.8873 52.3631 12.9558C52.3117 13.0072 52.2089 13.0244 52.1404 13.0244H49.262L48.2512 21.1626C48.1484 22.0364 48.0285 22.8245 48.4739 23.2528C49.0564 23.7325 50.1872 23.4584 50.7698 23.1843Z" fill="#697F9A"/>
</g>
<defs>
<clipPath id="clip0_494_4763">
<rect width="106.139" height="30" fill="white" transform="translate(0.484375 0.5)"/>
</clipPath>
</defs>
</svg>
