<svg width="38" height="37" viewBox="0 0 38 37" fill="none" xmlns="http://www.w3.org/2000/svg">
<path d="M18.6992 0C8.4828 0 0.199219 8.28358 0.199219 18.5C0.199219 28.7164 8.4828 37 18.6992 37C28.9156 37 37.1992 28.7164 37.1992 18.5C37.178 8.28358 28.9156 0 18.6992 0Z" fill="white"/>
<path d="M18.6992 0C8.4828 0 0.199219 8.28358 0.199219 18.5C0.199219 28.7164 8.4828 37 18.6992 37C28.9156 37 37.1992 28.7164 37.1992 18.5C37.178 8.28358 28.9156 0 18.6992 0ZM18.9753 19.0947L17.0637 25.5941H27.3439C27.705 25.5941 27.9386 25.934 27.8536 26.2738L26.9616 29.3536C26.8766 29.651 26.6005 29.8634 26.2819 29.8634H10.5643L13.2193 20.8789L10.2882 21.7922L10.9254 19.6682L13.8777 18.7549L17.616 6.13835C17.7009 5.84099 17.9771 5.62859 18.2957 5.62859H22.2675C22.6286 5.62859 22.8623 5.96843 22.7773 6.30827L19.6125 16.9707L22.5436 16.0574L21.9065 18.2026L18.9753 19.0947Z" fill="#345D9D"/>
</svg>
