<svg width="98" height="35" viewBox="0 0 98 35" fill="none" xmlns="http://www.w3.org/2000/svg">
<g clip-path="url(#clip0_494_4778)">
<mask id="mask0_494_4778" style="mask-type:luminance" maskUnits="userSpaceOnUse" x="0" y="0" width="98" height="35">
<path d="M97.3996 0H0.773438V35H97.3996V0Z" fill="white"/>
</mask>
<g mask="url(#mask0_494_4778)">
<path d="M50.3604 25.7876H48.0039L52.9384 20.798C54.714 19.0025 57.5902 19.0025 59.3658 20.798L64.2984 25.7876H61.9416L58.1864 21.991C57.0802 20.8671 55.271 20.8533 54.1468 21.9595C54.1373 21.9693 54.1253 21.9812 54.1157 21.991L50.3604 25.7876ZM72.7781 20.3713C73.6847 20.3713 74.5442 20.7545 75.1128 21.4142L78.85 25.7422H81.1771L76.065 19.7432C75.4959 19.0755 74.6329 18.6864 73.7183 18.6864H70.1767V13.6869H75.3204C75.6839 13.6869 76.0274 13.7521 76.3534 13.8825C76.6833 14.0148 76.9696 14.1946 77.2148 14.4217L77.2188 14.4257C77.4615 14.641 77.6531 14.8997 77.7935 15.2059C77.9339 15.5081 78.0026 15.8341 78.0026 16.1857C78.0026 16.5353 77.9319 16.8612 77.7935 17.1635C77.7087 17.3393 77.6059 17.5052 77.4831 17.6573L78.6605 18.9708C78.6745 18.955 78.69 18.9392 78.7041 18.9234C79.0516 18.5481 79.3203 18.1313 79.5079 17.6691C79.7095 17.203 79.8102 16.7071 79.8102 16.1837C79.8102 15.6227 79.6954 15.0894 79.4668 14.5876C79.2396 14.076 78.9232 13.6316 78.5185 13.2543C78.1154 12.879 77.647 12.5808 77.114 12.3556C76.5865 12.1304 76.0214 12.0119 75.4172 12H69.2681C69.0194 12 68.8017 12.0929 68.6242 12.2607C68.4522 12.4208 68.3635 12.6183 68.3635 12.8435V25.7402H70.1727V20.3713H72.7781ZM85.9237 12H92.9774C93.5801 12.0119 94.1452 12.1304 94.6702 12.3556C95.2058 12.5669 95.6756 12.8613 96.0768 13.2365C96.4819 13.6138 96.7978 14.0583 97.025 14.5679C97.2541 15.0696 97.3685 15.601 97.3685 16.1619C97.3685 16.7348 97.2481 17.28 97.0054 17.7936C96.7783 18.2933 96.4538 18.7358 96.0392 19.123C95.6365 19.4982 95.1581 19.7985 94.6131 20.0217H94.6111C94.072 20.235 93.4934 20.3417 92.8766 20.3417H87.7334V25.7402H85.9237V12ZM92.8766 18.6765C93.2402 18.6765 93.5841 18.6113 93.9101 18.481C94.24 18.3506 94.5263 18.1708 94.771 17.9417C95.0162 17.7145 95.2118 17.4439 95.3497 17.1397C95.4901 16.8375 95.5593 16.5116 95.5593 16.1619C95.5593 15.8242 95.4901 15.5042 95.3497 15.2019C95.2118 14.8997 95.0142 14.6272 94.771 14.4C94.5263 14.1709 94.24 13.9931 93.9101 13.8608C93.5841 13.7304 93.2402 13.6652 92.8766 13.6652H87.7334V18.6765H92.8766ZM61.912 12H64.2688L59.3637 16.958C57.5882 18.7535 54.7119 18.7535 52.9364 16.958L48.0335 12H50.3901L54.1157 15.7669C55.2219 16.8908 57.0311 16.9047 58.1548 15.7985C58.1648 15.7886 58.1769 15.7768 58.1864 15.7669L61.912 12Z" fill="#6C819C"/>
<path d="M18.2735 35.0002C27.9385 35.0002 35.7736 27.1651 35.7736 17.5001C35.7736 7.83505 27.9385 0 18.2735 0C8.60849 0 0.773438 7.83505 0.773438 17.5001C0.773438 27.1651 8.60849 35.0002 18.2735 35.0002Z" fill="black"/>
<path d="M10.5187 26.533H7.36328L13.9681 19.9956C16.3445 17.6439 20.1974 17.6439 22.5756 19.9956L29.1804 26.533H26.0271L20.999 21.5573C19.4972 20.0772 17.0502 20.0772 15.5485 21.5573L10.5187 26.533ZM25.9845 8.46582H29.1378L22.5756 14.9632C20.1991 17.3149 16.3462 17.3149 13.9681 14.9632L7.40335 8.46582H10.5592L15.5447 13.4015C17.0464 14.8816 19.4934 14.8816 20.9951 13.4015L25.9845 8.46582Z" fill="white"/>
</g>
</g>
<defs>
<clipPath id="clip0_494_4778">
<rect width="96.6261" height="35" fill="white" transform="translate(0.773438)"/>
</clipPath>
</defs>
</svg>
