<svg width="38" height="37" viewBox="0 0 38 37" fill="none" xmlns="http://www.w3.org/2000/svg">
<path d="M18.8984 37C29.1157 37 37.3984 28.7173 37.3984 18.5C37.3984 8.28273 29.1157 0 18.8984 0C8.68117 0 0.398438 8.28273 0.398438 18.5C0.398438 28.7173 8.68117 37 18.8984 37Z" fill="black"/>
<path d="M10.7029 28.0497H7.36719L14.3494 21.1388C16.8616 18.6527 20.9347 18.6527 23.4487 21.1388L30.4309 28.0497H27.0974L21.782 22.7897C20.1945 21.2251 17.6076 21.2251 16.0201 22.7897L10.7029 28.0497ZM27.0524 8.9502H30.3858L23.4487 15.8188C20.9365 18.3049 16.8634 18.3049 14.3494 15.8188L7.40954 8.9502H10.7457L16.0161 14.1679C17.6036 15.7325 20.1904 15.7325 21.7779 14.1679L27.0524 8.9502Z" fill="white"/>
</svg>
