<svg width="20" height="21" viewBox="0 0 20 21" fill="none" xmlns="http://www.w3.org/2000/svg"><g clip-path="url(#clip0_470_1771)" fill="#6C829D"><path d="M14.168 10.292a.625.625 0 01.625-.625h1.25a.625.625 0 01.625.625v1.25a.625.625 0 01-.625.625h-1.25a.625.625 0 01-.625-.625v-1.25z"/><path d="M4.375.5A.625.625 0 015 1.125v.625h10v-.625a.625.625 0 111.25 0v.625h1.25a2.5 2.5 0 012.5 2.5V18a2.5 2.5 0 01-2.5 2.5h-15A2.5 2.5 0 010 18V4.25a2.5 2.5 0 012.5-2.5h1.25v-.625A.625.625 0 014.375.5zM2.5 3a1.25 1.25 0 00-1.25 1.25V18a1.25 1.25 0 001.25 1.25h15A1.25 1.25 0 0018.75 18V4.25A1.25 1.25 0 0017.5 3h-15z"/><path d="M3.332 5.292a.625.625 0 01.625-.625h12.5a.625.625 0 01.625.625v1.25a.625.625 0 01-.625.625h-12.5a.625.625 0 01-.625-.625v-1.25z"/></g><defs><clipPath id="clip0_470_1771"><path fill="#fff" transform="translate(0 .5)" d="M0 0h20v20H0z"/></clipPath></defs></svg>