<svg width="20" height="21" viewBox="0 0 20 21" fill="none" xmlns="http://www.w3.org/2000/svg"><path d="M18.75 18S20 18 20 16.75s-1.25-5-6.25-5-6.25 3.75-6.25 5S8.75 18 8.75 18h10zm-9.973-1.25a.32.32 0 01-.027-.005c.001-.33.209-1.288.95-2.15.69-.809 1.902-1.595 4.05-1.595 2.146 0 3.359.787 4.05 1.595.741.862.947 1.821.95 2.15l-.01.002a.335.335 0 01-.017.003H8.777zm4.973-7.5a2.5 2.5 0 100-5 2.5 2.5 0 000 5zm3.75-2.5a3.75 3.75 0 11-7.498 0 3.75 3.75 0 017.498 0zM8.67 12.1a7.34 7.34 0 00-1.537-.309 9.189 9.189 0 00-.883-.041c-5 0-6.25 3.75-6.25 5C0 17.584.416 18 1.25 18h5.27a2.797 2.797 0 01-.27-1.25c0-1.262.471-2.553 1.362-3.63A6.612 6.612 0 018.67 12.1zm-2.52.9A6.866 6.866 0 005 16.75H1.25c0-.325.205-1.287.95-2.155.681-.795 1.865-1.57 3.95-1.594V13zM1.875 7.375a3.75 3.75 0 117.5 0 3.75 3.75 0 01-7.5 0zm3.75-2.5a2.5 2.5 0 100 5 2.5 2.5 0 000-5z" fill="#6C829D"/></svg>