<svg width="21" height="21" viewBox="0 0 21 21" fill="none" xmlns="http://www.w3.org/2000/svg"><g clip-path="url(#clip0_470_1764)" fill="#6C829D"><path d="M8.988 7.283A.625.625 0 008 7.792v6.25a.625.625 0 00.988.508l4.375-3.125a.625.625 0 000-1.017L8.988 7.283z"/><path d="M.5 5.5A2.5 2.5 0 013 3h15a2.5 2.5 0 012.5 2.5v10A2.5 2.5 0 0118 18H3a2.5 2.5 0 01-2.5-2.5v-10zm18.75 0A1.25 1.25 0 0018 4.25H3A1.25 1.25 0 001.75 5.5v10A1.25 1.25 0 003 16.75h15a1.25 1.25 0 001.25-1.25v-10z"/></g><defs><clipPath id="clip0_470_1764"><path fill="#fff" transform="translate(.5 .5)" d="M0 0h20v20H0z"/></clipPath></defs></svg>