<svg width="20" height="21" viewBox="0 0 20 21" fill="none" xmlns="http://www.w3.org/2000/svg">
<g clip-path="url(#clip0_470_1791)">
<path d="M4.25833 15.5L12.6017 11.9154L12.8577 10.8538H10.4631L13.2342 9.31538L13.3848 8.71538H9.98122L14.168 5.5H11.6529L6.71315 9.76154L6.80351 9.93077L9.93604 9.91538L6.24628 11.9462L6.32158 12.0846L9.45411 12.1L4.16797 15.3308L4.25833 15.5Z" fill="#6C829D"/>
<path d="M12.8402 3.64122L11.689 2.46122L12.5827 1.58872L13.3602 2.38497L14.4727 2.37122C14.9543 2.36552 15.4321 2.45617 15.8782 2.63783C16.3242 2.81949 16.7294 3.0885 17.0699 3.42904C17.4105 3.76958 17.6795 4.17478 17.8611 4.6208C18.0428 5.06682 18.1334 5.54466 18.1277 6.02622L18.1152 7.13872L18.9102 7.91622C19.2546 8.25268 19.5282 8.65458 19.715 9.09828C19.9018 9.54198 19.998 10.0185 19.998 10.5C19.998 10.9814 19.9018 11.458 19.715 11.9017C19.5282 12.3454 19.2546 12.7473 18.9102 13.0837L18.114 13.8612L18.1277 14.9737C18.1334 15.4553 18.0428 15.9331 17.8611 16.3791C17.6795 16.8252 17.4105 17.2304 17.0699 17.5709C16.7294 17.9114 16.3242 18.1804 15.8782 18.3621C15.4321 18.5438 14.9543 18.6344 14.4727 18.6287L13.3602 18.6162L12.5827 19.4112C12.2463 19.7555 11.8444 20.0291 11.4007 20.2159C10.957 20.4027 10.4804 20.499 9.99899 20.499C9.51757 20.499 9.04101 20.4027 8.5973 20.2159C8.1536 20.0291 7.75171 19.7555 7.41524 19.4112L6.63774 18.615L5.52524 18.6287C5.04368 18.6344 4.56584 18.5438 4.11982 18.3621C3.6738 18.1804 3.26861 17.9114 2.92807 17.5709C2.58753 17.2304 2.31852 16.8252 2.13685 16.3791C1.95519 15.9331 1.86454 15.4553 1.87024 14.9737L1.88274 13.8612L1.08774 13.0837C0.74342 12.7473 0.46982 12.3454 0.283023 11.9017C0.0962258 11.458 0 10.9814 0 10.5C0 10.0185 0.0962258 9.54198 0.283023 9.09828C0.46982 8.65458 0.74342 8.25268 1.08774 7.91622L1.88399 7.13872L1.87024 6.02622C1.86454 5.54466 1.95519 5.06682 2.13685 4.6208C2.31852 4.17478 2.58753 3.76958 2.92807 3.42904C3.26861 3.0885 3.6738 2.81949 4.11982 2.63783C4.56584 2.45617 5.04368 2.36552 5.52524 2.37122L6.63774 2.38372L7.41524 1.58872C7.75171 1.2444 8.1536 0.970796 8.5973 0.783999C9.04101 0.597202 9.51757 0.500977 9.99899 0.500977C10.4804 0.500977 10.957 0.597202 11.4007 0.783999C11.8444 0.970796 12.2463 1.2444 12.5827 1.58872L11.689 2.46122C11.4689 2.23595 11.2061 2.05695 10.9159 1.93474C10.6256 1.81253 10.3139 1.74957 9.99899 1.74957C9.68409 1.74957 9.37236 1.81253 9.08213 1.93474C8.79191 2.05695 8.52904 2.23595 8.30899 2.46122L7.15899 3.64122L5.50899 3.62122C5.19422 3.6177 4.88191 3.67713 4.59042 3.796C4.29893 3.91488 4.03414 4.09082 3.81161 4.31347C3.58907 4.53612 3.41327 4.80101 3.29455 5.09256C3.17582 5.38411 3.11656 5.69644 3.12024 6.01122L3.14024 7.65872L1.96024 8.80997C1.73498 9.03002 1.55598 9.29288 1.43376 9.58311C1.31155 9.87333 1.24859 10.1851 1.24859 10.5C1.24859 10.8149 1.31155 11.1266 1.43376 11.4168C1.55598 11.7071 1.73498 11.9699 1.96024 12.19L3.14024 13.34L3.12024 14.99C3.11672 15.3047 3.17615 15.6171 3.29503 15.9085C3.41391 16.2 3.58984 16.4648 3.81249 16.6874C4.03515 16.9099 4.30003 17.0857 4.59158 17.2044C4.88313 17.3231 5.19547 17.3824 5.51024 17.3787L7.15774 17.3587L8.30899 18.5387C8.52904 18.764 8.79191 18.943 9.08213 19.0652C9.37236 19.1874 9.68409 19.2504 9.99899 19.2504C10.3139 19.2504 10.6256 19.1874 10.9159 19.0652C11.2061 18.943 11.4689 18.764 11.689 18.5387L12.839 17.3587L14.489 17.3787C14.8038 17.3822 15.1161 17.3228 15.4076 17.2039C15.6991 17.0851 15.9638 16.9091 16.1864 16.6865C16.4089 16.4638 16.5847 16.1989 16.7034 15.9074C16.8222 15.6158 16.8814 15.3035 16.8777 14.9887L16.8577 13.3412L18.0377 12.19C18.263 11.9699 18.442 11.7071 18.5642 11.4168C18.6864 11.1266 18.7494 10.8149 18.7494 10.5C18.7494 10.1851 18.6864 9.87333 18.5642 9.58311C18.442 9.29288 18.263 9.03002 18.0377 8.80997L16.8577 7.65997L16.8777 6.00997C16.8813 5.69519 16.8218 5.38289 16.703 5.0914C16.5841 4.79991 16.4081 4.53512 16.1855 4.31258C15.9628 4.09004 15.698 3.91425 15.4064 3.79552C15.1149 3.6768 14.8025 3.61754 14.4877 3.62122L12.8402 3.64122Z" fill="#6C829D"/>
</g>
<defs>
<clipPath id="clip0_470_1791">
<rect width="20" height="20" fill="white" transform="translate(0 0.5)"/>
</clipPath>
</defs>
</svg>
