<svg width="20" height="21" viewBox="0 0 20 21" fill="none" xmlns="http://www.w3.org/2000/svg">
<g clip-path="url(#clip0_470_1771)">
<path d="M14.168 10.292C14.168 10.1262 14.2338 9.96726 14.351 9.85005C14.4682 9.73284 14.6272 9.66699 14.793 9.66699H16.043C16.2087 9.66699 16.3677 9.73284 16.4849 9.85005C16.6021 9.96726 16.668 10.1262 16.668 10.292V11.542C16.668 11.7078 16.6021 11.8667 16.4849 11.9839C16.3677 12.1011 16.2087 12.167 16.043 12.167H14.793C14.6272 12.167 14.4682 12.1011 14.351 11.9839C14.2338 11.8667 14.168 11.7078 14.168 11.542V10.292Z" fill="#6C829D"/>
<path d="M4.375 0.5C4.54076 0.5 4.69973 0.565848 4.81694 0.683058C4.93415 0.800269 5 0.95924 5 1.125V1.75H15V1.125C15 0.95924 15.0658 0.800269 15.1831 0.683058C15.3003 0.565848 15.4592 0.5 15.625 0.5C15.7908 0.5 15.9497 0.565848 16.0669 0.683058C16.1842 0.800269 16.25 0.95924 16.25 1.125V1.75H17.5C18.163 1.75 18.7989 2.01339 19.2678 2.48223C19.7366 2.95107 20 3.58696 20 4.25V18C20 18.663 19.7366 19.2989 19.2678 19.7678C18.7989 20.2366 18.163 20.5 17.5 20.5H2.5C1.83696 20.5 1.20107 20.2366 0.732233 19.7678C0.263392 19.2989 0 18.663 0 18V4.25C0 3.58696 0.263392 2.95107 0.732233 2.48223C1.20107 2.01339 1.83696 1.75 2.5 1.75H3.75V1.125C3.75 0.95924 3.81585 0.800269 3.93306 0.683058C4.05027 0.565848 4.20924 0.5 4.375 0.5V0.5ZM2.5 3C2.16848 3 1.85054 3.1317 1.61612 3.36612C1.3817 3.60054 1.25 3.91848 1.25 4.25V18C1.25 18.3315 1.3817 18.6495 1.61612 18.8839C1.85054 19.1183 2.16848 19.25 2.5 19.25H17.5C17.8315 19.25 18.1495 19.1183 18.3839 18.8839C18.6183 18.6495 18.75 18.3315 18.75 18V4.25C18.75 3.91848 18.6183 3.60054 18.3839 3.36612C18.1495 3.1317 17.8315 3 17.5 3H2.5Z" fill="#6C829D"/>
<path d="M3.33203 5.29199C3.33203 5.12623 3.39788 4.96726 3.51509 4.85005C3.6323 4.73284 3.79127 4.66699 3.95703 4.66699H16.457C16.6228 4.66699 16.7818 4.73284 16.899 4.85005C17.0162 4.96726 17.082 5.12623 17.082 5.29199V6.54199C17.082 6.70775 17.0162 6.86672 16.899 6.98393C16.7818 7.10114 16.6228 7.16699 16.457 7.16699H3.95703C3.79127 7.16699 3.6323 7.10114 3.51509 6.98393C3.39788 6.86672 3.33203 6.70775 3.33203 6.54199V5.29199Z" fill="#6C829D"/>
</g>
<defs>
<clipPath id="clip0_470_1771">
<rect width="20" height="20" fill="white" transform="translate(0 0.5)"/>
</clipPath>
</defs>
</svg>
