<svg width="20" height="21" viewBox="0 0 20 21" fill="none" xmlns="http://www.w3.org/2000/svg">
<path fill-rule="evenodd" clip-rule="evenodd" d="M5.83203 15.292C5.83203 15.1262 5.89788 14.9673 6.01509 14.85C6.1323 14.7328 6.29127 14.667 6.45703 14.667H18.957C19.1228 14.667 19.2818 14.7328 19.399 14.85C19.5162 14.9673 19.582 15.1262 19.582 15.292C19.582 15.4578 19.5162 15.6167 19.399 15.7339C19.2818 15.8511 19.1228 15.917 18.957 15.917H6.45703C6.29127 15.917 6.1323 15.8511 6.01509 15.7339C5.89788 15.6167 5.83203 15.4578 5.83203 15.292ZM3.33203 10.292C3.33203 10.1262 3.39788 9.96726 3.51509 9.85005C3.6323 9.73284 3.79127 9.66699 3.95703 9.66699H16.457C16.6228 9.66699 16.7818 9.73284 16.899 9.85005C17.0162 9.96726 17.082 10.1262 17.082 10.292C17.082 10.4578 17.0162 10.6167 16.899 10.7339C16.7818 10.8511 16.6228 10.917 16.457 10.917H3.95703C3.79127 10.917 3.6323 10.8511 3.51509 10.7339C3.39788 10.6167 3.33203 10.4578 3.33203 10.292ZM0.832031 5.29199C0.832031 5.12623 0.897879 4.96726 1.01509 4.85005C1.1323 4.73284 1.29127 4.66699 1.45703 4.66699H13.957C14.1228 4.66699 14.2818 4.73284 14.399 4.85005C14.5162 4.96726 14.582 5.12623 14.582 5.29199C14.582 5.45775 14.5162 5.61672 14.399 5.73393C14.2818 5.85114 14.1228 5.91699 13.957 5.91699H1.45703C1.29127 5.91699 1.1323 5.85114 1.01509 5.73393C0.897879 5.61672 0.832031 5.45775 0.832031 5.29199Z" fill="#6C829D"/>
</svg>
