<svg width="21" height="21" viewBox="0 0 21 21" fill="none" xmlns="http://www.w3.org/2000/svg">
<g clip-path="url(#clip0_470_1764)">
<path d="M8.9875 7.28286C8.89405 7.21632 8.78408 7.17679 8.66965 7.16859C8.55522 7.16039 8.44074 7.18385 8.33876 7.23639C8.23678 7.28893 8.15122 7.36853 8.09147 7.46646C8.03172 7.5644 8.00007 7.67688 8 7.79161V14.0416C8.00007 14.1563 8.03172 14.2688 8.09147 14.3668C8.15122 14.4647 8.23678 14.5443 8.33876 14.5968C8.44074 14.6494 8.55522 14.6728 8.66965 14.6646C8.78408 14.6564 8.89405 14.6169 8.9875 14.5504L13.3625 11.4254C13.4435 11.3675 13.5096 11.2912 13.5551 11.2027C13.6007 11.1142 13.6245 11.0161 13.6245 10.9166C13.6245 10.8171 13.6007 10.719 13.5551 10.6305C13.5096 10.542 13.4435 10.4657 13.3625 10.4079L8.9875 7.28286V7.28286Z" fill="#6C829D"/>
<path d="M0.5 5.5C0.5 4.83696 0.763392 4.20107 1.23223 3.73223C1.70107 3.26339 2.33696 3 3 3H18C18.663 3 19.2989 3.26339 19.7678 3.73223C20.2366 4.20107 20.5 4.83696 20.5 5.5V15.5C20.5 16.163 20.2366 16.7989 19.7678 17.2678C19.2989 17.7366 18.663 18 18 18H3C2.33696 18 1.70107 17.7366 1.23223 17.2678C0.763392 16.7989 0.5 16.163 0.5 15.5V5.5ZM19.25 5.5C19.25 5.16848 19.1183 4.85054 18.8839 4.61612C18.6495 4.3817 18.3315 4.25 18 4.25H3C2.66848 4.25 2.35054 4.3817 2.11612 4.61612C1.8817 4.85054 1.75 5.16848 1.75 5.5V15.5C1.75 15.8315 1.8817 16.1495 2.11612 16.3839C2.35054 16.6183 2.66848 16.75 3 16.75H18C18.3315 16.75 18.6495 16.6183 18.8839 16.3839C19.1183 16.1495 19.25 15.8315 19.25 15.5V5.5Z" fill="#6C829D"/>
</g>
<defs>
<clipPath id="clip0_470_1764">
<rect width="20" height="20" fill="white" transform="translate(0.5 0.5)"/>
</clipPath>
</defs>
</svg>
